<?xml version="1.0" encoding="UTF-8" standalone="no"?>
<!-- Created with Inkscape (http://www.inkscape.org/) -->

<svg
   width="128"
   height="128"
   viewBox="0 0 33.866667 33.866667"
   version="1.1"
   id="svg5"
   inkscape:version="1.4 (e7c3feb100, 2024-10-09)"
   sodipodi:docname="ID20.svg"
   xmlns:inkscape="http://www.inkscape.org/namespaces/inkscape"
   xmlns:sodipodi="http://sodipodi.sourceforge.net/DTD/sodipodi-0.dtd"
   xmlns="http://www.w3.org/2000/svg"
   xmlns:svg="http://www.w3.org/2000/svg"
   xmlns:rdf="http://www.w3.org/1999/02/22-rdf-syntax-ns#"
   xmlns:cc="http://creativecommons.org/ns#"
   xmlns:dc="http://purl.org/dc/elements/1.1/">
  <sodipodi:namedview
     id="namedview7"
     pagecolor="#ffffff"
     bordercolor="#999999"
     borderopacity="1"
     inkscape:showpageshadow="0"
     inkscape:pageopacity="0"
     inkscape:pagecheckerboard="0"
     inkscape:deskcolor="#d1d1d1"
     inkscape:document-units="px"
     showgrid="true"
     inkscape:zoom="4.6207732"
     inkscape:cx="64.058543"
     inkscape:cy="53.34605"
     inkscape:window-width="1920"
     inkscape:window-height="997"
     inkscape:window-x="0"
     inkscape:window-y="0"
     inkscape:window-maximized="1"
     inkscape:current-layer="g1">
    <inkscape:grid
       id="grid2"
       units="px"
       originx="0"
       originy="0"
       spacingx="0.26458334"
       spacingy="0.26458334"
       empcolor="#3f3fff"
       empopacity="0.25098039"
       color="#3f3fff"
       opacity="0.1254902"
       empspacing="8"
       enabled="true"
       visible="true" />
  </sodipodi:namedview>
  <defs
     id="defs2">
    <marker
       style="overflow:visible"
       id="marker6"
       refX="0"
       refY="0"
       orient="auto-start-reverse"
       inkscape:stockid="Triangle arrow"
       markerWidth="0.69999999"
       markerHeight="0.69999999"
       viewBox="0 0 1 1"
       inkscape:isstock="true"
       inkscape:collect="always"
       preserveAspectRatio="xMidYMid">
      <path
         transform="scale(0.5)"
         style="fill:context-stroke;fill-rule:evenodd;stroke:context-stroke;stroke-width:1pt"
         d="M 5.77,0 -2.88,5 V -5 Z"
         id="path6" />
    </marker>
    <marker
       style="overflow:visible"
       id="marker5"
       refX="0"
       refY="0"
       orient="auto-start-reverse"
       inkscape:stockid="Triangle arrow"
       markerWidth="0.7"
       markerHeight="0.7"
       viewBox="0 0 1 1"
       inkscape:isstock="true"
       inkscape:collect="always"
       preserveAspectRatio="xMidYMid">
      <path
         transform="scale(0.5)"
         style="fill:context-stroke;fill-rule:evenodd;stroke:context-stroke;stroke-width:1pt"
         d="M 5.77,0 -2.88,5 V -5 Z"
         id="path5" />
    </marker>
    <symbol
       id="g6">
      <title
         id="title6">Δ P occ</title>
      <path
         style="font-variation-settings:normal;fill:none;fill-opacity:1;stroke:#000000;stroke-width:0.79375;stroke-linecap:butt;stroke-linejoin:miter;stroke-miterlimit:4;stroke-dasharray:none;stroke-dashoffset:0;stroke-opacity:1;marker-start:url(#marker5);marker-end:url(#marker6);stop-color:#000000"
         d="M 4.2333335,8.4666671 V 23.283335"
         id="path2"
         sodipodi:nodetypes="cc" />
      <path
         style="font-variation-settings:normal;fill:none;fill-opacity:1;stroke:#000000;stroke-width:1.05833;stroke-linecap:butt;stroke-linejoin:miter;stroke-miterlimit:4;stroke-dasharray:none;stroke-dashoffset:0;stroke-opacity:1;stop-color:#000000"
         d="m 2.1166667,4.2333335 c 4.2333336,0 5.1713499,0.1494697 5.6471902,0.966364 1.9500133,3.3476669 1.5024397,10.3069225 3.5588981,15.5473235 0.779793,1.75031 1.704051,3.786122 3.606343,4.534925 1.741817,0.549032 3.233556,-0.989746 4.127366,-2.291235 2.460371,-3.715853 3.659114,-8.087826 4.843103,-12.335969 0.99978,-6.1637011 7.850435,-6.4214085 7.850435,-6.4214085"
         id="path3"
         sodipodi:nodetypes="csccccc" />
    </symbol>
  </defs>
  <g
     inkscape:label="Calque 1"
     inkscape:groupmode="layer"
     id="layer1">
    <g
       id="g1"
       transform="translate(-0.10629624,-1.0061988)">
      <rect
         style="fill:none;fill-rule:evenodd;stroke:#535353;stroke-width:0;stroke-linecap:round;stroke-linejoin:round;stroke-miterlimit:2;paint-order:stroke markers fill;stroke-dasharray:none"
         id="rect1"
         width="29.633337"
         height="29.633337"
         x="2.2229629"
         y="3.1228654" />
      <path
         style="fill:none;fill-rule:evenodd;stroke:#000000;stroke-width:1.58750002;stroke-linecap:round;stroke-linejoin:round;stroke-miterlimit:2;stroke-dasharray:none;paint-order:stroke markers fill"
         d="M 2.22296 3.12287 C 2.2726 3.07323 2.32224 3.17325 2.37187 3.12361 C 2.42151 3.07398 2.47115 3.17549 2.52079 3.12586 C 2.57042 3.07622 2.62006 3.17923 2.6697 3.1296 C 2.71933 3.07997 2.76897 3.18447 2.81861 3.13484 C 2.86824 3.08521 2.91788 3.19119 2.96752 3.14157 C 3.01716 3.09195 3.06679 3.19942 3.11643 3.1498 C 3.16607 3.10019 3.2157 3.20914 3.26534 3.15953 C 3.31498 3.10993 3.36462 3.22035 3.41425 3.17076 C 3.46389 3.12116 3.51353 3.23306 3.56316 3.18348 C 3.6128 3.13389 3.66244 3.24727 3.71208 3.1977 C 3.76171 3.14812 3.81135 3.26297 3.86099 3.21341 C 3.91062 3.16385 3.96026 3.28017 4.0099 3.23062 C 4.05953 3.18107 4.10917 3.29886 4.15881 3.24933 C 4.20845 3.1998 4.25808 3.31905 4.30772 3.26953 C 4.35736 3.22002 4.40699 3.34073 4.45663 3.29123 C 4.50627 3.24174 4.55591 3.36391 4.60554 3.31443 C 4.65518 3.26495 4.70482 3.38858 4.75445 3.33912 C 4.80409 3.28967 4.85373 3.41475 4.90337 3.36531 C 4.953 3.31588 5.00264 3.44241 5.05228 3.393 C 5.10191 3.34359 5.15155 3.47157 5.20119 3.42218 C 5.25082 3.3728 5.30046 3.50223 5.3501 3.45286 C 5.39974 3.4035 5.44937 3.53438 5.49901 3.48504 C 5.54865 3.43571 5.59828 3.56802 5.64792 3.51871 C 5.69756 3.46941 5.7472 3.60316 5.79683 3.55388 C 5.84647 3.50461 5.89611 3.6398 5.94574 3.59055 C 5.99538 3.54131 6.04502 3.67793 6.09466 3.62871 C 6.14429 3.5795 6.19393 3.71756 6.24357 3.66837 C 6.2932 3.61919 6.34284 3.75868 6.39248 3.70953 C 6.44211 3.66038 6.49175 3.80129 6.54139 3.75218 C 6.59103 3.70307 6.64066 3.84541 6.6903 3.79633 C 6.73994 3.74726 6.78957 3.89102 6.83921 3.84198 C 6.88885 3.79294 6.93849 3.93812 6.98812 3.88912 C 7.03776 3.84013 7.0874 3.98672 7.13703 3.93776 C 7.18667 3.88881 7.23631 4.03681 7.28595 3.9879 C 7.33558 3.93898 7.38522 4.0884 7.43486 4.03953 C 7.48449 3.99066 7.53413 4.14149 7.58377 4.09266 C 7.6334 4.04383 7.68304 4.19607 7.73268 4.14728 C 7.78232 4.0985 7.83195 4.25214 7.88159 4.20341 C 7.93123 4.15467 7.98086 4.30971 8.0305 4.26103 C 8.08014 4.21234 8.12978 4.36878 8.17941 4.32014 C 8.22905 4.2715 8.27869 4.42934 8.32832 4.38075 C 8.37796 4.33217 8.4276 4.4914 8.47724 4.44286 C 8.52687 4.39433 8.57651 4.55495 8.62615 4.50647 C 8.67578 4.45799 8.72542 4.62 8.77506 4.57157 C 8.82469 4.52314 8.87433 4.68654 8.92397 4.63817 C 8.97361 4.58979 9.02324 4.75458 9.07288 4.70626 C 9.12252 4.65795 9.17215 4.82411 9.22179 4.77586 C 9.27143 4.7276 9.32107 4.89514 9.3707 4.84694 C 9.42034 4.79874 9.46998 4.96767 9.51961 4.91953 C 9.56925 4.87139 9.61889 5.04169 9.66852 4.99361 C 9.71816 4.94553 9.7678 5.1172 9.81744 5.06919 C 9.86707 5.02117 9.91671 5.19421 9.96635 5.14626 C 10.016 5.09831 10.0656 5.27272 10.1153 5.22483 C 10.1649 5.17695 10.2145 5.35272 10.2642 5.3049 C 10.3138 5.25708 10.3634 5.43422 10.4131 5.38647 C 10.4627 5.33871 10.5124 5.51721 10.562 5.46953 C 10.6116 5.42184 10.6613 5.6017 10.7109 5.55408 C 10.7605 5.50647 10.8102 5.68768 10.8598 5.64014 C 10.9095 5.5926 10.9591 5.77516 11.0087 5.72769 C 11.0584 5.68022 11.108 5.86414 11.1576 5.81674 C 11.2073 5.76934 11.2569 5.9546 11.3065 5.90728 C 11.3562 5.85996 11.4058 6.04657 11.4555 5.99932 C 11.5051 5.95207 11.5547 6.14003 11.6044 6.09286 C 11.654 6.04569 11.7036 6.23498 11.7533 6.18789 C 11.8029 6.1408 11.8526 6.33144 11.9022 6.28442 C 11.9518 6.23741 12.0015 6.42938 12.0511 6.38245 C 12.1007 6.33552 12.1504 6.52882 12.2 6.48197 C 12.2497 6.43512 12.2993 6.62976 12.3489 6.58299 C 12.3986 6.53623 12.4482 6.73219 12.4978 6.68551 C 12.5475 6.63883 12.5971 6.83612 12.6467 6.78952 C 12.6964 6.74293 12.746 6.94155 12.7957 6.89503 C 12.8453 6.84852 12.8949 7.04846 12.9446 7.00204 C 12.9942 6.95562 13.0438 7.15688 13.0935 7.11054 C 13.1431 7.06421 13.1928 7.26679 13.2424 7.22054 C 13.292 7.1743 13.3417 7.37819 13.3913 7.33204 C 13.4409 7.28589 13.4906 7.49109 13.5402 7.44503 C 13.5899 7.39897 13.6395 7.60549 13.6891 7.55952 C 13.7388 7.51356 13.7884 7.72138 13.838 7.67551 C 13.8877 7.62964 13.9373 7.83877 13.987 7.79299 C 14.0366 7.74721 14.0862 7.95765 14.1359 7.91197 C 14.1855 7.86629 14.2351 8.07803 14.2848 8.03245 C 14.3344 7.98686 14.384 8.1999 14.4337 8.15442 C 14.4833 8.10894 14.533 8.32327 14.5826 8.27789 C 14.6322 8.23251 14.6819 8.44813 14.7315 8.40285 C 14.7811 8.35757 14.8308 8.57449 14.8804 8.52932 C 14.9301 8.48414 14.9797 8.70235 15.0293 8.65728 C 15.079 8.6122 15.1286 8.8317 15.1782 8.78673 C 15.2279 8.74176 15.2775 8.96255 15.3272 8.91768 C 15.3768 8.87282 15.4264 9.09489 15.4761 9.05013 C 15.5257 9.00538 15.5753 9.22872 15.625 9.18408 C 15.6746 9.13943 15.7242 9.36406 15.7739 9.31952 C 15.8235 9.27498 15.8732 9.50088 15.9228 9.45646 C 15.9724 9.41203 16.0221 9.63921 16.0717 9.59489 C 16.1213 9.55058 16.171 9.77903 16.2206 9.73482 C 16.2703 9.69062 16.3199 9.92034 16.3695 9.87625 C 16.4192 9.83216 16.4688 10.0631 16.5184 10.0192 C 16.5681 9.9752 16.6177 10.2075 16.6674 10.1636 C 16.717 10.1197 16.7666 10.3533 16.8163 10.3095 C 16.8659 10.2658 16.9155 10.5006 16.9652 10.4569 C 17.0148 10.4133 17.0644 10.6493 17.1141 10.6058 C 17.1637 10.5623 17.2134 10.7996 17.263 10.7563 C 17.3126 10.7129 17.3623 10.9514 17.4119 10.9082 C 17.4615 10.8649 17.5112 11.1047 17.5608 11.0616 C 17.6105 11.0184 17.6601 11.2595 17.7097 11.2165 C 17.7594 11.1734 17.809 11.4157 17.8586 11.3728 C 17.9083 11.33 17.9579 11.5735 18.0076 11.5307 C 18.0572 11.488 18.1068 11.7328 18.1565 11.6901 C 18.2061 11.6475 18.2557 11.8935 18.3054 11.851 C 18.355 11.8085 18.4047 12.0558 18.4543 12.0134 C 18.5039 11.971 18.5536 12.2195 18.6032 12.1773 C 18.6528 12.135 18.7025 12.3848 18.7521 12.3426 C 18.8017 12.3005 18.8514 12.5515 18.901 12.5095 C 18.9507 12.4675 19.0003 12.7197 19.0499 12.6779 C 19.0996 12.636 19.1492 12.8895 19.1988 12.8477 C 19.2485 12.806 19.2981 13.0607 19.3478 13.0191 C 19.3974 12.9775 19.447 13.2334 19.4967 13.192 C 19.5463 13.1505 19.5959 13.4076 19.6456 13.3663 C 19.6952 13.325 19.7449 13.5833 19.7945 13.5422 C 19.8441 13.501 19.8938 13.7605 19.9434 13.7195 C 19.993 13.6785 20.0427 13.9392 20.0923 13.8984 C 20.1419 13.8575 20.1916 14.1194 20.2412 14.0787 C 20.2909 14.038 20.3405 14.3011 20.3901 14.2605 C 20.4398 14.2199 20.4894 14.4843 20.539 14.4439 C 20.5887 14.4034 20.6383 14.669 20.688 14.6287 C 20.7376 14.5884 20.7872 14.8552 20.8369 14.815 C 20.8865 14.7749 20.9361 15.0429 20.9858 15.0028 C 21.0354 14.9628 21.0851 15.232 21.1347 15.1922 C 21.1843 15.1523 21.234 15.4227 21.2836 15.383 C 21.3332 15.3433 21.3829 15.6149 21.4325 15.5753 C 21.4822 15.5357 21.5318 15.8085 21.5814 15.7691 C 21.6311 15.7297 21.6807 16.0037 21.7303 15.9644 C 21.78 15.9251 21.8296 16.2003 21.8792 16.1612 C 21.9289 16.1221 21.9785 16.3985 22.0282 16.3595 C 22.0778 16.3205 22.1274 16.5981 22.1771 16.5593 C 22.2267 16.5205 22.2763 16.7992 22.326 16.7606 C 22.3756 16.7219 22.4253 17.0019 22.4749 16.9634 C 22.5245 16.9249 22.5742 17.206 22.6238 17.1677 C 22.6734 17.1293 22.7231 17.4116 22.7727 17.3734 C 22.8224 17.3353 22.872 17.6187 22.9216 17.5807 C 22.9713 17.5427 23.0209 17.8274 23.0705 17.7895 C 23.1202 17.7516 23.1698 18.0375 23.2194 17.9998 C 23.2691 17.9621 23.3187 18.2491 23.3684 18.2115 C 23.418 18.174 23.4676 18.4622 23.5173 18.4248 C 23.5669 18.3874 23.6165 18.6768 23.6662 18.6396 C 23.7158 18.6024 23.7655 18.8929 23.8151 18.8558 C 23.8647 18.8188 23.9144 19.1104 23.964 19.0736 C 24.0136 19.0367 24.0633 19.3295 24.1129 19.2928 C 24.1626 19.2561 24.2122 19.5501 24.2618 19.5136 C 24.3115 19.477 24.3611 19.7722 24.4107 19.7358 C 24.4604 19.6995 24.51 19.9958 24.5596 19.9596 C 24.6093 19.9234 24.6589 20.2208 24.7086 20.1848 C 24.7582 20.1488 24.8078 20.4474 24.8575 20.4115 C 24.9071 20.3757 24.9567 20.6754 25.0064 20.6398 C 25.056 20.6041 25.1057 20.905 25.1553 20.8695 C 25.2049 20.834 25.2546 21.136 25.3042 21.1007 C 25.3538 21.0654 25.4035 21.3686 25.4531 21.3334 C 25.5028 21.2983 25.5524 21.6026 25.602 21.5677 C 25.6517 21.5327 25.7013 21.8382 25.7509 21.8034 C 25.8006 21.7686 25.8502 22.0752 25.8999 22.0406 C 25.9495 22.006 25.9991 22.3137 26.0488 22.2793 C 26.0984 22.2448 26.148 22.5537 26.1977 22.5195 C 26.2473 22.4852 26.2969 22.7953 26.3466 22.7612 C 26.3962 22.7271 26.4459 23.0383 26.4955 23.0044 C 26.5451 22.9705 26.5948 23.2828 26.6444 23.2491 C 26.694 23.2154 26.7437 23.5288 26.7933 23.4953 C 26.843 23.4617 26.8926 23.7763 26.9422 23.743 C 26.9919 23.7096 27.0415 24.0253 27.0911 23.9921 C 27.1408 23.959 27.1904 24.2758 27.2401 24.2428 C 27.2897 24.2098 27.3393 24.5278 27.389 24.495 C 27.4386 24.4622 27.4882 24.7813 27.5379 24.7487 C 27.5875 24.7161 27.6371 25.0362 27.6868 25.0038 C 27.7364 24.9714 27.7861 25.2927 27.8357 25.2605 C 27.8853 25.2283 27.935 25.5507 27.9846 25.5187 C 28.0342 25.4866 28.0839 25.8102 28.1335 25.7783 C 28.1832 25.7465 28.2328 26.0711 28.2824 26.0395 C 28.3321 26.0078 28.3817 26.3336 28.4313 26.3021 C 28.481 26.2707 28.5306 26.5975 28.5803 26.5663 C 28.6299 26.535 28.6795 26.863 28.7292 26.8319 C 28.7788 26.8009 28.8284 27.1299 28.8781 27.0991 C 28.9277 27.0682 28.9773 27.3984 29.027 27.3677 C 29.0766 27.337 29.1263 27.6683 29.1759 27.6378 C 29.2255 27.6074 29.2752 27.9398 29.3248 27.9095 C 29.3744 27.8792 29.4241 28.2127 29.4737 28.1826 C 29.5234 28.1525 29.573 28.4871 29.6226 28.4572 C 29.6723 28.4273 29.7219 28.763 29.7715 28.7334 C 29.8212 28.7037 29.8708 29.0405 29.9205 29.011 C 29.9701 28.9815 30.0197 29.3194 30.0694 29.2901 C 30.119 29.2608 30.1686 29.5998 30.2183 29.5707 C 30.2679 29.5416 30.3176 29.8817 30.3672 29.8528 C 30.4168 29.8239 30.4665 30.1651 30.5161 30.1364 C 30.5657 30.1077 30.6154 30.45 30.665 30.4215 C 30.7146 30.393 30.7643 30.7364 30.8139 30.7081 C 30.8636 30.6798 30.9132 31.0243 30.9628 30.9962 C 31.0125 30.9681 31.0621 31.3137 31.1117 31.2858 C 31.1614 31.2579 31.211 31.6045 31.2607 31.5769 C 31.3103 31.5492 31.3599 31.8969 31.4096 31.8695 C 31.4592 31.842 31.5088 32.1908 31.5585 32.1636 C 31.6081 32.1363 31.6578 32.4862 31.7074 32.4591 C 31.757 32.4321 31.8067 32.783 31.8563 32.7562"
         title="1-x**2"
         id="path4" />
    </g>
  </g>
  <metadata
     id="metadata139">
    <rdf:RDF>
      <cc:Work
         rdf:about="">
        <dc:creator>
          <cc:Agent>
            <dc:title>Nicolas Blais St-Laurent</dc:title>
          </cc:Agent>
        </dc:creator>
      </cc:Work>
    </rdf:RDF>
  </metadata>
</svg>
