<?xml version="1.0" encoding="UTF-8" standalone="no"?>
<!-- Created with Inkscape (http://www.inkscape.org/) -->

<svg
   width="128"
   height="128"
   viewBox="0 0 33.866667 33.866667"
   version="1.1"
   id="svg5"
   inkscape:version="1.4 (e7c3feb100, 2024-10-09)"
   sodipodi:docname="ID45.svg"
   xmlns:inkscape="http://www.inkscape.org/namespaces/inkscape"
   xmlns:sodipodi="http://sodipodi.sourceforge.net/DTD/sodipodi-0.dtd"
   xmlns="http://www.w3.org/2000/svg"
   xmlns:svg="http://www.w3.org/2000/svg"
   xmlns:rdf="http://www.w3.org/1999/02/22-rdf-syntax-ns#"
   xmlns:cc="http://creativecommons.org/ns#"
   xmlns:dc="http://purl.org/dc/elements/1.1/">
  <sodipodi:namedview
     id="namedview7"
     pagecolor="#ffffff"
     bordercolor="#999999"
     borderopacity="1"
     inkscape:showpageshadow="0"
     inkscape:pageopacity="0"
     inkscape:pagecheckerboard="0"
     inkscape:deskcolor="#d1d1d1"
     inkscape:document-units="px"
     showgrid="true"
     inkscape:zoom="5.9918551"
     inkscape:cx="64.003551"
     inkscape:cy="53.322385"
     inkscape:window-width="1920"
     inkscape:window-height="997"
     inkscape:window-x="0"
     inkscape:window-y="0"
     inkscape:window-maximized="1"
     inkscape:current-layer="g1">
    <inkscape:grid
       id="grid2"
       units="px"
       originx="0"
       originy="0"
       spacingx="0.26458334"
       spacingy="0.26458334"
       empcolor="#3f3fff"
       empopacity="0.25098039"
       color="#3f3fff"
       opacity="0.1254902"
       empspacing="8"
       enabled="true"
       visible="true" />
  </sodipodi:namedview>
  <defs
     id="defs2">
    <marker
       style="overflow:visible"
       id="marker6"
       refX="0"
       refY="0"
       orient="auto-start-reverse"
       inkscape:stockid="Triangle arrow"
       markerWidth="0.69999999"
       markerHeight="0.69999999"
       viewBox="0 0 1 1"
       inkscape:isstock="true"
       inkscape:collect="always"
       preserveAspectRatio="xMidYMid">
      <path
         transform="scale(0.5)"
         style="fill:context-stroke;fill-rule:evenodd;stroke:context-stroke;stroke-width:1pt"
         d="M 5.77,0 -2.88,5 V -5 Z"
         id="path6" />
    </marker>
    <marker
       style="overflow:visible"
       id="marker5"
       refX="0"
       refY="0"
       orient="auto-start-reverse"
       inkscape:stockid="Triangle arrow"
       markerWidth="0.7"
       markerHeight="0.7"
       viewBox="0 0 1 1"
       inkscape:isstock="true"
       inkscape:collect="always"
       preserveAspectRatio="xMidYMid">
      <path
         transform="scale(0.5)"
         style="fill:context-stroke;fill-rule:evenodd;stroke:context-stroke;stroke-width:1pt"
         d="M 5.77,0 -2.88,5 V -5 Z"
         id="path5" />
    </marker>
    <symbol
       id="g6">
      <title
         id="title6">Δ P occ</title>
      <path
         style="font-variation-settings:normal;fill:none;fill-opacity:1;stroke:#000000;stroke-width:0.79375;stroke-linecap:butt;stroke-linejoin:miter;stroke-miterlimit:4;stroke-dasharray:none;stroke-dashoffset:0;stroke-opacity:1;marker-start:url(#marker5);marker-end:url(#marker6);stop-color:#000000"
         d="M 4.2333335,8.4666671 V 23.283335"
         id="path2"
         sodipodi:nodetypes="cc" />
      <path
         style="font-variation-settings:normal;fill:none;fill-opacity:1;stroke:#000000;stroke-width:1.05833;stroke-linecap:butt;stroke-linejoin:miter;stroke-miterlimit:4;stroke-dasharray:none;stroke-dashoffset:0;stroke-opacity:1;stop-color:#000000"
         d="m 2.1166667,4.2333335 c 4.2333336,0 5.1713499,0.1494697 5.6471902,0.966364 1.9500133,3.3476669 1.5024397,10.3069225 3.5588981,15.5473235 0.779793,1.75031 1.704051,3.786122 3.606343,4.534925 1.741817,0.549032 3.233556,-0.989746 4.127366,-2.291235 2.460371,-3.715853 3.659114,-8.087826 4.843103,-12.335969 0.99978,-6.1637011 7.850435,-6.4214085 7.850435,-6.4214085"
         id="path3"
         sodipodi:nodetypes="csccccc" />
    </symbol>
  </defs>
  <g
     inkscape:label="Calque 1"
     inkscape:groupmode="layer"
     id="layer1">
    <g
       id="g1"
       transform="translate(-0.10629624,-1.0061988)">
      <rect
         style="fill:none;fill-rule:evenodd;stroke:#535353;stroke-width:0;stroke-linecap:round;stroke-linejoin:round;stroke-miterlimit:2;paint-order:stroke markers fill;stroke-dasharray:none"
         id="rect1"
         width="29.633337"
         height="29.633337"
         x="2.2229629"
         y="3.1228654" />
      <path
         style="fill:none;fill-rule:evenodd;stroke:#000000;stroke-width:1.58750002;stroke-linecap:round;stroke-linejoin:round;stroke-miterlimit:2;stroke-dasharray:none;paint-order:stroke markers fill"
         d="M 2.22296 3.12287 C 2.2726 3.07323 2.32224 3.1725 2.37187 3.12287 C 2.42151 3.07323 2.47115 3.1725 2.52079 3.12287 C 2.57042 3.07323 2.62006 3.1725 2.6697 3.12287 C 2.71933 3.07323 2.76897 3.17249 2.81861 3.12287 C 2.86825 3.07324 2.91788 3.17249 2.96752 3.12287 C 3.01716 3.07325 3.06679 3.17248 3.11643 3.12287 C 3.16607 3.07326 3.2157 3.17248 3.26534 3.12287 C 3.31498 3.07327 3.36462 3.17248 3.41425 3.12288 C 3.46389 3.07328 3.51353 3.17248 3.56316 3.12289 C 3.6128 3.07331 3.66244 3.17248 3.71208 3.12291 C 3.76171 3.07333 3.81135 3.17249 3.86099 3.12293 C 3.91062 3.07337 3.96026 3.17251 4.0099 3.12296 C 4.05954 3.07341 4.10917 3.17253 4.15881 3.123 C 4.20845 3.07347 4.25808 3.17257 4.30772 3.12306 C 4.35736 3.07354 4.40699 3.17262 4.45663 3.12313 C 4.50627 3.07363 4.55591 3.17269 4.60554 3.12322 C 4.65518 3.07374 4.70482 3.17278 4.75445 3.12333 C 4.80409 3.07387 4.85373 3.1729 4.90337 3.12346 C 4.953 3.07403 5.00264 3.17304 5.05228 3.12363 C 5.10191 3.07422 5.15155 3.17321 5.20119 3.12382 C 5.25083 3.07444 5.30046 3.17342 5.3501 3.12406 C 5.39974 3.0747 5.44937 3.17367 5.49901 3.12434 C 5.54865 3.075 5.59828 3.17397 5.64792 3.12466 C 5.69756 3.07536 5.7472 3.17432 5.79683 3.12504 C 5.84647 3.07577 5.89611 3.17473 5.94574 3.12548 C 5.99538 3.07624 6.04502 3.1752 6.09466 3.12599 C 6.14429 3.07677 6.19393 3.17575 6.24357 3.12656 C 6.2932 3.07738 6.34284 3.17637 6.39248 3.12722 C 6.44212 3.07808 6.49175 3.17708 6.54139 3.12797 C 6.59103 3.07886 6.64066 3.17788 6.6903 3.12881 C 6.73994 3.07973 6.78957 3.17879 6.83921 3.12975 C 6.88885 3.08072 6.93849 3.17981 6.98812 3.13081 C 7.03776 3.08181 7.0874 3.18095 7.13703 3.13199 C 7.18667 3.08303 7.23631 3.18222 7.28595 3.1333 C 7.33558 3.08439 7.38522 3.18363 7.43486 3.13476 C 7.48449 3.08589 7.53413 3.18519 7.58377 3.13636 C 7.63341 3.08754 7.68304 3.18692 7.73268 3.13814 C 7.78232 3.08935 7.83195 3.18882 7.88159 3.14008 C 7.93123 3.09135 7.98087 3.1909 8.0305 3.14222 C 8.08014 3.09353 8.12978 3.19319 8.17941 3.14455 C 8.22905 3.09592 8.27869 3.19569 8.32832 3.1471 C 8.37796 3.09851 8.4276 3.19841 8.47724 3.14988 C 8.52687 3.10134 8.57651 3.20138 8.62615 3.1529 C 8.67578 3.10441 8.72542 3.2046 8.77506 3.15617 C 8.8247 3.10774 8.87433 3.20809 8.92397 3.15971 C 8.97361 3.11134 9.02324 3.21186 9.07288 3.16354 C 9.12252 3.11523 9.17216 3.21594 9.22179 3.16768 C 9.27143 3.11942 9.32107 3.22033 9.3707 3.17213 C 9.42034 3.12393 9.46998 3.22506 9.51961 3.17692 C 9.56925 3.12878 9.61889 3.23014 9.66853 3.18206 C 9.71816 3.13398 9.7678 3.2356 9.81744 3.18758 C 9.86707 3.13956 9.91671 3.24144 9.96635 3.19349 C 10.016 3.14554 10.0656 3.2477 10.1153 3.19981 C 10.1649 3.15192 10.2145 3.25438 10.2642 3.20656 C 10.3138 3.15874 10.3634 3.26152 10.4131 3.21377 C 10.4627 3.16601 10.5124 3.26913 10.562 3.22145 C 10.6116 3.17376 10.6613 3.27723 10.7109 3.22962 C 10.7605 3.182 10.8102 3.28585 10.8598 3.23831 C 10.9095 3.19076 10.9591 3.29501 11.0087 3.24754 C 11.0584 3.20007 11.108 3.30473 11.1576 3.25733 C 11.2073 3.20994 11.2569 3.31504 11.3065 3.26772 C 11.3562 3.22039 11.4058 3.32596 11.4555 3.27871 C 11.5051 3.23147 11.5547 3.33752 11.6044 3.29035 C 11.654 3.24318 11.7036 3.34974 11.7533 3.30265 C 11.8029 3.25556 11.8526 3.36265 11.9022 3.31564 C 11.9518 3.26863 12.0015 3.37628 12.0511 3.32935 C 12.1007 3.28242 12.1504 3.39066 12.2 3.34381 C 12.2497 3.29696 12.2993 3.40581 12.3489 3.35904 C 12.3986 3.31227 12.4482 3.42176 12.4978 3.37508 C 12.5475 3.32839 12.5971 3.43854 12.6468 3.39195 C 12.6964 3.34535 12.746 3.45619 12.7957 3.40968 C 12.8453 3.36317 12.8949 3.47474 12.9446 3.42831 C 12.9942 3.38189 13.0438 3.49421 13.0935 3.44787 C 13.1431 3.40154 13.1928 3.51464 13.2424 3.46839 C 13.292 3.42215 13.3417 3.53606 13.3913 3.48991 C 13.4409 3.44376 13.4906 3.55851 13.5402 3.51245 C 13.5899 3.46639 13.6395 3.58202 13.6891 3.53606 C 13.7388 3.49009 13.7884 3.60663 13.838 3.56076 C 13.8877 3.51489 13.9373 3.63237 13.987 3.58659 C 14.0366 3.54082 14.0862 3.65928 14.1359 3.6136 C 14.1855 3.56792 14.2351 3.6874 14.2848 3.64181 C 14.3344 3.59623 14.384 3.71676 14.4337 3.67127 C 14.4833 3.62579 14.533 3.7474 14.5826 3.70202 C 14.6322 3.65664 14.6819 3.77937 14.7315 3.73409 C 14.7811 3.68881 14.8308 3.8127 14.8804 3.76752 C 14.9301 3.72234 14.9797 3.84743 15.0293 3.80236 C 15.079 3.75728 15.1286 3.88361 15.1782 3.83864 C 15.2279 3.79367 15.2775 3.92128 15.3272 3.87642 C 15.3768 3.83156 15.4264 3.96048 15.4761 3.91573 C 15.5257 3.87097 15.5753 4.00126 15.625 3.95661 C 15.6746 3.91196 15.7243 4.04365 15.7739 3.99912 C 15.8235 3.95458 15.8732 4.08771 15.9228 4.04329 C 15.9724 3.99886 16.0221 4.13349 16.0717 4.08917 C 16.1213 4.04486 16.171 4.18102 16.2206 4.13682 C 16.2703 4.09262 16.3199 4.23036 16.3695 4.18627 C 16.4192 4.14218 16.4688 4.28155 16.5184 4.23758 C 16.5681 4.1936 16.6177 4.33465 16.6674 4.29079 C 16.717 4.24693 16.7666 4.3897 16.8163 4.34596 C 16.8659 4.30222 16.9155 4.44675 16.9652 4.40313 C 17.0148 4.35951 17.0645 4.50586 17.1141 4.46236 C 17.1637 4.41886 17.2134 4.56708 17.263 4.5237 C 17.3126 4.48032 17.3623 4.63047 17.4119 4.58721 C 17.4615 4.54395 17.5112 4.69606 17.5608 4.65293 C 17.6105 4.60979 17.6601 4.76393 17.7097 4.72092 C 17.7594 4.67791 17.809 4.83413 17.8586 4.79124 C 17.9083 4.74835 17.9579 4.9067 18.0076 4.86394 C 18.0572 4.82118 18.1068 4.98172 18.1565 4.93909 C 18.2061 4.89645 18.2557 5.05923 18.3054 5.01673 C 18.355 4.97422 18.4047 5.1393 18.4543 5.09693 C 18.5039 5.05455 18.5536 5.22199 18.6032 5.17974 C 18.6528 5.1375 18.7025 5.30735 18.7521 5.26524 C 18.8017 5.22313 18.8514 5.39545 18.901 5.35347 C 18.9507 5.31149 19.0003 5.48635 19.0499 5.4445 C 19.0996 5.40266 19.1492 5.58011 19.1988 5.5384 C 19.2485 5.49669 19.2981 5.6768 19.3478 5.63523 C 19.3974 5.59365 19.447 5.77648 19.4967 5.73504 C 19.5463 5.6936 19.5959 5.87922 19.6456 5.83792 C 19.6952 5.79662 19.7449 5.98508 19.7945 5.94392 C 19.8441 5.90275 19.8938 6.09413 19.9434 6.0531 C 19.993 6.01208 20.0427 6.20644 20.0923 6.16555 C 20.142 6.12467 20.1916 6.32207 20.2412 6.28133 C 20.2909 6.24059 20.3405 6.4411 20.3901 6.4005 C 20.4398 6.35991 20.4894 6.5636 20.539 6.52315 C 20.5887 6.48269 20.6383 6.68964 20.688 6.64933 C 20.7376 6.60902 20.7872 6.81929 20.8369 6.77912 C 20.8865 6.73896 20.9361 6.95262 20.9858 6.9126 C 21.0354 6.87259 21.0851 7.08971 21.1347 7.04984 C 21.1843 7.00998 21.234 7.23064 21.2836 7.19092 C 21.3332 7.1512 21.3829 7.37547 21.4325 7.3359 C 21.4822 7.29634 21.5318 7.52429 21.5814 7.48488 C 21.6311 7.44546 21.6807 7.67718 21.7303 7.63792 C 21.78 7.59865 21.8296 7.83421 21.8792 7.7951 C 21.9289 7.75599 21.9785 7.99546 22.0282 7.9565 C 22.0778 7.91755 22.1274 8.16102 22.1771 8.12221 C 22.2267 8.08341 22.2763 8.33095 22.326 8.29231 C 22.3756 8.25366 22.4253 8.50536 22.4749 8.46687 C 22.5245 8.42838 22.5742 8.68432 22.6238 8.64598 C 22.6734 8.60765 22.7231 8.8679 22.7727 8.82973 C 22.8224 8.79156 22.872 9.05621 22.9216 9.0182 C 22.9713 8.98019 23.0209 9.24932 23.0705 9.21147 C 23.1202 9.17362 23.1698 9.44733 23.2195 9.40964 C 23.2691 9.37195 23.3187 9.65031 23.3684 9.61279 C 23.418 9.57526 23.4676 9.85836 23.5173 9.821 C 23.5669 9.78364 23.6165 10.0716 23.6662 10.0344 C 23.7158 9.99718 23.7655 10.29 23.8151 10.253 C 23.8647 10.216 23.9144 10.5138 23.964 10.477 C 24.0136 10.4401 24.0633 10.7431 24.1129 10.7064 C 24.1626 10.6697 24.2122 10.9778 24.2618 10.9413 C 24.3115 10.9048 24.3611 11.2182 24.4107 11.1818 C 24.4604 11.1455 24.51 11.4643 24.5597 11.4281 C 24.6093 11.3919 24.6589 11.7162 24.7086 11.6802 C 24.7582 11.6442 24.8078 11.974 24.8575 11.9382 C 24.9071 11.9023 24.9567 12.2379 25.0064 12.2022 C 25.056 12.1665 25.1057 12.5078 25.1553 12.4723 C 25.2049 12.4368 25.2546 12.7839 25.3042 12.7486 C 25.3538 12.7133 25.4035 13.0664 25.4531 13.0312 C 25.5028 12.9961 25.5524 13.3553 25.602 13.3203 C 25.6517 13.2853 25.7013 13.6506 25.7509 13.6158 C 25.8006 13.581 25.8502 13.9526 25.8999 13.918 C 25.9495 13.8834 25.9991 14.2614 26.0488 14.2269 C 26.0984 14.1925 26.148 14.5769 26.1977 14.5427 C 26.2473 14.5084 26.297 14.8994 26.3466 14.8653 C 26.3962 14.8313 26.4459 15.2289 26.4955 15.1951 C 26.5451 15.1612 26.5948 15.5656 26.6444 15.5319 C 26.694 15.4982 26.7437 15.9096 26.7933 15.8761 C 26.843 15.8425 26.8926 16.2609 26.9422 16.2276 C 26.9919 16.1943 27.0415 16.6198 27.0911 16.5866 C 27.1408 16.5535 27.1904 16.9862 27.2401 16.9532 C 27.2897 16.9203 27.3393 17.3603 27.389 17.3276 C 27.4386 17.2948 27.4882 17.7423 27.5379 17.7097 C 27.5875 17.6771 27.6372 18.1323 27.6868 18.0998 C 27.7364 18.0674 27.7861 18.5303 27.8357 18.498 C 27.8853 18.4658 27.935 18.9364 27.9846 18.9044 C 28.0342 18.8724 28.0839 19.3509 28.1335 19.3191 C 28.1832 19.2872 28.2328 19.7738 28.2824 19.7422 C 28.3321 19.7105 28.3817 20.2053 28.4313 20.1738 C 28.481 20.1424 28.5306 20.6454 28.5803 20.6141 C 28.6299 20.5829 28.6795 21.0943 28.7292 21.0633 C 28.7788 21.0322 28.8284 21.5522 28.8781 21.5213 C 28.9277 21.4904 28.9774 22.019 29.027 21.9884 C 29.0766 21.9577 29.1263 22.4951 29.1759 22.4646 C 29.2255 22.4341 29.2752 22.9804 29.3248 22.9501 C 29.3744 22.9199 29.4241 23.4752 29.4737 23.4451 C 29.5234 23.415 29.573 23.9795 29.6226 23.9496 C 29.6723 23.9197 29.7219 24.4935 29.7715 24.4639 C 29.8212 24.4342 29.8708 25.0174 29.9205 24.9879 C 29.9701 24.9584 30.0197 25.5512 30.0694 25.5219 C 30.119 25.4926 30.1686 26.0951 30.2183 26.066 C 30.2679 26.0369 30.3176 26.6492 30.3672 26.6203 C 30.4168 26.5914 30.4665 27.2136 30.5161 27.1849 C 30.5657 27.1563 30.6154 27.7886 30.665 27.7601 C 30.7147 27.7316 30.7643 28.3742 30.8139 28.3459 C 30.8636 28.3176 30.9132 28.9705 30.9628 28.9425 C 31.0125 28.9144 31.0621 29.5778 31.1117 29.55 C 31.1614 29.5221 31.211 30.1962 31.2607 30.1685 C 31.3103 30.1409 31.3599 30.8257 31.4096 30.7983 C 31.4592 30.7708 31.5088 31.4666 31.5585 31.4394 C 31.6081 31.4121 31.6578 32.119 31.7074 32.092 C 31.757 32.0649 31.8067 32.783 31.8563 32.7562"
         title="1-x**4.5"
         id="path4" />
    </g>
  </g>
  <metadata
     id="metadata139">
    <rdf:RDF>
      <cc:Work
         rdf:about="">
        <dc:creator>
          <cc:Agent>
            <dc:title>Nicolas Blais St-Laurent</dc:title>
          </cc:Agent>
        </dc:creator>
      </cc:Work>
    </rdf:RDF>
  </metadata>
</svg>
