<?xml version="1.0" encoding="UTF-8" standalone="no"?>
<!-- Created with Inkscape (http://www.inkscape.org/) -->

<svg
   width="180"
   height="180"
   viewBox="0 0 180 180"
   version="1.1"
   id="svg5"
   inkscape:version="1.4.2 (ebf0e940d0, 2025-05-08)"
   sodipodi:docname="tube endotrachéal.svg"
   inkscape:export-filename="/home/nicolas/Projets/Publiés/progrt.github.io/posts/PAV+/_diapo-beamer/icones/tube.pdf"
   inkscape:export-xdpi="96"
   inkscape:export-ydpi="96"
   xmlns:inkscape="http://www.inkscape.org/namespaces/inkscape"
   xmlns:sodipodi="http://sodipodi.sourceforge.net/DTD/sodipodi-0.dtd"
   xmlns="http://www.w3.org/2000/svg"
   xmlns:svg="http://www.w3.org/2000/svg">
  <sodipodi:namedview
     id="namedview7"
     pagecolor="#9d9d9d"
     bordercolor="#666666"
     borderopacity="1.0"
     inkscape:pageshadow="2"
     inkscape:pageopacity="0"
     inkscape:pagecheckerboard="false"
     inkscape:document-units="px"
     showgrid="true"
     inkscape:snap-global="true"
     inkscape:zoom="4.1111111"
     inkscape:cx="89.878378"
     inkscape:cy="90"
     inkscape:window-width="1201"
     inkscape:window-height="1030"
     inkscape:window-x="0"
     inkscape:window-y="0"
     inkscape:window-maximized="1"
     inkscape:current-layer="g3"
     showguides="true"
     inkscape:guide-bbox="true"
     inkscape:snap-intersection-paths="true"
     inkscape:snap-smooth-nodes="false"
     inkscape:snap-grids="true"
     scale-x="1"
     inkscape:showpageshadow="2"
     inkscape:deskcolor="#d1d1d1">
    <inkscape:grid
       type="xygrid"
       id="grid824"
       spacingx="0.79375"
       spacingy="0.79375"
       originx="0"
       originy="0"
       units="px" />
    <sodipodi:guide
       position="33.762418,38.685146"
       orientation="1,0"
       id="guide997"
       inkscape:locked="false" />
  </sodipodi:namedview>
  <defs
     id="defs2">
    <mask
       maskUnits="userSpaceOnUse"
       id="mask-powermask-path-effect3424">
      <path
         id="mask-powermask-path-effect3424_box"
         style="fill:#ffffff;fill-opacity:1"
         d="m 6.318298,7.73125 h 29.634745 v 38.0127 H 6.318298 Z" />
      <path
         id="path3422"
         style="fill:#000000;stroke:#ffffff;stroke-width:0;stroke-linecap:round;stroke-linejoin:round;paint-order:stroke fill markers"
         d="m 21.911884,38.217851 c 3.050992,5.952508 -8.089916,9.666144 -10.015958,5.196131 -1.926041,-4.470017 6.964966,-11.148642 10.015958,-5.196131 z"
         sodipodi:nodetypes="zzz" />
    </mask>
    <symbol
       id="symbol1852">
      <ellipse
         style="fill:#ffffff;stroke:#ffffff;stroke-width:0;stroke-linecap:round;stroke-linejoin:round;paint-order:stroke fill markers"
         id="path1272"
         cx="0"
         cy="0"
         rx="15"
         ry="12"
         transform="rotate(-15)" />
    </symbol>
  </defs>
  <g
     inkscape:label="Calque 1"
     inkscape:groupmode="layer"
     id="layer1"
     style="display:none"
     sodipodi:insensitive="true">
    <rect
       style="display:inline;fill:#ffffff;stroke:#000000;stroke-width:0;stroke-linecap:round;stroke-linejoin:round;stroke-miterlimit:4;stroke-dasharray:none;stroke-opacity:1;paint-order:normal"
       id="rectCollerette"
       width="28.273188"
       height="3.1414638"
       x="-149.34242"
       y="25.01829"
       transform="scale(-1,1)"
       ry="0" />
    <rect
       id="rectConnecteur"
       width="15.707308"
       height="15.70732"
       x="-143.05948"
       y="6.1695018"
       transform="scale(-1,1)" />
    <path
       d="m 33.762418,8.73125 c 0,32.566053 -24.492414,34.822075 -26.44412,34.822075"
       id="pathTube"
       style="display:inline;fill:none;stroke:#ffffff;stroke-width:2.38125;stroke-miterlimit:4"
       sodipodi:nodetypes="cc"
       mask="url(#mask-powermask-path-effect3424)"
       transform="matrix(3.9577505,0,0,3.9577505,1.6935793,-3.2548915)" />
    <use
       id="use1956"
       x="0"
       y="0"
       width="100%"
       height="100%"
       transform="matrix(3.9577505,0,0,3.9577505,1.6935793,-3.2548915)"
       style="display:inline" />
    <path
       id="ellipse1865"
       style="display:inline;fill:#ffffff;stroke:#ffffff;stroke-width:0;stroke-linecap:round;stroke-linejoin:round;paint-order:stroke fill markers"
       d="m 85.613849,149.3841 c 10.323665,20.14155 -27.373909,32.70741 -33.89107,17.58219 -6.51716,-15.12522 23.567405,-37.72374 33.89107,-17.58219 z"
       sodipodi:nodetypes="zzz" />
  </g>
  <g
     inkscape:label="Copie de Calque 1"
     inkscape:groupmode="layer"
     id="g3"
     style="display:inline">
    <path
       id="path3"
       d="m 85.613849,149.3841 c 10.323665,20.14155 -27.373909,32.70741 -33.89107,17.58219 -6.51716,-15.12522 23.567405,-37.72374 33.89107,-17.58219 z M 130.60742,31.298828 c 0,60.930621 -21.70931,93.452482 -44.833984,111.435542 1.528214,1.59822 2.78461,3.46525 3.693361,5.45899 0.445567,0.87731 0.812965,1.79339 1.101561,2.73242 C 116.16439,131.42277 140.0293,95.331518 140.0293,31.298828 Z M 46.849609,161.74609 c -8.693675,2.22772 -15.244768,2.66211 -16.191406,2.66211 v 9.42383 c 2.640046,0 9.265034,-0.53454 18.70508,-2.99805 -1.494708,-2.18187 -2.413242,-4.75773 -2.519532,-7.4121 -0.02493,-0.56134 -0.02216,-1.11992 0.0059,-1.67579 z M 143.05948,6.1695018 H 127.35217 V 21.876822 h 15.70731 z m 6.28294,18.8487882 h -28.27319 v 3.141463 h 28.27319 z" />
  </g>
</svg>
