<?xml version="1.0" encoding="UTF-8" standalone="no"?>
<!-- Created with Inkscape (http://www.inkscape.org/) -->

<svg
   width="140mm"
   height="180mm"
   viewBox="0 0 140 180"
   version="1.1"
   id="svg5"
   xml:space="preserve"
   xmlns:xlink="http://www.w3.org/1999/xlink"
   xmlns="http://www.w3.org/2000/svg"
   xmlns:svg="http://www.w3.org/2000/svg"
   xmlns:rdf="http://www.w3.org/1999/02/22-rdf-syntax-ns#"
   xmlns:cc="http://creativecommons.org/ns#"
   xmlns:dc="http://purl.org/dc/elements/1.1/"><title
     id="title3399">Inhalothérapie</title><defs
     id="defs2"><symbol
       id="Nébuliseur2"><path
         id="pathNebuliseur-2"
         d="m 76.558256,9.9401793 a 1.0204611,1.0204611 0 0 0 -1.022016,1.0220157 1.0204611,1.0204611 0 0 0 1.022016,1.022018 1.0204611,1.0204611 0 0 0 1.018313,-1.022018 1.0204611,1.0204611 0 0 0 -1.018313,-1.0220157 z m 6.16913,0.4221367 a 1.0204611,1.0204611 0 0 0 -1.022016,1.022016 1.0204611,1.0204611 0 0 0 1.022016,1.022018 1.0204611,1.0204611 0 0 0 1.018315,-1.022018 1.0204611,1.0204611 0 0 0 -1.018315,-1.022016 z m -9.990584,1.403421 a 1.0204611,1.0204611 0 0 0 -1.018314,1.018315 1.0204611,1.0204611 0 0 0 1.018314,1.022016 1.0204611,1.0204611 0 0 0 1.022017,-1.022016 1.0204611,1.0204611 0 0 0 -1.022017,-1.018315 z m 2.455062,0.692455 a 1.0204611,1.0204611 0 0 0 -1.022016,1.022016 1.0204611,1.0204611 0 0 0 1.022016,1.018315 1.0204611,1.0204611 0 0 0 1.018313,-1.018315 1.0204611,1.0204611 0 0 0 -1.018313,-1.022016 z m 22.499184,1.31455 a 1.0204611,1.0204611 0 0 0 -1.018315,1.018313 1.0204611,1.0204611 0 0 0 1.018315,1.022018 1.0204611,1.0204611 0 0 0 1.022016,-1.022018 1.0204611,1.0204611 0 0 0 -1.022016,-1.018313 z m 2.758702,0.185155 a 1.0204611,1.0204611 0 0 0 -1.018312,1.022018 1.0204611,1.0204611 0 0 0 1.018312,1.018313 1.0204611,1.0204611 0 0 0 1.02202,-1.018313 1.0204611,1.0204611 0 0 0 -1.02202,-1.022018 z m -13.160317,0.307347 a 1.0204611,1.0204611 0 0 0 -1.018314,1.018313 1.0204611,1.0204611 0 0 0 1.018314,1.022018 1.0204611,1.0204611 0 0 0 1.022017,-1.022018 1.0204611,1.0204611 0 0 0 -1.022017,-1.018313 z m -19.473865,1.059045 a 1.0204611,1.0204611 0 0 0 -1.018313,1.022018 1.0204611,1.0204611 0 0 0 1.018313,1.018313 1.0204611,1.0204611 0 0 0 1.022018,-1.018313 1.0204611,1.0204611 0 0 0 -1.022018,-1.022018 z m 21.921522,0.355484 a 1.0204611,1.0204611 0 0 0 -1.018314,1.022018 1.0204611,1.0204611 0 0 0 1.018314,1.018313 1.0204611,1.0204611 0 0 0 1.022017,-1.018313 1.0204611,1.0204611 0 0 0 -1.022017,-1.022018 z m 2.958665,0 a 1.0204611,1.0204611 0 0 0 -1.022018,1.018315 1.0204611,1.0204611 0 0 0 1.022018,1.022016 1.0204611,1.0204611 0 0 0 1.018313,-1.022016 1.0204611,1.0204611 0 0 0 -1.018313,-1.018315 z m 4.558343,0.492494 a 1.0204611,1.0204611 0 0 0 -1.022018,1.018314 1.0204611,1.0204611 0 0 0 1.022018,1.022017 1.0204611,1.0204611 0 0 0 1.018313,-1.022017 1.0204611,1.0204611 0 0 0 -1.018313,-1.018314 z m -21.129087,0.09627 a 1.0204611,1.0204611 0 0 0 -1.022018,1.022018 1.0204611,1.0204611 0 0 0 1.022018,1.018313 1.0204611,1.0204611 0 0 0 1.018313,-1.018313 1.0204611,1.0204611 0 0 0 -1.018313,-1.022018 z m 6.898612,0.592473 a 1.0204611,1.0204611 0 0 0 -1.018313,1.018316 1.0204611,1.0204611 0 0 0 1.018313,1.022015 1.0204611,1.0204611 0 0 0 1.022018,-1.022015 1.0204611,1.0204611 0 0 0 -1.022018,-1.018316 z m -23.028705,1.366392 a 1.0204611,1.0204611 0 0 0 -1.022018,1.018315 1.0204611,1.0204611 0 0 0 1.022018,1.022016 1.0204611,1.0204611 0 0 0 1.018313,-1.022016 1.0204611,1.0204611 0 0 0 -1.018313,-1.018315 z m 44.157792,1.033126 a 1.0204611,1.0204611 0 0 0 -1.02202,1.022018 1.0204611,1.0204611 0 0 0 1.02202,1.018313 1.0204611,1.0204611 0 0 0 1.01832,-1.018313 1.0204611,1.0204611 0 0 0 -1.01832,-1.022018 z m -15.696844,0.140715 a 1.0204611,1.0204611 0 0 0 -1.018315,1.018313 1.0204611,1.0204611 0 0 0 1.018315,1.022018 1.0204611,1.0204611 0 0 0 1.022016,-1.022018 1.0204611,1.0204611 0 0 0 -1.022016,-1.018313 z m -25.391194,0.03333 a 1.0204611,1.0204611 0 0 0 -1.018315,1.022018 1.0204611,1.0204611 0 0 0 1.018315,1.018313 1.0204611,1.0204611 0 0 0 1.022016,-1.018313 1.0204611,1.0204611 0 0 0 -1.022016,-1.022018 z m 12.682636,0.277723 a 1.0204611,1.0204611 0 0 0 -1.022017,1.018314 1.0204611,1.0204611 0 0 0 1.022017,1.022016 1.0204611,1.0204611 0 0 0 1.022016,-1.022016 1.0204611,1.0204611 0 0 0 -1.022016,-1.018314 z m 24.398802,0.07777 a 1.0204611,1.0204611 0 0 0 -1.022017,1.022016 1.0204611,1.0204611 0 0 0 1.022017,1.018313 1.0204611,1.0204611 0 0 0 1.02202,-1.018313 1.0204611,1.0204611 0 0 0 -1.02202,-1.022016 z m -21.032812,0.810947 a 1.0204611,1.0204611 0 0 0 -1.022016,1.018314 1.0204611,1.0204611 0 0 0 1.022016,1.022016 1.0204611,1.0204611 0 0 0 1.018315,-1.022016 1.0204611,1.0204611 0 0 0 -1.018315,-1.018314 z m -6.935644,0.459166 a 1.0204611,1.0204611 0 0 0 -1.022016,1.022018 1.0204611,1.0204611 0 0 0 1.022016,1.018313 1.0204611,1.0204611 0 0 0 1.018315,-1.018313 1.0204611,1.0204611 0 0 0 -1.018315,-1.022018 z m 25.102365,0.285129 a 1.0204611,1.0204611 0 0 0 -1.018315,1.022016 1.0204611,1.0204611 0 0 0 1.018315,1.018315 1.0204611,1.0204611 0 0 0 1.022016,-1.018315 1.0204611,1.0204611 0 0 0 -1.022016,-1.022016 z m -6.780119,0.28143 a 1.0204611,1.0204611 0 0 0 -1.018315,1.018315 1.0204611,1.0204611 0 0 0 1.018315,1.022016 1.0204611,1.0204611 0 0 0 1.022016,-1.022016 1.0204611,1.0204611 0 0 0 -1.022016,-1.018315 z m -5.658123,0.04072 a 1.0204611,1.0204611 0 0 0 -1.022017,1.018315 1.0204611,1.0204611 0 0 0 1.022017,1.022016 1.0204611,1.0204611 0 0 0 1.018314,-1.022016 1.0204611,1.0204611 0 0 0 -1.018314,-1.018315 z m 2.462468,0.496197 a 1.0204611,1.0204611 0 0 0 -1.022017,1.018315 1.0204611,1.0204611 0 0 0 1.022017,1.022016 1.0204611,1.0204611 0 0 0 1.018314,-1.022016 1.0204611,1.0204611 0 0 0 -1.018314,-1.018315 z m 22.765805,1.081266 a 1.0204611,1.0204611 0 0 0 -1.02203,1.022015 1.0204611,1.0204611 0 0 0 1.02203,1.018316 1.0204611,1.0204611 0 0 0 1.01831,-1.018316 1.0204611,1.0204611 0 0 0 -1.01831,-1.022015 z m -13.989791,0.274018 a 1.0204611,1.0204611 0 0 0 -1.022016,1.022018 1.0204611,1.0204611 0 0 0 1.022016,1.018313 1.0204611,1.0204611 0 0 0 1.022018,-1.018313 1.0204611,1.0204611 0 0 0 -1.022018,-1.022018 z m 2.758705,0.448058 a 1.0204611,1.0204611 0 0 0 -1.018313,1.022018 1.0204611,1.0204611 0 0 0 1.018313,1.018313 1.0204611,1.0204611 0 0 0 1.022018,-1.018313 1.0204611,1.0204611 0 0 0 -1.022018,-1.022018 z m -6.16913,0.377702 a 1.0204611,1.0204611 0 0 0 -1.018314,1.018314 1.0204611,1.0204611 0 0 0 1.018314,1.022017 1.0204611,1.0204611 0 0 0 1.022016,-1.022017 1.0204611,1.0204611 0 0 0 -1.022016,-1.018314 z m -5.513707,0.111082 a 1.0204611,1.0204611 0 0 0 -1.018313,1.018313 1.0204611,1.0204611 0 0 0 1.018313,1.022018 1.0204611,1.0204611 0 0 0 1.022016,-1.022018 1.0204611,1.0204611 0 0 0 -1.022016,-1.018313 z m -26.616875,0.08147 a 1.0204611,1.0204611 0 0 0 -1.018313,1.022018 1.0204611,1.0204611 0 0 0 1.018313,1.018314 1.0204611,1.0204611 0 0 0 1.022018,-1.018314 1.0204611,1.0204611 0 0 0 -1.022018,-1.022018 z m 59.976828,0.214774 a 1.0204611,1.0204611 0 0 0 -1.02201,1.022015 1.0204611,1.0204611 0 0 0 1.02201,1.022018 1.0204611,1.0204611 0 0 0 1.01832,-1.022018 1.0204611,1.0204611 0 0 0 -1.01832,-1.022015 z m -4.72126,0.03333 a 1.0204611,1.0204611 0 0 0 -1.02201,1.018313 1.0204611,1.0204611 0 0 0 1.02201,1.022018 1.0204611,1.0204611 0 0 0 1.01831,-1.022018 1.0204611,1.0204611 0 0 0 -1.01831,-1.018313 z M 104.76,25.088998 a 1.0204611,1.0204611 0 0 0 -1.02202,1.022018 1.0204611,1.0204611 0 0 0 1.02202,1.018313 1.0204611,1.0204611 0 0 0 1.01831,-1.018313 1.0204611,1.0204611 0 0 0 -1.01831,-1.022018 z m -39.318029,0.322158 a 1.0204611,1.0204611 0 0 0 -1.018315,1.018313 1.0204611,1.0204611 0 0 0 1.018315,1.022018 1.0204611,1.0204611 0 0 0 1.022016,-1.022018 1.0204611,1.0204611 0 0 0 -1.022016,-1.018313 z m 45.435319,0.377702 a 1.0204611,1.0204611 0 0 0 -1.01832,1.018313 1.0204611,1.0204611 0 0 0 1.01832,1.022018 1.0204611,1.0204611 0 0 0 1.02201,-1.022018 1.0204611,1.0204611 0 0 0 -1.02201,-1.018313 z m -33.156305,1.436747 a 1.0204611,1.0204611 0 0 0 -1.022016,1.022018 1.0204611,1.0204611 0 0 0 1.022016,1.022016 1.0204611,1.0204611 0 0 0 1.018315,-1.022016 1.0204611,1.0204611 0 0 0 -1.018315,-1.022018 z m -15.585757,0.377703 a 1.0204611,1.0204611 0 0 0 -1.022016,1.018313 1.0204611,1.0204611 0 0 0 1.022016,1.022018 1.0204611,1.0204611 0 0 0 1.022018,-1.022018 1.0204611,1.0204611 0 0 0 -1.022018,-1.018313 z m 49.867762,0.355484 a 1.0204611,1.0204611 0 0 0 -1.01832,1.022016 1.0204611,1.0204611 0 0 0 1.01832,1.018315 1.0204611,1.0204611 0 0 0 1.02201,-1.018315 1.0204611,1.0204611 0 0 0 -1.02201,-1.022016 z m -44.853955,0.03703 a 1.0204611,1.0204611 0 0 0 -1.022016,1.022018 1.0204611,1.0204611 0 0 0 1.022016,1.018313 1.0204611,1.0204611 0 0 0 1.018315,-1.018313 1.0204611,1.0204611 0 0 0 -1.018315,-1.022018 z m 38.558915,0.318457 a 1.0204611,1.0204611 0 0 0 -1.02201,1.018313 1.0204611,1.0204611 0 0 0 1.02201,1.022018 1.0204611,1.0204611 0 0 0 1.01832,-1.022018 1.0204611,1.0204611 0 0 0 -1.01832,-1.018313 z m 11.22368,0.885008 a 1.0204611,1.0204611 0 0 0 -1.01832,1.022016 1.0204611,1.0204611 0 0 0 1.01832,1.022017 1.0204611,1.0204611 0 0 0 1.02201,-1.022017 1.0204611,1.0204611 0 0 0 -1.02201,-1.022016 z m -34.030204,0.229572 a 1.0204611,1.0204611 0 0 0 -1.018314,1.018313 1.0204611,1.0204611 0 0 0 1.018314,1.022016 1.0204611,1.0204611 0 0 0 1.022017,-1.022016 1.0204611,1.0204611 0 0 0 -1.022017,-1.018313 z m -31.660304,0.03333 a 1.0204611,1.0204611 0 0 0 -1.018315,1.018314 1.0204611,1.0204611 0 0 0 1.018315,1.022018 1.0204611,1.0204611 0 0 0 1.022016,-1.022018 1.0204611,1.0204611 0 0 0 -1.022016,-1.018314 z m 62.828108,0.244395 a 1.0204611,1.0204611 0 0 0 -1.01831,1.018314 1.0204611,1.0204611 0 0 0 1.01831,1.022017 1.0204611,1.0204611 0 0 0 1.02202,-1.022017 1.0204611,1.0204611 0 0 0 -1.02202,-1.018314 z m -18.503681,0.125908 a 1.0204611,1.0204611 0 0 0 -1.018315,1.018315 1.0204611,1.0204611 0 0 0 1.018315,1.022016 1.0204611,1.0204611 0 0 0 1.022016,-1.022016 1.0204611,1.0204611 0 0 0 -1.022016,-1.018315 z m 6.476471,0.336971 a 1.0204611,1.0204611 0 0 0 -1.02201,1.022016 1.0204611,1.0204611 0 0 0 1.02201,1.022017 1.0204611,1.0204611 0 0 0 1.01832,-1.022017 1.0204611,1.0204611 0 0 0 -1.01832,-1.022016 z m -28.738666,0.355484 a 1.0204611,1.0204611 0 0 0 -1.022016,1.018313 1.0204611,1.0204611 0 0 0 1.022016,1.022018 1.0204611,1.0204611 0 0 0 1.018315,-1.022018 1.0204611,1.0204611 0 0 0 -1.018315,-1.018313 z m 18.785114,1.114589 a 1.0204611,1.0204611 0 0 0 -1.022016,1.018316 1.0204611,1.0204611 0 0 0 1.022016,1.022015 1.0204611,1.0204611 0 0 0 1.018315,-1.022015 1.0204611,1.0204611 0 0 0 -1.018315,-1.018316 z m -34.21905,0.03333 a 1.0204611,1.0204611 0 0 0 -1.022016,1.022017 1.0204611,1.0204611 0 0 0 1.022016,1.018314 1.0204611,1.0204611 0 0 0 1.018315,-1.018314 1.0204611,1.0204611 0 0 0 -1.018315,-1.022017 z m -5.46927,0.622097 a 1.0204611,1.0204611 0 0 0 -1.022018,1.018315 1.0204611,1.0204611 0 0 0 1.022018,1.022016 1.0204611,1.0204611 0 0 0 1.022016,-1.022016 1.0204611,1.0204611 0 0 0 -1.022016,-1.018315 z m 50.426902,0.144412 a 1.0204611,1.0204611 0 0 0 -1.01831,1.018315 1.0204611,1.0204611 0 0 0 1.01831,1.022016 1.0204611,1.0204611 0 0 0 1.02202,-1.022016 1.0204611,1.0204611 0 0 0 -1.02202,-1.018315 z m -20.403306,0.85167 a 1.0204611,1.0204611 0 0 0 -1.022016,1.018313 1.0204611,1.0204611 0 0 0 1.022016,1.022018 1.0204611,1.0204611 0 0 0 1.018313,-1.022018 1.0204611,1.0204611 0 0 0 -1.018313,-1.018313 z m 14.234178,0.359186 a 1.0204611,1.0204611 0 0 0 -1.018315,1.022018 1.0204611,1.0204611 0 0 0 1.018315,1.018313 1.0204611,1.0204611 0 0 0 1.022016,-1.018313 1.0204611,1.0204611 0 0 0 -1.022016,-1.022018 z M 49.219304,33.8613 a 1.0204611,1.0204611 0 0 0 -1.018313,1.022018 1.0204611,1.0204611 0 0 0 1.018313,1.018313 1.0204611,1.0204611 0 0 0 1.022018,-1.018313 1.0204611,1.0204611 0 0 0 -1.022018,-1.022018 z m 21.891898,0.285128 a 1.0204611,1.0204611 0 0 0 -1.022016,1.022016 1.0204611,1.0204611 0 0 0 1.022016,1.018315 1.0204611,1.0204611 0 0 0 1.022018,-1.018315 1.0204611,1.0204611 0 0 0 -1.022018,-1.022016 z m -11.908718,1.421937 a 1.0204611,1.0204611 0 0 0 -1.018314,1.022016 1.0204611,1.0204611 0 0 0 1.018314,1.022018 1.0204611,1.0204611 0 0 0 1.022018,-1.022018 1.0204611,1.0204611 0 0 0 -1.022018,-1.022016 z m 61.106246,0.129605 a 1.0204611,1.0204611 0 0 0 -1.01832,1.022018 1.0204611,1.0204611 0 0 0 1.01832,1.022015 1.0204611,1.0204611 0 0 0 1.02201,-1.022015 1.0204611,1.0204611 0 0 0 -1.02201,-1.022018 z m -24.928329,0.01479 a 1.0204611,1.0204611 0 0 0 -1.018315,1.018313 1.0204611,1.0204611 0 0 0 1.018315,1.022018 1.0204611,1.0204611 0 0 0 1.022016,-1.022018 1.0204611,1.0204611 0 0 0 -1.022016,-1.018313 z m 35.726149,0.318453 a 1.0204611,1.0204611 0 0 0 -1.02201,1.022018 1.0204611,1.0204611 0 0 0 1.02201,1.018313 1.0204611,1.0204611 0 0 0 1.01832,-1.018313 1.0204611,1.0204611 0 0 0 -1.01832,-1.022018 z m -23.81373,0.05925 a 1.0204611,1.0204611 0 0 0 -1.01831,1.022018 1.0204611,1.0204611 0 0 0 1.01831,1.018313 1.0204611,1.0204611 0 0 0 1.02202,-1.018313 1.0204611,1.0204611 0 0 0 -1.02202,-1.022018 z m -4.80644,0.285129 a 1.0204611,1.0204611 0 0 0 -1.02202,1.022018 1.0204611,1.0204611 0 0 0 1.02202,1.022016 1.0204611,1.0204611 0 0 0 1.01831,-1.022016 1.0204611,1.0204611 0 0 0 -1.01831,-1.022018 z m 12.58266,0.773918 a 1.0204611,1.0204611 0 0 0 -1.02203,1.018315 1.0204611,1.0204611 0 0 0 1.02203,1.022016 1.0204611,1.0204611 0 0 0 1.0183,-1.022016 1.0204611,1.0204611 0 0 0 -1.0183,-1.018315 z m 2.3699,0.222179 a 1.0204611,1.0204611 0 0 0 -1.02203,1.018313 1.0204611,1.0204611 0 0 0 1.02203,1.022018 1.0204611,1.0204611 0 0 0 1.02201,-1.022018 1.0204611,1.0204611 0 0 0 -1.02201,-1.018313 z m -25.331956,0.08147 a 1.0204611,1.0204611 0 0 0 -1.018313,1.022018 1.0204611,1.0204611 0 0 0 1.018313,1.022018 1.0204611,1.0204611 0 0 0 1.022018,-1.022018 1.0204611,1.0204611 0 0 0 -1.022018,-1.022018 z m 7.939146,0.533226 a 1.0204611,1.0204611 0 0 0 -1.018314,1.022018 1.0204611,1.0204611 0 0 0 1.018314,1.022018 1.0204611,1.0204611 0 0 0 1.02202,-1.022018 1.0204611,1.0204611 0 0 0 -1.02202,-1.022018 z m 9.67583,0.833168 a 1.0204611,1.0204611 0 0 0 -1.01831,1.022016 1.0204611,1.0204611 0 0 0 1.01831,1.018315 1.0204611,1.0204611 0 0 0 1.02203,-1.018315 1.0204611,1.0204611 0 0 0 -1.02203,-1.022016 z m -50.519476,0.04444 a 1.0204611,1.0204611 0 0 0 -1.022016,1.022018 1.0204611,1.0204611 0 0 0 1.022016,1.018313 1.0204611,1.0204611 0 0 0 1.018315,-1.018313 1.0204611,1.0204611 0 0 0 -1.018315,-1.022018 z m 44.631776,0.836869 a 1.0204611,1.0204611 0 0 0 -1.01832,1.022018 1.0204611,1.0204611 0 0 0 1.01832,1.022015 1.0204611,1.0204611 0 0 0 1.02201,-1.022015 1.0204611,1.0204611 0 0 0 -1.02201,-1.022018 z m -38.166409,0.63691 a 1.0204611,1.0204611 0 0 0 -1.018313,1.018313 1.0204611,1.0204611 0 0 0 1.018313,1.022018 1.0204611,1.0204611 0 0 0 1.022018,-1.022018 1.0204611,1.0204611 0 0 0 -1.022018,-1.018313 z m 7.461464,0.288831 a 1.0204611,1.0204611 0 0 0 -1.022016,1.018313 1.0204611,1.0204611 0 0 0 1.022016,1.022016 1.0204611,1.0204611 0 0 0 1.018315,-1.022016 1.0204611,1.0204611 0 0 0 -1.018315,-1.018313 z m 33.115565,0.399919 a 1.0204611,1.0204611 0 0 0 -1.02201,1.018315 1.0204611,1.0204611 0 0 0 1.02201,1.022016 1.0204611,1.0204611 0 0 0 1.02202,-1.022016 1.0204611,1.0204611 0 0 0 -1.02202,-1.018315 z m -55.744352,0.0038 a 1.0204611,1.0204611 0 0 0 -1.022016,1.018315 1.0204611,1.0204611 0 0 0 1.022016,1.022016 1.0204611,1.0204611 0 0 0 1.022018,-1.022016 1.0204611,1.0204611 0 0 0 -1.022018,-1.018315 z m 39.858659,0.04436 a 1.0204611,1.0204611 0 0 0 -1.022016,1.018313 1.0204611,1.0204611 0 0 0 1.022016,1.022018 1.0204611,1.0204611 0 0 0 1.018313,-1.022018 1.0204611,1.0204611 0 0 0 -1.018313,-1.018313 z m 4.388007,0.351781 a 1.0204611,1.0204611 0 0 0 -1.022016,1.022016 1.0204611,1.0204611 0 0 0 1.022016,1.022018 1.0204611,1.0204611 0 0 0 1.022018,-1.022018 1.0204611,1.0204611 0 0 0 -1.022018,-1.022016 z m 8.202056,0.92574 a 1.0204611,1.0204611 0 0 0 -1.02202,1.018313 1.0204611,1.0204611 0 0 0 1.02202,1.022018 1.0204611,1.0204611 0 0 0 1.02202,-1.022018 1.0204611,1.0204611 0 0 0 -1.02202,-1.018313 z m -46.886876,0.09258 a 1.0204611,1.0204611 0 0 0 -1.018313,1.022018 1.0204611,1.0204611 0 0 0 1.018313,1.018313 1.0204611,1.0204611 0 0 0 1.022018,-1.018313 1.0204611,1.0204611 0 0 0 -1.022018,-1.022018 z m 29.145996,0.651721 a 1.0204611,1.0204611 0 0 0 -1.022016,1.022018 1.0204611,1.0204611 0 0 0 1.022016,1.018313 1.0204611,1.0204611 0 0 0 1.022018,-1.018313 1.0204611,1.0204611 0 0 0 -1.022018,-1.022018 z m 44.86876,0.348079 a 1.0204611,1.0204611 0 0 0 -1.02201,1.022016 1.0204611,1.0204611 0 0 0 1.02201,1.018315 1.0204611,1.0204611 0 0 0 1.01831,-1.018315 1.0204611,1.0204611 0 0 0 -1.01831,-1.022016 z m -19.32945,0.799836 a 1.0204611,1.0204611 0 0 0 -1.01831,1.018313 1.0204611,1.0204611 0 0 0 1.01831,1.022018 1.0204611,1.0204611 0 0 0 1.02202,-1.022018 1.0204611,1.0204611 0 0 0 -1.02202,-1.018313 z m -59.691708,0.370295 a 1.0204611,1.0204611 0 0 0 -1.022016,1.018315 1.0204611,1.0204611 0 0 0 1.022016,1.022016 1.0204611,1.0204611 0 0 0 1.018316,-1.022016 1.0204611,1.0204611 0 0 0 -1.018316,-1.018315 z m 27.264894,0.525816 a 1.0204611,1.0204611 0 0 0 -1.022018,1.018314 1.0204611,1.0204611 0 0 0 1.022018,1.022017 1.0204611,1.0204611 0 0 0 1.022016,-1.022017 1.0204611,1.0204611 0 0 0 -1.022016,-1.018314 z m -12.852974,0.262911 a 1.0204611,1.0204611 0 0 0 -1.022017,1.022016 1.0204611,1.0204611 0 0 0 1.022017,1.018315 1.0204611,1.0204611 0 0 0 1.018314,-1.018315 1.0204611,1.0204611 0 0 0 -1.018314,-1.022016 z m 42.287798,0.08516 a 1.0204611,1.0204611 0 0 0 -1.02202,1.022016 1.0204611,1.0204611 0 0 0 1.02202,1.022018 1.0204611,1.0204611 0 0 0 1.02202,-1.022018 1.0204611,1.0204611 0 0 0 -1.02202,-1.022016 z m 13.56394,0.01479 a 1.0204611,1.0204611 0 0 0 -1.02201,1.022017 1.0204611,1.0204611 0 0 0 1.02201,1.018314 1.0204611,1.0204611 0 0 0 1.01832,-1.018314 1.0204611,1.0204611 0 0 0 -1.01832,-1.022017 z m -66.445906,0.222178 a 1.0204611,1.0204611 0 0 0 -1.018313,1.018313 1.0204611,1.0204611 0 0 0 1.018313,1.022018 1.0204611,1.0204611 0 0 0 1.022018,-1.022018 1.0204611,1.0204611 0 0 0 -1.022018,-1.018313 z m 60.772966,0.04814 a 1.0204611,1.0204611 0 0 0 -1.01831,1.022018 1.0204611,1.0204611 0 0 0 1.01831,1.018313 1.0204611,1.0204611 0 0 0 1.02203,-1.018313 1.0204611,1.0204611 0 0 0 -1.02203,-1.022018 z m -12.1457,0.359189 a 1.0204611,1.0204611 0 0 0 -1.01831,1.022016 1.0204611,1.0204611 0 0 0 1.01831,1.018313 1.0204611,1.0204611 0 0 0 1.02202,-1.018313 1.0204611,1.0204611 0 0 0 -1.02202,-1.022016 z m -43.354251,0.01119 a 1.0204611,1.0204611 0 0 0 -1.022016,1.018313 1.0204611,1.0204611 0 0 0 1.022016,1.022018 1.0204611,1.0204611 0 0 0 1.018313,-1.022018 1.0204611,1.0204611 0 0 0 -1.018313,-1.018313 z m 36.92221,0.366592 a 1.0204611,1.0204611 0 0 0 -1.018313,1.018315 1.0204611,1.0204611 0 0 0 1.018313,1.022016 1.0204611,1.0204611 0 0 0 1.022018,-1.022016 1.0204611,1.0204611 0 0 0 -1.022018,-1.018315 z m -48.171802,1.65147 a 1.0204611,1.0204611 0 0 0 -1.022016,1.022015 1.0204611,1.0204611 0 0 0 1.022016,1.018316 1.0204611,1.0204611 0 0 0 1.018315,-1.018316 1.0204611,1.0204611 0 0 0 -1.018315,-1.022015 z m 10.094268,0.133301 a 1.0204611,1.0204611 0 0 0 -1.022016,1.018315 1.0204611,1.0204611 0 0 0 1.022016,1.022016 1.0204611,1.0204611 0 0 0 1.018315,-1.022016 1.0204611,1.0204611 0 0 0 -1.018315,-1.018315 z m 56.196125,0.0074 a 1.0204611,1.0204611 0 0 0 -1.02203,1.022016 1.0204611,1.0204611 0 0 0 1.02203,1.022018 1.0204611,1.0204611 0 0 0 1.02201,-1.022018 1.0204611,1.0204611 0 0 0 -1.02201,-1.022016 z m -38.314532,0.09997 a 1.0204611,1.0204611 0 0 0 -1.018315,1.022018 1.0204611,1.0204611 0 0 0 1.018315,1.018313 1.0204611,1.0204611 0 0 0 1.022016,-1.018313 1.0204611,1.0204611 0 0 0 -1.022016,-1.022018 z m 5.40632,0.477682 a 1.0204611,1.0204611 0 0 0 -1.018313,1.018315 1.0204611,1.0204611 0 0 0 1.018313,1.022016 1.0204611,1.0204611 0 0 0 1.022018,-1.022016 1.0204611,1.0204611 0 0 0 -1.022018,-1.018315 z m -15.345065,0.855384 a 1.0204611,1.0204611 0 0 0 -1.022015,1.022017 1.0204611,1.0204611 0 0 0 1.022015,1.022016 1.0204611,1.0204611 0 0 0 1.022018,-1.022016 1.0204611,1.0204611 0 0 0 -1.022018,-1.022017 z m 12.578955,0.01858 a 1.0204611,1.0204611 0 0 0 -1.022018,1.022015 1.0204611,1.0204611 0 0 0 1.022018,1.022018 1.0204611,1.0204611 0 0 0 1.018313,-1.022018 1.0204611,1.0204611 0 0 0 -1.018313,-1.022015 z m -8.005798,0.355484 a 1.0204611,1.0204611 0 0 0 -1.022018,1.018313 1.0204611,1.0204611 0 0 0 1.022018,1.022018 1.0204611,1.0204611 0 0 0 1.022016,-1.022018 1.0204611,1.0204611 0 0 0 -1.022016,-1.018313 z m -18.518503,0.518413 a 1.0204611,1.0204611 0 0 0 -1.018313,1.022018 1.0204611,1.0204611 0 0 0 1.018313,1.018313 1.0204611,1.0204611 0 0 0 1.022018,-1.018313 1.0204611,1.0204611 0 0 0 -1.022018,-1.022018 z m 5.332262,0.159219 a 1.0204611,1.0204611 0 0 0 -1.022016,1.022016 1.0204611,1.0204611 0 0 0 1.022016,1.018315 1.0204611,1.0204611 0 0 0 1.022018,-1.018315 1.0204611,1.0204611 0 0 0 -1.022018,-1.022016 z m 42.480351,0.399919 a 1.0204611,1.0204611 0 0 0 -1.022014,1.022018 1.0204611,1.0204611 0 0 0 1.022014,1.018313 1.0204611,1.0204611 0 0 0 1.01832,-1.018313 1.0204611,1.0204611 0 0 0 -1.01832,-1.022018 z m -39.258776,0.162935 a 1.0204611,1.0204611 0 0 0 -1.018313,1.018313 1.0204611,1.0204611 0 0 0 1.018313,1.022016 1.0204611,1.0204611 0 0 0 1.022018,-1.022016 1.0204611,1.0204611 0 0 0 -1.022018,-1.018313 z m 26.550222,0.07777 a 1.0204611,1.0204611 0 0 0 -1.018315,1.018315 1.0204611,1.0204611 0 0 0 1.018315,1.022016 1.0204611,1.0204611 0 0 0 1.022016,-1.022016 1.0204611,1.0204611 0 0 0 -1.022016,-1.018315 z m 22.125184,0.07406 a 1.0204611,1.0204611 0 0 0 -1.02202,1.022016 1.0204611,1.0204611 0 0 0 1.02202,1.022017 1.0204611,1.0204611 0 0 0 1.01831,-1.022017 1.0204611,1.0204611 0 0 0 -1.01831,-1.022016 z m -33.845052,0.851681 a 1.0204611,1.0204611 0 0 0 -1.022017,1.022016 1.0204611,1.0204611 0 0 0 1.022017,1.018313 1.0204611,1.0204611 0 0 0 1.018314,-1.018313 1.0204611,1.0204611 0 0 0 -1.018314,-1.022016 z m 47.312722,0.685047 a 1.0204611,1.0204611 0 0 0 -1.02203,1.022016 1.0204611,1.0204611 0 0 0 1.02203,1.022018 1.0204611,1.0204611 0 0 0 1.01831,-1.022018 1.0204611,1.0204611 0 0 0 -1.01831,-1.022016 z m -6.03212,0.414732 a 1.0204611,1.0204611 0 0 0 -1.01832,1.018313 1.0204611,1.0204611 0 0 0 1.01832,1.022018 1.0204611,1.0204611 0 0 0 1.02201,-1.022018 1.0204611,1.0204611 0 0 0 -1.02201,-1.018313 z m -35.048521,0.151824 a 1.0204611,1.0204611 0 0 0 -1.022016,1.022016 1.0204611,1.0204611 0 0 0 1.022016,1.018315 1.0204611,1.0204611 0 0 0 1.018315,-1.018315 1.0204611,1.0204611 0 0 0 -1.018315,-1.022016 z m -11.649511,0.05555 a 1.0204611,1.0204611 0 0 0 -1.018313,1.022016 1.0204611,1.0204611 0 0 0 1.018313,1.018313 1.0204611,1.0204611 0 0 0 1.022018,-1.018313 1.0204611,1.0204611 0 0 0 -1.022018,-1.022016 z m -6.30614,0.362889 a 1.0204611,1.0204611 0 0 0 -1.018314,1.018314 1.0204611,1.0204611 0 0 0 1.018314,1.022017 1.0204611,1.0204611 0 0 0 1.022017,-1.022017 1.0204611,1.0204611 0 0 0 -1.022017,-1.018314 z m 40.051212,0.240693 a 1.0204611,1.0204611 0 0 0 -1.02202,1.018313 1.0204611,1.0204611 0 0 0 1.02202,1.022018 1.0204611,1.0204611 0 0 0 1.01831,-1.022018 1.0204611,1.0204611 0 0 0 -1.01831,-1.018313 z m 16.61147,0.09258 a 1.0204611,1.0204611 0 0 0 -1.01832,1.018315 1.0204611,1.0204611 0 0 0 1.01832,1.022016 1.0204611,1.0204611 0 0 0 1.02203,-1.022016 1.0204611,1.0204611 0 0 0 -1.02203,-1.018315 z m -54.563104,0.06294 a 1.0204611,1.0204611 0 0 0 -1.022018,1.018316 1.0204611,1.0204611 0 0 0 1.022018,1.022015 1.0204611,1.0204611 0 0 0 1.022018,-1.022015 1.0204611,1.0204611 0 0 0 -1.022018,-1.018316 z m 22.384392,0.425842 a 1.0204611,1.0204611 0 0 0 -1.022018,1.022016 1.0204611,1.0204611 0 0 0 1.022018,1.018313 1.0204611,1.0204611 0 0 0 1.022016,-1.018313 1.0204611,1.0204611 0 0 0 -1.022016,-1.022016 z m -5.432243,1.059045 a 1.0204611,1.0204611 0 0 0 -1.022016,1.018315 1.0204611,1.0204611 0 0 0 1.022016,1.022016 1.0204611,1.0204611 0 0 0 1.018315,-1.022016 1.0204611,1.0204611 0 0 0 -1.018315,-1.018315 z m 29.260795,0.159219 a 1.0204611,1.0204611 0 0 0 -1.02203,1.022016 1.0204611,1.0204611 0 0 0 1.02203,1.022018 1.0204611,1.0204611 0 0 0 1.01831,-1.022018 1.0204611,1.0204611 0 0 0 -1.01831,-1.022016 z m 4.48797,0.255503 a 1.0204611,1.0204611 0 0 0 -1.0183,1.018315 1.0204611,1.0204611 0 0 0 1.0183,1.022016 1.0204611,1.0204611 0 0 0 1.02203,-1.022016 1.0204611,1.0204611 0 0 0 -1.02203,-1.018315 z M 74.640122,57.03816 a 1.0204611,1.0204611 0 0 0 -1.022016,1.018313 1.0204611,1.0204611 0 0 0 1.022016,1.022016 1.0204611,1.0204611 0 0 0 1.018315,-1.022016 1.0204611,1.0204611 0 0 0 -1.018315,-1.018313 z m -5.809943,0.203661 a 1.0204611,1.0204611 0 0 0 -1.018313,1.022018 1.0204611,1.0204611 0 0 0 1.018313,1.018313 1.0204611,1.0204611 0 0 0 1.022018,-1.018313 1.0204611,1.0204611 0 0 0 -1.022018,-1.022018 z m 30.019895,0.33697 a 1.0204611,1.0204611 0 0 0 -1.018315,1.022016 1.0204611,1.0204611 0 0 0 1.018315,1.018315 1.0204611,1.0204611 0 0 0 1.022016,-1.018315 1.0204611,1.0204611 0 0 0 -1.022016,-1.022016 z m -33.959844,0.4999 a 1.0204611,1.0204611 0 0 0 -1.022016,1.022016 1.0204611,1.0204611 0 0 0 1.022016,1.018315 1.0204611,1.0204611 0 0 0 1.022018,-1.018315 1.0204611,1.0204611 0 0 0 -1.022018,-1.022016 z m 42.51738,0.09258 a 1.0204611,1.0204611 0 0 0 -1.02201,1.022016 1.0204611,1.0204611 0 0 0 1.02201,1.018315 1.0204611,1.0204611 0 0 0 1.01832,-1.018315 1.0204611,1.0204611 0 0 0 -1.01832,-1.022016 z m -16.363376,1.284926 a 1.0204611,1.0204611 0 0 0 -1.022016,1.022018 1.0204611,1.0204611 0 0 0 1.022016,1.018313 1.0204611,1.0204611 0 0 0 1.022018,-1.018313 1.0204611,1.0204611 0 0 0 -1.022018,-1.022018 z m -17.070643,0.03333 a 1.0204611,1.0204611 0 0 0 -1.018316,1.022018 1.0204611,1.0204611 0 0 0 1.018316,1.018313 1.0204611,1.0204611 0 0 0 1.022015,-1.018313 1.0204611,1.0204611 0 0 0 -1.022015,-1.022018 z m -11.423632,0.88871 a 1.0204611,1.0204611 0 0 0 -1.018313,1.018316 1.0204611,1.0204611 0 0 0 1.018313,1.022015 1.0204611,1.0204611 0 0 0 1.022018,-1.022015 1.0204611,1.0204611 0 0 0 -1.022018,-1.018316 z m 2.817952,0.29994 a 1.0204611,1.0204611 0 0 0 -1.018313,1.018315 1.0204611,1.0204611 0 0 0 1.018313,1.022016 1.0204611,1.0204611 0 0 0 1.022018,-1.022016 1.0204611,1.0204611 0 0 0 -1.022018,-1.018315 z m 21.854869,0.07777 a 1.0204611,1.0204611 0 0 0 -1.018313,1.022018 1.0204611,1.0204611 0 0 0 1.018313,1.018313 1.0204611,1.0204611 0 0 0 1.022018,-1.018313 1.0204611,1.0204611 0 0 0 -1.022018,-1.022018 z m 7.365187,0.02963 a 1.0204611,1.0204611 0 0 0 -1.022018,1.022017 1.0204611,1.0204611 0 0 0 1.022018,1.018314 1.0204611,1.0204611 0 0 0 1.018313,-1.018314 1.0204611,1.0204611 0 0 0 -1.018313,-1.022017 z m -16.170825,0.770215 a 1.0204611,1.0204611 0 0 0 -1.022018,1.022018 1.0204611,1.0204611 0 0 0 1.022018,1.018313 1.0204611,1.0204611 0 0 0 1.018313,-1.018313 1.0204611,1.0204611 0 0 0 -1.018313,-1.022018 z m 25.957748,0.977581 a 1.0204611,1.0204611 0 0 0 -1.02202,1.022018 1.0204611,1.0204611 0 0 0 1.02202,1.018314 1.0204611,1.0204611 0 0 0 1.02202,-1.018314 1.0204611,1.0204611 0 0 0 -1.02202,-1.022018 z M 81.594281,62.89256 a 1.0204611,1.0204611 0 0 0 -1.022016,1.022018 1.0204611,1.0204611 0 0 0 1.022016,1.018313 1.0204611,1.0204611 0 0 0 1.018313,-1.018313 1.0204611,1.0204611 0 0 0 -1.018313,-1.022018 z m -21.240177,0.69986 a 1.0204611,1.0204611 0 0 0 -1.022016,1.022016 1.0204611,1.0204611 0 0 0 1.022016,1.018315 1.0204611,1.0204611 0 0 0 1.022018,-1.018315 1.0204611,1.0204611 0 0 0 -1.022018,-1.022016 z m 56.236846,0.322158 a 1.0204611,1.0204611 0 0 0 -1.02201,1.018313 1.0204611,1.0204611 0 0 0 1.02201,1.022018 1.0204611,1.0204611 0 0 0 1.01832,-1.022018 1.0204611,1.0204611 0 0 0 -1.01832,-1.018313 z m -31.515886,0.418434 a 1.0204611,1.0204611 0 0 0 -1.018315,1.022016 1.0204611,1.0204611 0 0 0 1.018315,1.022018 1.0204611,1.0204611 0 0 0 1.022016,-1.022018 1.0204611,1.0204611 0 0 0 -1.022016,-1.022016 z m 16.518906,0.05555 a 1.0204611,1.0204611 0 0 0 -1.01832,1.018313 1.0204611,1.0204611 0 0 0 1.01832,1.022018 1.0204611,1.0204611 0 0 0 1.02201,-1.022018 1.0204611,1.0204611 0 0 0 -1.02201,-1.018313 z m -34.285707,0.188852 a 1.0204611,1.0204611 0 0 0 -1.022018,1.018313 1.0204611,1.0204611 0 0 0 1.022018,1.022018 1.0204611,1.0204611 0 0 0 1.018313,-1.022018 1.0204611,1.0204611 0 0 0 -1.018313,-1.018313 z m 25.705947,0.09997 a 1.0204611,1.0204611 0 0 0 -1.022018,1.018314 1.0204611,1.0204611 0 0 0 1.022018,1.022016 1.0204611,1.0204611 0 0 0 1.018313,-1.022016 1.0204611,1.0204611 0 0 0 -1.018313,-1.018314 z m 20.26259,0.06666 a 1.0204611,1.0204611 0 0 0 -1.02201,1.022016 1.0204611,1.0204611 0 0 0 1.02201,1.018315 1.0204611,1.0204611 0 0 0 1.01831,-1.018382 1.0204611,1.0204611 0 0 0 -1.01831,-1.022016 z M 96.572754,64.85513 a 1.0204611,1.0204611 0 0 0 -1.022018,1.022016 1.0204611,1.0204611 0 0 0 1.022018,1.018314 1.0204611,1.0204611 0 0 0 1.018313,-1.018314 1.0204611,1.0204611 0 0 0 -1.018313,-1.022016 z m -19.207253,1.292332 a 1.0204611,1.0204611 0 0 0 -1.022016,1.018315 1.0204611,1.0204611 0 0 0 1.022016,1.022016 1.0204611,1.0204611 0 0 0 1.018315,-1.022016 1.0204611,1.0204611 0 0 0 -1.018315,-1.018315 z m 4.010306,0.618395 a 1.0204611,1.0204611 0 0 0 -1.022018,1.022016 1.0204611,1.0204611 0 0 0 1.022018,1.018315 1.0204611,1.0204611 0 0 0 1.018313,-1.018315 1.0204611,1.0204611 0 0 0 -1.018313,-1.022016 z m 28.472053,0.211068 a 1.0204611,1.0204611 0 0 0 -1.01831,1.018315 1.0204611,1.0204611 0 0 0 1.01831,1.022016 1.0204611,1.0204611 0 0 0 1.02202,-1.022016 1.0204611,1.0204611 0 0 0 -1.02202,-1.018315 z M 85.541636,67.0732 a 1.0204611,1.0204611 0 0 0 -1.022016,1.018315 1.0204611,1.0204611 0 0 0 1.022016,1.022016 1.0204611,1.0204611 0 0 0 1.018315,-1.022016 1.0204611,1.0204611 0 0 0 -1.018315,-1.018315 z m 6.80604,1.644115 a 1.0204611,1.0204611 0 0 0 -1.018313,1.022016 1.0204611,1.0204611 0 0 0 1.018313,1.018315 1.0204611,1.0204611 0 0 0 1.022018,-1.018315 1.0204611,1.0204611 0 0 0 -1.022018,-1.022016 z m -23.747079,0.107384 a 1.0204611,1.0204611 0 0 0 -1.022018,1.022016 1.0204611,1.0204611 0 0 0 1.022018,1.018314 1.0204611,1.0204611 0 0 0 1.018313,-1.018314 1.0204611,1.0204611 0 0 0 -1.018313,-1.022016 z m 9.431437,0.240693 a 1.0204611,1.0204611 0 0 0 -1.018313,1.018313 1.0204611,1.0204611 0 0 0 1.018313,1.022016 1.0204611,1.0204611 0 0 0 1.022016,-1.022016 1.0204611,1.0204611 0 0 0 -1.022016,-1.018313 z m 19.984873,0.05555 a 1.0204611,1.0204611 0 0 0 -1.018314,1.021955 1.0204611,1.0204611 0 0 0 1.018314,1.018313 1.0204611,1.0204611 0 0 0 1.022017,-1.018313 1.0204611,1.0204611 0 0 0 -1.022017,-1.022016 z m 9.568453,0.192492 a 1.0204611,1.0204611 0 0 0 -1.02202,1.018313 1.0204611,1.0204611 0 0 0 1.02202,1.022018 1.0204611,1.0204611 0 0 0 1.01831,-1.022018 1.0204611,1.0204611 0 0 0 -1.01831,-1.018313 z m -26.402108,0.140715 a 1.0204611,1.0204611 0 0 0 -1.022016,1.022016 1.0204611,1.0204611 0 0 0 1.022016,1.018315 1.0204611,1.0204611 0 0 0 1.018315,-1.018315 1.0204611,1.0204611 0 0 0 -1.018315,-1.022016 z m 23.813738,0.02592 a 1.0204611,1.0204611 0 0 0 -1.01832,1.022016 1.0204611,1.0204611 0 0 0 1.01832,1.018313 1.0204611,1.0204611 0 0 0 1.02201,-1.018313 1.0204611,1.0204611 0 0 0 -1.02201,-1.022016 z m -9.712867,0.207366 a 1.0204611,1.0204611 0 0 0 -1.022016,1.022016 1.0204611,1.0204611 0 0 0 1.022016,1.018315 1.0204611,1.0204611 0 0 0 1.018315,-1.018315 1.0204611,1.0204611 0 0 0 -1.018315,-1.022016 z m -9.072251,0.307347 a 1.0204611,1.0204611 0 0 0 -1.018313,1.022018 1.0204611,1.0204611 0 0 0 1.018313,1.018313 1.0204611,1.0204611 0 0 0 1.022016,-1.018313 1.0204611,1.0204611 0 0 0 -1.022016,-1.022018 z m 25.765198,0.04444 a 1.0204611,1.0204611 0 0 0 -1.02203,1.022018 1.0204611,1.0204611 0 0 0 1.02203,1.018313 1.0204611,1.0204611 0 0 0 1.01832,-1.018313 1.0204611,1.0204611 0 0 0 -1.01832,-1.022018 z m -9.78693,1.144215 a 1.0204611,1.0204611 0 0 0 -1.02201,1.022018 1.0204611,1.0204611 0 0 0 1.02201,1.018313 1.0204611,1.0204611 0 0 0 1.01832,-1.018313 1.0204611,1.0204611 0 0 0 -1.01832,-1.022018 z m -27.298215,0.36289 a 1.0204611,1.0204611 0 0 0 -1.018314,1.018315 1.0204611,1.0204611 0 0 0 1.018314,1.022016 1.0204611,1.0204611 0 0 0 1.022015,-1.022016 1.0204611,1.0204611 0 0 0 -1.022015,-1.018315 z m 4.706462,1.184947 a 1.0204611,1.0204611 0 0 0 -1.022018,1.018315 1.0204611,1.0204611 0 0 0 1.022018,1.022016 1.0204611,1.0204611 0 0 0 1.018313,-1.022016 1.0204611,1.0204611 0 0 0 -1.018313,-1.018315 z m 11.83836,0.02592 a 1.0204611,1.0204611 0 0 0 -1.022016,1.018315 1.0204611,1.0204611 0 0 0 1.022016,1.022016 1.0204611,1.0204611 0 0 0 1.018315,-1.022016 1.0204611,1.0204611 0 0 0 -1.018315,-1.018315 z m -3.199357,0.492494 a 1.0204611,1.0204611 0 0 0 -1.018313,1.022016 1.0204611,1.0204611 0 0 0 1.018313,1.018316 1.0204611,1.0204611 0 0 0 1.022018,-1.018316 1.0204611,1.0204611 0 0 0 -1.022018,-1.022016 z m -2.084765,0.111082 a 1.0204611,1.0204611 0 0 0 -1.018314,1.022016 1.0204611,1.0204611 0 0 0 1.018314,1.022018 1.0204611,1.0204611 0 0 0 1.022016,-1.022018 1.0204611,1.0204611 0 0 0 -1.022016,-1.022016 z m 21.199445,0.392513 a 1.0204611,1.0204611 0 0 0 -1.02202,1.022016 1.0204611,1.0204611 0 0 0 1.02202,1.018315 1.0204611,1.0204611 0 0 0 1.01831,-1.018315 1.0204611,1.0204611 0 0 0 -1.01831,-1.022016 z M 82.138615,73.94213 a 1.0204611,1.0204611 0 0 0 -1.018313,1.022017 1.0204611,1.0204611 0 0 0 1.018313,1.022016 1.0204611,1.0204611 0 0 0 1.022018,-1.022016 1.0204611,1.0204611 0 0 0 -1.022018,-1.022017 z m 8.924135,1.988489 a 1.0204611,1.0204611 0 0 0 -1.018315,1.018315 1.0204611,1.0204611 0 0 0 1.018315,1.022016 1.0204611,1.0204611 0 0 0 1.022016,-1.022016 1.0204611,1.0204611 0 0 0 -1.022016,-1.018315 z m 15.2599,0.08516 a 1.0204611,1.0204611 0 0 0 -1.01832,1.022018 1.0204611,1.0204611 0 0 0 1.01832,1.018313 1.0204611,1.0204611 0 0 0 1.02201,-1.018313 1.0204611,1.0204611 0 0 0 -1.02201,-1.022018 z m -2.9957,1.103484 a 1.0204611,1.0204611 0 0 0 -1.02202,1.018313 1.0204611,1.0204611 0 0 0 1.02202,1.022016 1.0204611,1.0204611 0 0 0 1.01832,-1.022016 1.0204611,1.0204611 0 0 0 -1.01832,-1.018313 z m -32.700835,0.185155 a 1.0204611,1.0204611 0 0 0 -1.022018,1.018313 1.0204611,1.0204611 0 0 0 1.022018,1.022018 1.0204611,1.0204611 0 0 0 1.022016,-1.022018 1.0204611,1.0204611 0 0 0 -1.022016,-1.018313 z m 8.905617,0.455463 a 1.0204611,1.0204611 0 0 0 -1.018313,1.022018 1.0204611,1.0204611 0 0 0 1.018313,1.018313 1.0204611,1.0204611 0 0 0 1.022018,-1.018313 1.0204611,1.0204611 0 0 0 -1.022018,-1.022018 z m 5.35448,0.01479 a 1.0204611,1.0204611 0 0 0 -1.022016,1.022016 1.0204611,1.0204611 0 0 0 1.022016,1.018313 1.0204611,1.0204611 0 0 0 1.018315,-1.018313 1.0204611,1.0204611 0 0 0 -1.018315,-1.022016 z m -10.031317,0.666532 a 1.0204611,1.0204611 0 0 0 -1.022017,1.022018 1.0204611,1.0204611 0 0 0 1.022017,1.018313 1.0204611,1.0204611 0 0 0 1.018314,-1.018313 1.0204611,1.0204611 0 0 0 -1.018314,-1.022018 z m 19.718259,0.111082 a 1.0204611,1.0204611 0 0 0 -1.022015,1.022016 1.0204611,1.0204611 0 0 0 1.022015,1.022017 1.0204611,1.0204611 0 0 0 1.018316,-1.022017 1.0204611,1.0204611 0 0 0 -1.018316,-1.022016 z m -7.30964,0.381405 a 1.0204611,1.0204611 0 0 0 -1.018316,1.022016 1.0204611,1.0204611 0 0 0 1.018316,1.018315 1.0204611,1.0204611 0 0 0 1.022015,-1.018315 1.0204611,1.0204611 0 0 0 -1.022015,-1.022016 z m 9.846169,0.266613 a 1.0204611,1.0204611 0 0 0 -1.022018,1.018313 1.0204611,1.0204611 0 0 0 1.022018,1.022018 1.0204611,1.0204611 0 0 0 1.018313,-1.022018 1.0204611,1.0204611 0 0 0 -1.018313,-1.018313 z M 81.612797,81.95901 a 1.0204611,1.0204611 0 0 0 -1.018316,1.018313 1.0204611,1.0204611 0 0 0 1.018316,1.022018 1.0204611,1.0204611 0 0 0 1.022015,-1.022018 1.0204611,1.0204611 0 0 0 -1.022015,-1.018313 z M 80.1168,89.442692 V 107.35762 H 98.031719 V 89.442692 Z M 62.201882,109.14984 v 8.95747 h 53.744758 v -8.95747 z m 5.376697,10.74969 v 41.20283 8.95746 h 5.372994 l 3.584465,-8.95746 H 80.1168 l 5.372996,8.95746 h 7.16893 l 5.372993,-8.95746 h 3.584461 l 3.58077,8.95746 h 5.37299 v -8.95746 -41.20283 z"
         style="display:inline;stroke-width:1.89592"><title
           id="title25-3">Nébuliseur2</title></path><title
         id="title26-7">Nébuliseur2</title></symbol></defs><metadata
     id="metadata3397"><rdf:RDF><cc:Work
         rdf:about=""><dc:title>Inhalothérapie</dc:title><dc:creator><cc:Agent><dc:title>Nicolas Blais St-Laurent</dc:title></cc:Agent></dc:creator></cc:Work></rdf:RDF></metadata><use
     xlink:href="#N%C3%A9buliseur2"
     id="use1"
     style="fill:#ffffff"
     transform="translate(-20.000001)" /></svg>
