<?xml version='1.0' encoding='UTF-8' standalone='no'?>
<svg width="419pt" xmlns:xlink="http://www.w3.org/1999/xlink" viewBox="0 0 419 343" xmlns="http://www.w3.org/2000/svg" height="343pt">
 <title>gl2ps_renderer figure</title>
 <desc>
Creator: GL2PS 1.4.2, (C) 1999-2020 C. Geuzaine
For: Octave
CreationDate: Sun Apr  3 10:38:30 2022
</desc>
 <defs/>
 <polygon points="0,0 419,0 419,343 0,343" fill="#ffffff"/>
 <g>
  <polygon points="0,343 419,343 419,0 0,0" fill="#ffffff" shape-rendering="crispEdges"/>
  <clipPath id="cp00419343">
   <polygon points="0,343 419,343 419,0 0,0"/>
  </clipPath>
  <g clip-path="url(#cp00419343)">
   <polygon points="54.5283,246.789 379.601,246.789 379.601,84.2529 54.5283,84.2529" fill="#ffffff" shape-rendering="crispEdges"/>
   <polyline stroke-dasharray="16,0" stroke="#262626" stroke-linecap="butt" stroke-linejoin="miter" points="54.5283,246.789 54.5283,84.2529" stroke-opacity="0.15" stroke-width="0.5" fill="none"/>
   <polyline stroke-dasharray="16,0" stroke="#262626" stroke-linecap="butt" stroke-linejoin="miter" points="100.967,246.789 100.967,84.2529" stroke-opacity="0.15" stroke-width="0.5" fill="none"/>
   <polyline stroke-dasharray="16,0" stroke="#262626" stroke-linecap="butt" stroke-linejoin="miter" points="147.406,246.789 147.406,84.2529" stroke-opacity="0.15" stroke-width="0.5" fill="none"/>
   <polyline stroke-dasharray="16,0" stroke="#262626" stroke-linecap="butt" stroke-linejoin="miter" points="193.845,246.789 193.845,84.2529" stroke-opacity="0.15" stroke-width="0.5" fill="none"/>
   <polyline stroke-dasharray="16,0" stroke="#262626" stroke-linecap="butt" stroke-linejoin="miter" points="240.284,246.789 240.284,84.2529" stroke-opacity="0.15" stroke-width="0.5" fill="none"/>
   <polyline stroke-dasharray="16,0" stroke="#262626" stroke-linecap="butt" stroke-linejoin="miter" points="286.723,246.789 286.723,84.2529" stroke-opacity="0.15" stroke-width="0.5" fill="none"/>
   <polyline stroke-dasharray="16,0" stroke="#262626" stroke-linecap="butt" stroke-linejoin="miter" points="333.162,246.789 333.162,84.2529" stroke-opacity="0.15" stroke-width="0.5" fill="none"/>
   <polyline stroke-dasharray="16,0" stroke="#262626" stroke-linecap="butt" stroke-linejoin="miter" points="379.601,246.789 379.601,84.2529" stroke-opacity="0.15" stroke-width="0.5" fill="none"/>
   <polyline stroke="#262626" stroke-linecap="butt" stroke-linejoin="miter" points="54.5283,246.789 54.5283,243.548" stroke-width="0.5" fill="none"/>
   <polyline stroke="#262626" stroke-linecap="butt" stroke-linejoin="miter" points="54.5283,84.2529 54.5283,87.4944" stroke-width="0.5" fill="none"/>
   <polyline stroke="#262626" stroke-linecap="butt" stroke-linejoin="miter" points="100.967,246.789 100.967,243.548" stroke-width="0.5" fill="none"/>
   <polyline stroke="#262626" stroke-linecap="butt" stroke-linejoin="miter" points="100.967,84.2529 100.967,87.4944" stroke-width="0.5" fill="none"/>
   <polyline stroke="#262626" stroke-linecap="butt" stroke-linejoin="miter" points="147.406,246.789 147.406,243.548" stroke-width="0.5" fill="none"/>
   <polyline stroke="#262626" stroke-linecap="butt" stroke-linejoin="miter" points="147.406,84.2529 147.406,87.4944" stroke-width="0.5" fill="none"/>
   <polyline stroke="#262626" stroke-linecap="butt" stroke-linejoin="miter" points="193.845,246.789 193.845,243.548" stroke-width="0.5" fill="none"/>
   <polyline stroke="#262626" stroke-linecap="butt" stroke-linejoin="miter" points="193.845,84.2529 193.845,87.4944" stroke-width="0.5" fill="none"/>
   <polyline stroke="#262626" stroke-linecap="butt" stroke-linejoin="miter" points="240.284,246.789 240.284,243.548" stroke-width="0.5" fill="none"/>
   <polyline stroke="#262626" stroke-linecap="butt" stroke-linejoin="miter" points="240.284,84.2529 240.284,87.4944" stroke-width="0.5" fill="none"/>
   <polyline stroke="#262626" stroke-linecap="butt" stroke-linejoin="miter" points="286.723,246.789 286.723,243.548" stroke-width="0.5" fill="none"/>
   <polyline stroke="#262626" stroke-linecap="butt" stroke-linejoin="miter" points="286.723,84.2529 286.723,87.4944" stroke-width="0.5" fill="none"/>
   <polyline stroke="#262626" stroke-linecap="butt" stroke-linejoin="miter" points="333.162,246.789 333.162,243.548" stroke-width="0.5" fill="none"/>
   <polyline stroke="#262626" stroke-linecap="butt" stroke-linejoin="miter" points="333.162,84.2529 333.162,87.4944" stroke-width="0.5" fill="none"/>
   <polyline stroke="#262626" stroke-linecap="butt" stroke-linejoin="miter" points="379.601,246.789 379.601,243.548" stroke-width="0.5" fill="none"/>
   <polyline stroke="#262626" stroke-linecap="butt" stroke-linejoin="miter" points="379.601,84.2529 379.601,87.4944" stroke-width="0.5" fill="none"/>
   <text font-family="FreeSans" xml:space="preserve" transform="translate(51.5283,262.268) rotate(-0,3,-8)" font-size="10" font-weight="normal" font-style="normal">
    <tspan y="-0" x="0 " fill="rgb(38,38,38)">2</tspan>
   </text>
   <text font-family="FreeSans" xml:space="preserve" transform="translate(97.9671,262.268) rotate(-0,3,-8)" font-size="10" font-weight="normal" font-style="normal">
    <tspan y="-0" x="0 " fill="rgb(38,38,38)">3</tspan>
   </text>
   <text font-family="FreeSans" xml:space="preserve" transform="translate(144.406,262.268) rotate(-0,3,-8)" font-size="10" font-weight="normal" font-style="normal">
    <tspan y="-0" x="0 " fill="rgb(38,38,38)">4</tspan>
   </text>
   <text font-family="FreeSans" xml:space="preserve" transform="translate(190.845,262.268) rotate(-0,3,-8)" font-size="10" font-weight="normal" font-style="normal">
    <tspan y="-0" x="0 " fill="rgb(38,38,38)">5</tspan>
   </text>
   <text font-family="FreeSans" xml:space="preserve" transform="translate(237.284,262.268) rotate(-0,3,-8)" font-size="10" font-weight="normal" font-style="normal">
    <tspan y="-0" x="0 " fill="rgb(38,38,38)">6</tspan>
   </text>
   <text font-family="FreeSans" xml:space="preserve" transform="translate(283.723,262.268) rotate(-0,3,-8)" font-size="10" font-weight="normal" font-style="normal">
    <tspan y="-0" x="0 " fill="rgb(38,38,38)">7</tspan>
   </text>
   <text font-family="FreeSans" xml:space="preserve" transform="translate(330.162,262.268) rotate(-0,3,-8)" font-size="10" font-weight="normal" font-style="normal">
    <tspan y="-0" x="0 " fill="rgb(38,38,38)">8</tspan>
   </text>
   <text font-family="FreeSans" xml:space="preserve" transform="translate(376.601,262.268) rotate(-0,3,-8)" font-size="10" font-weight="normal" font-style="normal">
    <tspan y="-0" x="0 " fill="rgb(38,38,38)">9</tspan>
   </text>
   <polyline stroke-dasharray="16,0" stroke="#262626" stroke-linecap="butt" stroke-linejoin="miter" points="54.5283,246.789 379.601,246.789" stroke-opacity="0.15" stroke-width="0.5" fill="none"/>
   <polyline stroke-dasharray="16,0" stroke="#262626" stroke-linecap="butt" stroke-linejoin="miter" points="54.5283,206.155 379.601,206.155" stroke-opacity="0.15" stroke-width="0.5" fill="none"/>
   <polyline stroke-dasharray="16,0" stroke="#262626" stroke-linecap="butt" stroke-linejoin="miter" points="54.5283,165.521 379.601,165.521" stroke-opacity="0.15" stroke-width="0.5" fill="none"/>
   <polyline stroke-dasharray="16,0" stroke="#262626" stroke-linecap="butt" stroke-linejoin="miter" points="54.5283,124.887 379.601,124.887" stroke-opacity="0.15" stroke-width="0.5" fill="none"/>
   <polyline stroke-dasharray="16,0" stroke="#262626" stroke-linecap="butt" stroke-linejoin="miter" points="54.5283,84.2529 379.601,84.2529" stroke-opacity="0.15" stroke-width="0.5" fill="none"/>
   <polyline stroke="#262626" stroke-linecap="butt" stroke-linejoin="miter" points="54.5283,246.789 57.7797,246.789" stroke-width="0.5" fill="none"/>
   <polyline stroke="#262626" stroke-linecap="butt" stroke-linejoin="miter" points="379.601,246.789 376.349,246.789" stroke-width="0.5" fill="none"/>
   <polyline stroke="#262626" stroke-linecap="butt" stroke-linejoin="miter" points="54.5283,206.155 57.7797,206.155" stroke-width="0.5" fill="none"/>
   <polyline stroke="#262626" stroke-linecap="butt" stroke-linejoin="miter" points="379.601,206.155 376.349,206.155" stroke-width="0.5" fill="none"/>
   <polyline stroke="#262626" stroke-linecap="butt" stroke-linejoin="miter" points="54.5283,165.521 57.7797,165.521" stroke-width="0.5" fill="none"/>
   <polyline stroke="#262626" stroke-linecap="butt" stroke-linejoin="miter" points="379.601,165.521 376.349,165.521" stroke-width="0.5" fill="none"/>
   <polyline stroke="#262626" stroke-linecap="butt" stroke-linejoin="miter" points="54.5283,124.887 57.7797,124.887" stroke-width="0.5" fill="none"/>
   <polyline stroke="#262626" stroke-linecap="butt" stroke-linejoin="miter" points="379.601,124.887 376.349,124.887" stroke-width="0.5" fill="none"/>
   <polyline stroke="#262626" stroke-linecap="butt" stroke-linejoin="miter" points="54.5283,84.2529 57.7797,84.2529" stroke-width="0.5" fill="none"/>
   <polyline stroke="#262626" stroke-linecap="butt" stroke-linejoin="miter" points="379.601,84.2529 376.349,84.2529" stroke-width="0.5" fill="none"/>
   <text font-family="FreeSans" xml:space="preserve" transform="translate(34.5271,250.789) rotate(-0,15,-4)" font-size="10" font-weight="normal" font-style="normal">
    <tspan y="-0" x="0 3 9 " fill="rgb(38,38,38)">-15</tspan>
   </text>
   <text font-family="FreeSans" xml:space="preserve" transform="translate(34.5271,210.155) rotate(-0,15,-4)" font-size="10" font-weight="normal" font-style="normal">
    <tspan y="-0" x="0 3 9 " fill="rgb(38,38,38)">-10</tspan>
   </text>
   <text font-family="FreeSans" xml:space="preserve" transform="translate(40.5271,169.521) rotate(-0,9,-4)" font-size="10" font-weight="normal" font-style="normal">
    <tspan y="-0" x="0 3 " fill="rgb(38,38,38)">-5</tspan>
   </text>
   <text font-family="FreeSans" xml:space="preserve" transform="translate(43.5271,128.887) rotate(-0,6,-4)" font-size="10" font-weight="normal" font-style="normal">
    <tspan y="-0" x="0 " fill="rgb(38,38,38)">0</tspan>
   </text>
   <text font-family="FreeSans" xml:space="preserve" transform="translate(43.5271,88.2529) rotate(-0,6,-4)" font-size="10" font-weight="normal" font-style="normal">
    <tspan y="-0" x="0 " fill="rgb(38,38,38)">5</tspan>
   </text>
   <polyline stroke-dasharray="16,0" stroke="#262626" stroke-linecap="square" stroke-linejoin="miter" points="54.5283,246.789 379.601,246.789" stroke-width="0.5" fill="none"/>
   <polyline stroke-dasharray="16,0" stroke="#262626" stroke-linecap="square" stroke-linejoin="miter" points="54.5283,84.2529 379.601,84.2529" stroke-width="0.5" fill="none"/>
   <polyline stroke-dasharray="16,0" stroke="#262626" stroke-linecap="square" stroke-linejoin="miter" points="54.5283,246.789 54.5283,84.2529" stroke-width="0.5" fill="none"/>
   <polyline stroke-dasharray="16,0" stroke="#262626" stroke-linecap="square" stroke-linejoin="miter" points="379.601,246.789 379.601,84.2529" stroke-width="0.5" fill="none"/>
   <polyline stroke="#0071bc" stroke-linecap="butt" stroke-linejoin="round" points="54.9927,244.026 55.457,244.026 55.9214,243.295 56.3858,241.507 56.8502,238.581 57.3146,234.843 57.779,230.535 58.2434,226.472 58.7078,223.059 59.1722,220.865 59.6365,219.239 60.1009,217.207 60.5653,215.176 61.0297,213.713 61.4941,212.331 61.9585,210.137 62.5622,207.943 62.8873,206.805 63.3517,206.886 63.816,205.911 64.2804,204.611 64.7448,203.88 65.2092,203.067 65.6736,201.604 66.138,199.572 66.6024,197.703 67.0668,195.834 67.5312,193.965 67.9956,191.527 68.4599,188.195 68.9243,184.05 69.3887,179.174 69.8531,173.567 70.3175,167.796 70.7819,161.458 71.2463,155.037 71.8035,148.698 72.1751,142.603 72.6395,136.752 73.1038,131.388 73.5682,127.244 74.0326,124.237 74.497,121.474 74.9614,118.873 75.4722,116.76 75.8902,114.728 76.401,113.266 76.8189,111.803 77.2833,111.153 77.7477,110.828 78.2121,110.746 78.6765,111.153 79.1409,111.234 79.6053,111.315 80.0697,111.153 80.534,111.64 81.1378,112.534 81.4628,113.591 81.9272,115.46 82.3916,117.085 82.856,118.467 83.3204,118.629 83.7848,118.467 84.2492,117.41 84.7136,115.785 85.1779,114.728 85.6423,115.054 86.1067,117.248 86.5711,121.149 87.0355,125.943 87.4999,130.332 87.9643,133.42 88.4287,134.07 88.8931,132.526 89.3575,129.357 89.8218,126.025 90.3791,124.074 90.7506,123.587 91.215,125.212 91.6794,128.138 92.1438,131.632 92.6082,134.964 93.0726,137.727 93.5369,139.922 94.0013,141.953 94.4657,143.904 94.9301,145.854 95.3945,147.886 95.8589,150.568 96.3233,153.249 96.7877,155.688 97.2521,157.882 97.7165,159.751 98.1808,161.376 98.6917,161.864 99.1096,161.783 99.7598,161.133 100.038,159.832 100.503,157.719 100.967,155.037 101.432,151.137 101.896,146.504 102.36,141.222 102.825,135.452 103.289,129.6 103.754,123.83 104.218,119.198 104.682,115.622 105.147,113.347 105.611,111.965 106.075,111.396 106.54,111.315 107.004,111.153 107.469,110.584 107.933,109.852 108.397,109.202 108.955,108.877 109.326,108.552 109.791,108.552 110.255,108.877 110.719,109.121 111.184,109.446 111.648,109.609 112.113,109.852 112.577,110.34 113.041,111.071 113.506,112.29 113.97,114.078 114.434,115.866 114.899,117.085 115.363,117.41 115.828,116.76 116.292,115.541 116.756,113.591 117.221,112.047 117.685,111.965 118.15,113.428 118.614,116.598 119.078,120.905 119.543,125.537 120.007,128.95 120.472,130.251 120.936,129.194 121.4,126.919 121.911,124.156 122.329,121.799 122.84,121.149 123.258,122.124 123.722,124.724 124.187,127.894 124.651,131.145 125.115,133.664 125.58,135.452 126.044,136.752 126.509,137.565 126.973,138.703 127.437,140.165 127.902,141.791 128.366,143.497 128.831,145.448 129.295,147.805 129.759,149.674 130.224,151.218 130.688,152.681 131.152,153.331 131.617,153.412 132.081,152.762 132.546,151.38 133.01,148.861 133.474,145.692 133.939,142.035 134.403,137.727 134.868,132.851 135.332,127.65 135.796,122.611 136.261,118.06 136.725,114.566 137.19,112.372 137.654,111.315 138.118,110.828 138.583,110.665 139.047,110.177 139.511,109.365 139.976,108.39 140.44,107.658 140.905,107.739 141.369,107.902 141.833,108.552 142.298,109.121 142.762,109.365 143.227,109.446 143.691,109.202 144.155,109.609 144.62,109.852 145.084,110.665 145.549,112.209 146.106,113.753 146.477,115.135 146.942,116.191 147.406,116.923 147.87,116.679 148.335,115.216 148.799,113.347 149.264,111.64 149.728,110.584 150.192,110.746 150.657,113.103 151.121,117.004 151.586,121.636 152.05,125.293 152.514,127.731 152.979,127.975 153.443,126.025 153.908,123.343 154.372,121.311 154.836,120.498 155.394,120.905 155.765,122.774 156.229,125.781 156.694,128.869 157.158,131.47 157.623,133.258 158.087,134.477 158.551,135.777 159.016,136.671 159.48,137.158 159.945,137.971 160.409,139.109 160.873,140.734 161.338,142.116 161.802,143.822 162.267,146.098 162.731,147.642 163.195,148.861 163.66,149.43 164.124,149.43 164.588,148.698 165.053,146.748 165.517,143.985 165.982,140.653 166.446,136.427 166.91,131.795 167.375,126.837 167.839,122.043 168.35,117.654 168.768,114.078 169.279,111.722 169.697,110.584 170.161,109.852 170.626,109.446 171.09,109.04 171.554,108.471 172.019,107.739 172.483,107.089 172.947,106.764 173.412,107.333 174.062,108.146 174.341,108.552 174.805,109.04 175.269,109.365 175.734,109.609 176.198,109.446 176.663,109.609 177.127,110.34 177.591,111.153 178.056,112.534 178.52,114.241 178.985,115.785 179.449,116.841 179.913,117.004 180.378,116.191 180.842,114.241 181.306,111.803 181.771,110.177 182.235,110.096 182.7,111.559 183.257,114.972 183.628,119.279 184.093,123.749 184.557,126.512 185.022,126.837 185.486,125.293 185.95,122.693 186.415,120.336 186.879,118.873 187.344,118.873 187.808,120.742 188.272,123.749 188.737,126.756 189.201,129.438 189.665,131.632 190.13,132.77 190.594,133.339 191.059,133.826 191.523,134.72 191.987,135.452 192.545,136.021 192.916,137.077 193.381,138.296 193.845,139.84 194.309,141.384 194.774,142.766 195.238,144.473 195.703,145.61 196.167,146.504 196.631,146.423 197.096,144.798 197.56,142.766 198.024,139.596 198.489,136.183 198.953,132.039 199.418,127.65 199.882,123.262 200.346,119.117 200.811,115.46 201.275,112.534 201.925,110.584 202.204,109.852 202.668,109.69 203.133,109.609 203.597,109.283 204.062,108.471 204.526,107.983 204.99,107.171 205.455,107.252 205.919,107.414 206.383,107.983 206.848,108.796 207.312,108.877 207.777,108.958 208.241,108.958 208.705,109.283 209.17,109.609 209.634,110.177 210.099,111.965 210.563,113.509 211.12,114.972 211.492,116.191 211.956,116.923 212.421,116.679 212.885,114.972 213.349,113.184 213.814,111.315 214.278,110.177 214.742,110.503 215.253,112.941 215.718,116.76 216.136,120.661 216.6,123.993 217.064,125.456 217.529,125.212 217.993,123.099 218.458,120.661 218.922,119.036 219.386,118.711 219.851,119.767 220.408,122.124 220.78,125.049 221.244,127.975 221.708,130.413 222.173,131.876 222.637,133.258 223.101,134.233 223.566,135.208 224.03,136.021 224.495,136.833 224.959,137.727 225.423,138.865 225.888,140.165 226.352,141.628 226.817,143.497 227.281,144.96 227.745,146.26 228.21,147.073 228.674,147.154 229.139,146.504 229.696,144.147 230.067,141.303 230.532,137.727 230.996,133.826 231.46,129.113 231.925,124.318 232.389,119.848 232.854,116.029 233.318,112.941 233.782,110.665 234.247,109.609 234.711,108.958 235.176,108.877 235.64,108.552 236.104,107.902 236.569,107.333 237.033,107.008 237.498,107.008 237.962,107.252 238.426,108.064 239.076,108.877 239.355,109.202 239.819,109.202 240.284,109.121 240.748,109.202 241.213,109.365 241.677,110.259 242.141,111.315 242.606,112.859 243.07,114.728 243.535,115.947 243.999,116.191 244.463,115.541 244.928,114.403 245.392,112.778 245.857,110.828 246.321,109.609 246.785,109.527 247.25,111.153 247.714,114.322 248.411,118.142 248.643,121.636 249.107,124.074 249.572,124.643 250.036,123.099 250.5,120.498 250.965,118.223 251.429,117.166 251.894,117.654 252.358,119.767 252.822,123.018 253.287,126.35 253.751,129.194 254.216,131.307 254.68,132.364 255.144,133.014 255.609,133.501 256.073,133.826 256.537,134.477 257.002,134.964 257.559,135.858 257.931,136.752 258.395,137.971 258.859,139.353 259.324,140.815 259.788,142.522 260.253,143.579 260.717,144.716 261.228,144.716 261.692,143.741 262.157,141.547 262.575,138.377 263.039,134.802 263.503,130.901 263.968,126.431 264.432,121.961 264.896,117.654 265.361,114.078 265.825,111.64 266.29,109.934 266.847,109.202 267.218,108.796 267.683,108.877 268.147,108.308 268.612,107.658 269.076,107.171 269.54,106.845 270.005,107.008 270.469,107.414 270.934,108.552 271.398,108.715 271.862,108.958 272.327,109.202 272.791,109.365 273.255,109.609 273.72,109.934 274.184,111.071 274.649,112.453 275.113,113.916 275.577,115.46 276.042,116.191 276.506,116.273 276.971,115.785 277.435,114.16 277.899,111.884 278.364,110.177 278.828,109.609 279.293,110.909 279.757,113.834 280.221,117.735 280.686,121.88 281.15,124.237 281.615,124.724 282.079,122.937 282.543,120.173 283.008,117.654 283.472,116.435 283.936,117.004 284.447,119.361 284.865,122.855 285.562,126.512 285.794,129.682 286.258,131.713 286.723,133.095 287.187,133.583 287.652,133.908 288.116,134.314 288.58,134.883 289.045,135.208 289.509,135.533 289.974,136.59 290.438,137.971 290.902,139.434 291.367,140.815 291.831,142.441 292.295,143.822 292.76,144.391 293.224,143.985 293.689,142.36 294.153,140.084 294.617,136.915 295.082,133.583 295.546,129.926 296.011,126.025 296.475,122.205 296.939,118.142 297.404,114.972 297.868,112.372 298.332,110.665 298.797,109.69 299.261,109.04 299.726,108.715 300.19,107.983 300.654,107.171 301.119,106.602 301.583,106.52 302.048,106.683 302.512,107.496 302.976,108.471 303.441,109.283 304.044,109.609 304.37,109.446 304.834,109.365 305.298,109.365 305.763,109.69 306.227,110.584 306.691,111.965 307.156,113.672 307.667,115.297 308.085,116.516 308.596,116.679 309.013,115.866 309.478,113.834 309.942,111.884 310.407,110.177 310.871,109.365 311.335,110.584 311.8,113.509 312.264,117.735 312.729,121.636 313.193,124.643 313.657,125.049 314.122,123.343 314.586,120.498 315.051,117.573 315.515,116.191 315.979,116.435 316.444,118.629 316.908,122.286 317.372,125.943 317.837,129.032 318.301,131.063 318.766,132.282 319.23,133.014 319.694,133.258 320.159,133.745 320.623,134.72 321.088,135.289 321.552,135.939 322.016,136.508 322.666,137.483 322.945,138.865 323.409,140.003 323.874,141.384 324.338,142.603 324.803,143.579 325.267,143.741 325.731,142.603 326.196,140.328 326.66,137.483 327.125,133.826 327.589,130.088 328.053,125.943 328.518,121.555 328.982,117.492 329.447,113.834 329.911,111.315 330.375,109.446 330.84,108.715 331.304,108.39 331.954,108.146 332.233,107.658 332.697,107.171 333.162,106.358 333.626,106.277 334.09,106.602 334.555,107.414 335.019,108.308 335.484,108.877 335.948,109.446 336.412,109.202 336.877,109.283 337.341,109.446 337.806,109.771 338.27,110.746 338.734,112.047 339.199,113.997 339.663,115.622 340.128,116.598 340.592,117.004 341.056,116.11 341.521,114.485 341.985,112.047 342.449,110.096 342.914,109.365 343.378,110.421 343.843,113.509 344.307,117.41 344.771,121.23 345.236,123.83 345.7,124.318 346.165,122.53 346.629,119.605 347.093,117.248 347.558,116.11 348.022,116.598 348.487,119.036 348.951,122.611 349.415,126.187 349.88,128.95 350.344,130.982 350.808,132.039 351.273,132.445 351.737,132.851 352.202,133.258 352.666,133.989 353.13,134.558 353.595,135.045 354.106,135.614 354.524,136.508 355.034,137.646 355.452,138.703 355.917,139.596 356.381,140.815 356.846,141.791 357.31,142.035 357.774,141.222 358.239,139.596 358.703,136.915 359.167,133.583 359.632,129.844 360.096,125.537 360.561,120.905 361.025,116.516 361.489,113.428 361.954,110.99 362.418,109.446 362.883,108.877 363.347,108.958 363.811,108.877 364.276,108.146 364.74,107.252 365.204,106.52 365.669,106.114 366.133,106.277 366.598,107.008 367.062,107.983 367.526,108.715 367.991,109.202 368.455,109.202 369.013,109.202 369.384,109.365 369.848,109.771 370.313,110.828 370.777,112.128 371.242,113.997 371.706,115.622 372.17,116.598 372.635,117.004 373.099,116.191 373.564,114.16 374.028,111.722 374.492,109.69 374.957,108.633 375.421,108.796 375.885,110.421 376.35,113.266 376.814,115.46 377.325,115.947 377.743,114.322 378.393,110.665 378.672,105.789 379.136,101.482" stroke-width="0.5" fill="none"/>
   <polyline stroke="#ff0000" stroke-linecap="round" stroke-linejoin="round" points="81.2121,110.746 80.6391,112.51 79.1391,113.599 77.285,113.599 75.785,112.51 75.2121,110.746 75.785,108.983 77.285,107.893 79.1391,107.893 80.6391,108.983 81.2121,110.746" stroke-width="0.5" fill="none"/>
   <polyline stroke="#ff0000" stroke-linecap="round" stroke-linejoin="round" points="101.692,161.864 101.119,163.627 99.6187,164.717 97.7646,164.717 96.2646,163.627 95.6916,161.864 96.2646,160.101 97.7646,159.011 99.6187,159.011 101.119,160.101 101.692,161.864" stroke-width="0.5" fill="none"/>
   <polyline stroke="#ff0000" stroke-linecap="round" stroke-linejoin="round" points="112.326,108.552 111.753,110.315 110.253,111.405 108.399,111.405 106.899,110.315 106.326,108.552 106.899,106.789 108.399,105.699 110.253,105.699 111.753,106.789 112.326,108.552" stroke-width="0.5" fill="none"/>
   <polyline stroke="#ff0000" stroke-linecap="round" stroke-linejoin="round" points="134.617,153.412 134.044,155.175 132.544,156.265 130.69,156.265 129.19,155.175 128.617,153.412 129.19,151.649 130.69,150.559 132.544,150.559 134.044,151.649 134.617,153.412" stroke-width="0.5" fill="none"/>
   <polyline stroke="#ff0000" stroke-linecap="round" stroke-linejoin="round" points="143.44,107.658 142.867,109.421 141.367,110.511 139.513,110.511 138.013,109.421 137.44,107.658 138.013,105.895 139.513,104.805 141.367,104.805 142.867,105.895 143.44,107.658" stroke-width="0.5" fill="none"/>
   <polyline stroke="#ff0000" stroke-linecap="round" stroke-linejoin="round" points="166.66,149.43 166.087,151.193 164.587,152.283 162.733,152.283 161.233,151.193 160.66,149.43 161.233,147.667 162.733,146.577 164.587,146.577 166.087,147.667 166.66,149.43" stroke-width="0.5" fill="none"/>
   <polyline stroke="#ff0000" stroke-linecap="round" stroke-linejoin="round" points="175.947,106.764 175.374,108.527 173.874,109.617 172.02,109.617 170.52,108.527 169.947,106.764 170.52,105.001 172.02,103.911 173.874,103.911 175.374,105.001 175.947,106.764" stroke-width="0.5" fill="none"/>
   <polyline stroke="#ff0000" stroke-linecap="round" stroke-linejoin="round" points="199.167,146.504 198.594,148.268 197.094,149.357 195.24,149.357 193.74,148.268 193.167,146.504 193.74,144.741 195.24,143.651 197.094,143.651 198.594,144.741 199.167,146.504" stroke-width="0.5" fill="none"/>
   <polyline stroke="#ff0000" stroke-linecap="round" stroke-linejoin="round" points="207.99,107.17 207.417,108.934 205.917,110.024 204.063,110.024 202.563,108.934 201.99,107.17 202.563,105.407 204.063,104.317 205.917,104.317 207.417,105.407 207.99,107.17" stroke-width="0.5" fill="none"/>
   <polyline stroke="#ff0000" stroke-linecap="round" stroke-linejoin="round" points="231.674,147.154 231.101,148.918 229.601,150.008 227.747,150.008 226.247,148.918 225.674,147.154 226.247,145.391 227.747,144.301 229.601,144.301 231.101,145.391 231.674,147.154" stroke-width="0.5" fill="none"/>
   <polyline stroke="#ff0000" stroke-linecap="round" stroke-linejoin="round" points="240.033,107.008 239.46,108.771 237.96,109.861 236.106,109.861 234.606,108.771 234.033,107.008 234.606,105.245 236.106,104.155 237.96,104.155 239.46,105.245 240.033,107.008" stroke-width="0.5" fill="none"/>
   <polyline stroke="#ff0000" stroke-linecap="round" stroke-linejoin="round" points="263.717,144.716 263.144,146.48 261.644,147.57 259.79,147.57 258.29,146.48 257.717,144.716 258.29,142.953 259.79,141.863 261.644,141.863 263.144,142.953 263.717,144.716" stroke-width="0.5" fill="none"/>
   <polyline stroke="#ff0000" stroke-linecap="round" stroke-linejoin="round" points="272.54,106.845 271.967,108.609 270.467,109.699 268.613,109.699 267.113,108.609 266.54,106.845 267.113,105.082 268.613,103.992 270.467,103.992 271.967,105.082 272.54,106.845" stroke-width="0.5" fill="none"/>
   <polyline stroke="#ff0000" stroke-linecap="round" stroke-linejoin="round" points="295.76,144.391 295.187,146.155 293.687,147.244 291.833,147.244 290.333,146.155 289.76,144.391 290.333,142.628 291.833,141.538 293.687,141.538 295.187,142.628 295.76,144.391" stroke-width="0.5" fill="none"/>
   <polyline stroke="#ff0000" stroke-linecap="round" stroke-linejoin="round" points="304.583,106.52 304.01,108.284 302.51,109.374 300.656,109.374 299.156,108.284 298.583,106.52 299.156,104.757 300.656,103.667 302.51,103.667 304.01,104.757 304.583,106.52" stroke-width="0.5" fill="none"/>
   <polyline stroke="#ff0000" stroke-linecap="round" stroke-linejoin="round" points="328.267,143.741 327.694,145.504 326.194,146.594 324.34,146.594 322.84,145.504 322.267,143.741 322.84,141.978 324.34,140.888 326.194,140.888 327.694,141.978 328.267,143.741" stroke-width="0.5" fill="none"/>
   <polyline stroke="#ff0000" stroke-linecap="round" stroke-linejoin="round" points="336.626,106.277 336.053,108.04 334.553,109.13 332.699,109.13 331.199,108.04 330.626,106.277 331.199,104.513 332.699,103.423 334.553,103.423 336.053,104.513 336.626,106.277" stroke-width="0.5" fill="none"/>
   <polyline stroke="#ff0000" stroke-linecap="round" stroke-linejoin="round" points="360.31,142.034 359.737,143.798 358.237,144.888 356.383,144.888 354.883,143.798 354.31,142.034 354.883,140.271 356.383,139.181 358.237,139.181 359.737,140.271 360.31,142.034" stroke-width="0.5" fill="none"/>
   <polyline stroke="#ff0000" stroke-linecap="round" stroke-linejoin="round" points="368.669,106.114 368.096,107.877 366.596,108.967 364.742,108.967 363.242,107.877 362.669,106.114 363.242,104.351 364.742,103.261 366.596,103.261 368.096,104.351 368.669,106.114" stroke-width="0.5" fill="none"/>
  </g>
 </g>
</svg>
