<?xml version='1.0' encoding='UTF-8' standalone='no'?>
<svg width="419pt" xmlns="http://www.w3.org/2000/svg" height="343pt" viewBox="0 0 419 343" xmlns:xlink="http://www.w3.org/1999/xlink">
 <title>gl2ps_renderer figure</title>
 <desc>
Creator: GL2PS 1.4.2, (C) 1999-2020 C. Geuzaine
For: Octave
CreationDate: Sun Apr  3 10:38:29 2022
</desc>
 <defs/>
 <polygon points="0,0 419,0 419,343 0,343" fill="#ffffff"/>
 <g>
  <polygon points="0,343 419,343 419,0 0,0" shape-rendering="crispEdges" fill="#ffffff"/>
  <clipPath id="cp00419343">
   <polygon points="0,343 419,343 419,0 0,0"/>
  </clipPath>
  <g clip-path="url(#cp00419343)">
   <polygon points="54.5283,141.826 379.601,141.826 379.601,29.1858 54.5283,29.1858" shape-rendering="crispEdges" fill="#ffffff"/>
   <polyline points="54.5283,141.826 54.5283,29.1858" stroke-width="0.5" stroke-dasharray="16,0" stroke="#262626" stroke-linejoin="miter" stroke-linecap="butt" stroke-opacity="0.15" fill="none"/>
   <polyline points="100.967,141.826 100.967,29.1858" stroke-width="0.5" stroke-dasharray="16,0" stroke="#262626" stroke-linejoin="miter" stroke-linecap="butt" stroke-opacity="0.15" fill="none"/>
   <polyline points="147.406,141.826 147.406,29.1858" stroke-width="0.5" stroke-dasharray="16,0" stroke="#262626" stroke-linejoin="miter" stroke-linecap="butt" stroke-opacity="0.15" fill="none"/>
   <polyline points="193.845,141.826 193.845,29.1858" stroke-width="0.5" stroke-dasharray="16,0" stroke="#262626" stroke-linejoin="miter" stroke-linecap="butt" stroke-opacity="0.15" fill="none"/>
   <polyline points="240.284,141.826 240.284,29.1858" stroke-width="0.5" stroke-dasharray="16,0" stroke="#262626" stroke-linejoin="miter" stroke-linecap="butt" stroke-opacity="0.15" fill="none"/>
   <polyline points="286.723,141.826 286.723,29.1858" stroke-width="0.5" stroke-dasharray="16,0" stroke="#262626" stroke-linejoin="miter" stroke-linecap="butt" stroke-opacity="0.15" fill="none"/>
   <polyline points="333.162,141.826 333.162,29.1858" stroke-width="0.5" stroke-dasharray="16,0" stroke="#262626" stroke-linejoin="miter" stroke-linecap="butt" stroke-opacity="0.15" fill="none"/>
   <polyline points="379.601,141.826 379.601,29.1858" stroke-width="0.5" stroke-dasharray="16,0" stroke="#262626" stroke-linejoin="miter" stroke-linecap="butt" stroke-opacity="0.15" fill="none"/>
   <polyline points="54.5283,141.826 54.5283,138.585" stroke-width="0.5" stroke="#262626" stroke-linejoin="miter" stroke-linecap="butt" fill="none"/>
   <polyline points="54.5283,29.1858 54.5283,32.4261" stroke-width="0.5" stroke="#262626" stroke-linejoin="miter" stroke-linecap="butt" fill="none"/>
   <polyline points="100.967,141.826 100.967,138.585" stroke-width="0.5" stroke="#262626" stroke-linejoin="miter" stroke-linecap="butt" fill="none"/>
   <polyline points="100.967,29.1858 100.967,32.4261" stroke-width="0.5" stroke="#262626" stroke-linejoin="miter" stroke-linecap="butt" fill="none"/>
   <polyline points="147.406,141.826 147.406,138.585" stroke-width="0.5" stroke="#262626" stroke-linejoin="miter" stroke-linecap="butt" fill="none"/>
   <polyline points="147.406,29.1858 147.406,32.4261" stroke-width="0.5" stroke="#262626" stroke-linejoin="miter" stroke-linecap="butt" fill="none"/>
   <polyline points="193.845,141.826 193.845,138.585" stroke-width="0.5" stroke="#262626" stroke-linejoin="miter" stroke-linecap="butt" fill="none"/>
   <polyline points="193.845,29.1858 193.845,32.4261" stroke-width="0.5" stroke="#262626" stroke-linejoin="miter" stroke-linecap="butt" fill="none"/>
   <polyline points="240.284,141.826 240.284,138.585" stroke-width="0.5" stroke="#262626" stroke-linejoin="miter" stroke-linecap="butt" fill="none"/>
   <polyline points="240.284,29.1858 240.284,32.4261" stroke-width="0.5" stroke="#262626" stroke-linejoin="miter" stroke-linecap="butt" fill="none"/>
   <polyline points="286.723,141.826 286.723,138.585" stroke-width="0.5" stroke="#262626" stroke-linejoin="miter" stroke-linecap="butt" fill="none"/>
   <polyline points="286.723,29.1858 286.723,32.4261" stroke-width="0.5" stroke="#262626" stroke-linejoin="miter" stroke-linecap="butt" fill="none"/>
   <polyline points="333.162,141.826 333.162,138.585" stroke-width="0.5" stroke="#262626" stroke-linejoin="miter" stroke-linecap="butt" fill="none"/>
   <polyline points="333.162,29.1858 333.162,32.4261" stroke-width="0.5" stroke="#262626" stroke-linejoin="miter" stroke-linecap="butt" fill="none"/>
   <polyline points="379.601,141.826 379.601,138.585" stroke-width="0.5" stroke="#262626" stroke-linejoin="miter" stroke-linecap="butt" fill="none"/>
   <polyline points="379.601,29.1858 379.601,32.4261" stroke-width="0.5" stroke="#262626" stroke-linejoin="miter" stroke-linecap="butt" fill="none"/>
   <text xml:space="preserve" font-family="FreeSans" font-style="normal" font-weight="normal" font-size="10" transform="translate(51.5283,157.302) rotate(-0,3,-8)">
    <tspan x="0 " fill="rgb(38,38,38)" y="-0">2</tspan>
   </text>
   <text xml:space="preserve" font-family="FreeSans" font-style="normal" font-weight="normal" font-size="10" transform="translate(97.9671,157.302) rotate(-0,3,-8)">
    <tspan x="0 " fill="rgb(38,38,38)" y="-0">3</tspan>
   </text>
   <text xml:space="preserve" font-family="FreeSans" font-style="normal" font-weight="normal" font-size="10" transform="translate(144.406,157.302) rotate(-0,3,-8)">
    <tspan x="0 " fill="rgb(38,38,38)" y="-0">4</tspan>
   </text>
   <text xml:space="preserve" font-family="FreeSans" font-style="normal" font-weight="normal" font-size="10" transform="translate(190.845,157.302) rotate(-0,3,-8)">
    <tspan x="0 " fill="rgb(38,38,38)" y="-0">5</tspan>
   </text>
   <text xml:space="preserve" font-family="FreeSans" font-style="normal" font-weight="normal" font-size="10" transform="translate(237.284,157.302) rotate(-0,3,-8)">
    <tspan x="0 " fill="rgb(38,38,38)" y="-0">6</tspan>
   </text>
   <text xml:space="preserve" font-family="FreeSans" font-style="normal" font-weight="normal" font-size="10" transform="translate(283.723,157.302) rotate(-0,3,-8)">
    <tspan x="0 " fill="rgb(38,38,38)" y="-0">7</tspan>
   </text>
   <text xml:space="preserve" font-family="FreeSans" font-style="normal" font-weight="normal" font-size="10" transform="translate(330.162,157.302) rotate(-0,3,-8)">
    <tspan x="0 " fill="rgb(38,38,38)" y="-0">8</tspan>
   </text>
   <text xml:space="preserve" font-family="FreeSans" font-style="normal" font-weight="normal" font-size="10" transform="translate(376.601,157.302) rotate(-0,3,-8)">
    <tspan x="0 " fill="rgb(38,38,38)" y="-0">9</tspan>
   </text>
   <polyline points="54.5283,141.826 379.601,141.826" stroke-width="0.5" stroke-dasharray="16,0" stroke="#262626" stroke-linejoin="miter" stroke-linecap="butt" stroke-opacity="0.15" fill="none"/>
   <polyline points="54.5283,113.666 379.601,113.666" stroke-width="0.5" stroke-dasharray="16,0" stroke="#262626" stroke-linejoin="miter" stroke-linecap="butt" stroke-opacity="0.15" fill="none"/>
   <polyline points="54.5283,85.5057 379.601,85.5057" stroke-width="0.5" stroke-dasharray="16,0" stroke="#262626" stroke-linejoin="miter" stroke-linecap="butt" stroke-opacity="0.15" fill="none"/>
   <polyline points="54.5283,57.3458 379.601,57.3458" stroke-width="0.5" stroke-dasharray="16,0" stroke="#262626" stroke-linejoin="miter" stroke-linecap="butt" stroke-opacity="0.15" fill="none"/>
   <polyline points="54.5283,29.1858 379.601,29.1858" stroke-width="0.5" stroke-dasharray="16,0" stroke="#262626" stroke-linejoin="miter" stroke-linecap="butt" stroke-opacity="0.15" fill="none"/>
   <polyline points="54.5283,141.826 57.7797,141.826" stroke-width="0.5" stroke="#262626" stroke-linejoin="miter" stroke-linecap="butt" fill="none"/>
   <polyline points="379.601,141.826 376.349,141.826" stroke-width="0.5" stroke="#262626" stroke-linejoin="miter" stroke-linecap="butt" fill="none"/>
   <polyline points="54.5283,113.666 57.7797,113.666" stroke-width="0.5" stroke="#262626" stroke-linejoin="miter" stroke-linecap="butt" fill="none"/>
   <polyline points="379.601,113.666 376.349,113.666" stroke-width="0.5" stroke="#262626" stroke-linejoin="miter" stroke-linecap="butt" fill="none"/>
   <polyline points="54.5283,85.5057 57.7797,85.5057" stroke-width="0.5" stroke="#262626" stroke-linejoin="miter" stroke-linecap="butt" fill="none"/>
   <polyline points="379.601,85.5057 376.349,85.5057" stroke-width="0.5" stroke="#262626" stroke-linejoin="miter" stroke-linecap="butt" fill="none"/>
   <polyline points="54.5283,57.3458 57.7797,57.3458" stroke-width="0.5" stroke="#262626" stroke-linejoin="miter" stroke-linecap="butt" fill="none"/>
   <polyline points="379.601,57.3458 376.349,57.3458" stroke-width="0.5" stroke="#262626" stroke-linejoin="miter" stroke-linecap="butt" fill="none"/>
   <polyline points="54.5283,29.1858 57.7797,29.1858" stroke-width="0.5" stroke="#262626" stroke-linejoin="miter" stroke-linecap="butt" fill="none"/>
   <polyline points="379.601,29.1858 376.349,29.1858" stroke-width="0.5" stroke="#262626" stroke-linejoin="miter" stroke-linecap="butt" fill="none"/>
   <text xml:space="preserve" font-family="FreeSans" font-style="normal" font-weight="normal" font-size="10" transform="translate(43.5271,145.826) rotate(-0,6,-4)">
    <tspan x="0 " fill="rgb(38,38,38)" y="-0">4</tspan>
   </text>
   <text xml:space="preserve" font-family="FreeSans" font-style="normal" font-weight="normal" font-size="10" transform="translate(34.5271,117.666) rotate(-0,15,-4)">
    <tspan x="0 6 9 " fill="rgb(38,38,38)" y="-0">4.5</tspan>
   </text>
   <text xml:space="preserve" font-family="FreeSans" font-style="normal" font-weight="normal" font-size="10" transform="translate(43.5271,89.5057) rotate(-0,6,-4)">
    <tspan x="0 " fill="rgb(38,38,38)" y="-0">5</tspan>
   </text>
   <text xml:space="preserve" font-family="FreeSans" font-style="normal" font-weight="normal" font-size="10" transform="translate(34.5271,61.3458) rotate(-0,15,-4)">
    <tspan x="0 6 9 " fill="rgb(38,38,38)" y="-0">5.5</tspan>
   </text>
   <text xml:space="preserve" font-family="FreeSans" font-style="normal" font-weight="normal" font-size="10" transform="translate(43.5271,33.1858) rotate(-0,6,-4)">
    <tspan x="0 " fill="rgb(38,38,38)" y="-0">6</tspan>
   </text>
   <polyline points="54.5283,141.826 379.601,141.826" stroke-width="0.5" stroke-dasharray="16,0" stroke="#262626" stroke-linejoin="miter" stroke-linecap="square" fill="none"/>
   <polyline points="54.5283,29.1858 379.601,29.1858" stroke-width="0.5" stroke-dasharray="16,0" stroke="#262626" stroke-linejoin="miter" stroke-linecap="square" fill="none"/>
   <polyline points="54.5283,141.826 54.5283,29.1858" stroke-width="0.5" stroke-dasharray="16,0" stroke="#262626" stroke-linejoin="miter" stroke-linecap="square" fill="none"/>
   <polyline points="379.601,141.826 379.601,29.1858" stroke-width="0.5" stroke-dasharray="16,0" stroke="#262626" stroke-linejoin="miter" stroke-linecap="square" fill="none"/>
   <text xml:space="preserve" font-family="FreeSans" font-style="normal" font-weight="normal" font-size="11" transform="translate(-5.97286,85.5057) rotate(-90,35.5,0)">
    <tspan x="0 7 11 17 22 27 29 35 41 44 48 54 61 67 " fill="rgb(38,38,38)" y="-3">Pression (hPa)</tspan>
   </text>
   <polyline points="54.9927,55.6562 55.457,53.9666 55.9214,54.5298 56.3858,58.4722 56.8502,64.1042 57.3146,69.1729 57.779,72.5522 58.2434,74.2418 58.7078,74.805 59.1722,73.1154 59.6365,70.8625 60.1009,70.2993 60.5653,69.1729 61.0297,66.9202 61.4941,65.2306 61.9585,65.7938 62.5622,66.3569 62.8873,66.9202 63.3517,65.7938 63.816,65.7938 64.2804,66.3569 64.7448,67.4833 65.2092,70.2993 65.6736,73.6786 66.138,74.805 66.6024,75.9313 67.0668,75.9313 67.5312,77.6209 67.9956,81.0002 68.4599,85.5057 68.9243,91.1377 69.3887,96.7697 69.8531,101.839 70.3175,105.218 70.7819,108.597 71.2463,111.413 71.8035,113.666 72.1751,117.045 72.6395,119.861 73.1038,122.677 73.5682,123.803 74.0326,123.803 74.497,124.367 74.9614,125.493 75.4722,127.182 75.8902,127.746 76.401,128.309 76.8189,128.309 77.2833,126.619 77.7477,126.056 78.2121,124.367 78.6765,123.24 79.1409,122.114 79.6053,120.987 80.0697,118.171 80.534,115.919 81.1378,111.976 81.4628,105.781 81.9272,100.149 82.3916,94.5169 82.856,91.1377 83.3204,88.8849 83.7848,88.8849 84.2492,90.5745 84.7136,91.7009 85.1779,91.7009 85.6423,89.4482 86.1067,83.2529 86.5711,75.3682 87.0355,68.6097 87.4999,62.9778 87.9643,61.8513 88.4287,64.1042 88.8931,69.1729 89.3575,74.2418 89.8218,77.0577 90.3791,77.6209 90.7506,75.9313 91.215,73.1154 91.6794,68.6097 92.1438,64.1042 92.6082,59.5985 93.0726,55.6562 93.5369,52.8402 94.0013,51.1506 94.4657,50.5874 94.9301,51.1506 95.3945,51.7138 95.8589,51.7138 96.3233,52.8402 96.7877,53.9666 97.2521,56.2194 97.7165,57.909 98.1808,60.1618 98.6917,61.8513 99.1096,64.6674 99.7598,68.6097 100.038,73.6786 100.503,78.1841 100.967,83.2529 101.432,87.7585 101.896,92.8273 102.36,97.8961 102.825,102.965 103.289,107.471 103.754,113.102 104.218,118.171 104.682,122.114 105.147,124.93 105.611,126.619 106.075,127.182 106.54,127.182 107.004,128.309 107.469,128.872 107.933,129.435 108.397,129.998 108.955,129.998 109.326,129.435 109.791,128.872 110.255,128.309 110.719,128.309 111.184,126.619 111.648,126.056 112.113,124.367 112.577,121.55 113.041,118.735 113.506,113.666 113.97,108.034 114.434,102.965 114.899,98.4593 115.363,96.2065 115.828,96.2065 116.292,96.7697 116.756,98.4593 117.221,98.4593 117.685,96.2065 118.15,91.1377 118.614,84.3793 119.078,75.9313 119.543,69.7361 120.007,66.9202 120.472,68.0466 120.936,73.1154 121.4,77.6209 121.911,81.5633 122.329,82.6897 122.84,81.5633 123.258,79.3105 123.722,75.3682 124.187,70.8625 124.651,66.3569 125.115,62.9778 125.58,59.0354 126.044,57.3458 126.509,55.6562 126.973,54.5298 127.437,54.5298 127.902,54.5298 128.366,54.5298 128.831,56.2194 129.295,57.909 129.759,59.0354 130.224,60.7249 130.688,62.9778 131.152,64.6674 131.617,68.0466 132.081,71.989 132.546,77.0577 133.01,82.6897 133.474,87.7585 133.939,92.2641 134.403,96.7697 134.868,101.839 135.332,107.471 135.796,113.666 136.261,119.298 136.725,123.24 137.19,125.493 137.654,127.182 138.118,128.309 138.583,129.435 139.047,131.688 139.511,133.378 139.976,134.504 140.44,134.504 140.905,134.504 141.369,133.378 141.833,132.814 142.298,132.814 142.762,132.814 143.227,132.814 143.691,130.562 144.155,128.872 144.62,127.182 145.084,123.24 145.549,118.735 146.106,114.229 146.477,108.597 146.942,103.528 147.406,100.149 147.87,98.4593 148.335,99.0225 148.799,100.149 149.264,101.275 149.728,100.712 150.192,96.7697 150.657,90.5745 151.121,82.1265 151.586,74.805 152.05,70.2993 152.514,69.7361 152.979,73.6786 153.443,78.7473 153.908,82.1265 154.372,83.8161 154.836,83.8161 155.394,81.5633 155.765,78.7473 156.229,74.805 156.694,70.2993 157.158,66.3569 157.623,62.4146 158.087,59.5985 158.551,57.3458 159.016,56.2194 159.48,56.2194 159.945,55.6562 160.409,55.093 160.873,56.2194 161.338,57.3458 161.802,59.0354 162.267,60.1618 162.731,61.8513 163.195,64.1042 163.66,66.9202 164.124,70.2993 164.588,74.805 165.053,79.3105 165.517,84.9425 165.982,89.4482 166.446,95.6433 166.91,100.712 167.375,106.344 167.839,112.539 168.35,118.735 168.768,122.677 169.279,125.493 169.697,127.746 170.161,129.435 170.626,131.125 171.09,132.814 171.554,134.504 172.019,136.194 172.483,137.32 172.947,137.32 173.412,136.194 174.062,136.194 174.341,135.63 174.805,135.067 175.269,134.504 175.734,133.941 176.198,132.251 176.663,130.562 177.127,128.309 177.591,124.367 178.056,118.735 178.52,113.102 178.985,106.907 179.449,102.402 179.913,100.712 180.378,100.712 180.842,102.402 181.306,104.091 181.771,103.528 182.235,100.712 182.7,94.5169 183.257,86.6321 183.628,78.7473 184.093,72.5522 184.557,71.4258 185.022,74.2418 185.486,79.3105 185.95,84.3793 186.415,86.6321 186.879,86.6321 187.344,85.5057 187.808,82.1265 188.272,78.1841 188.737,73.6786 189.201,69.1729 189.665,65.7938 190.13,63.541 190.594,61.8513 191.059,59.5985 191.523,57.909 191.987,56.7825 192.545,56.2194 192.916,56.7825 193.381,57.909 193.845,59.5985 194.309,60.1618 194.774,61.8513 195.238,62.9778 195.703,65.2306 196.167,68.0466 196.631,72.5522 197.096,78.1841 197.56,83.2529 198.024,88.8849 198.489,93.9537 198.953,99.0225 199.418,104.091 199.882,110.85 200.346,116.482 200.811,121.55 201.275,125.493 201.925,127.746 202.204,128.872 202.668,129.435 203.133,131.125 203.597,132.814 204.062,133.941 204.526,135.63 204.99,135.63 205.455,135.63 205.919,135.63 206.383,135.067 206.848,135.067 207.312,135.63 207.777,135.067 208.241,133.378 208.705,132.251 209.17,130.562 209.634,126.619 210.099,122.114 210.563,117.045 211.12,110.85 211.492,105.781 211.956,102.965 212.421,101.839 212.885,101.839 213.349,103.528 213.814,103.528 214.278,102.402 214.742,97.3329 215.253,90.5745 215.718,82.6897 216.136,75.9313 216.6,71.989 217.064,73.1154 217.529,77.0577 217.993,82.1265 218.458,85.5057 218.922,86.6321 219.386,86.0689 219.851,83.2529 220.408,79.8737 220.78,76.4946 221.244,71.4258 221.708,67.4833 222.173,64.1042 222.637,61.2881 223.101,59.0354 223.566,57.3458 224.03,55.6562 224.495,55.093 224.959,55.093 225.423,56.2194 225.888,57.909 226.352,59.0354 226.817,60.1618 227.281,61.8513 227.745,63.541 228.21,66.9202 228.674,70.2993 229.139,75.9313 229.696,81.5633 230.067,87.7585 230.532,92.8273 230.996,97.3329 231.46,102.402 231.925,108.597 232.389,115.355 232.854,120.987 233.318,125.493 233.782,127.746 234.247,129.998 234.711,131.688 235.176,133.941 235.64,135.63 236.104,137.32 236.569,139.01 237.033,139.01 237.498,139.01 237.962,137.883 238.426,137.32 239.076,136.757 239.355,136.194 239.819,136.194 240.284,135.63 240.748,135.067 241.213,132.814 241.677,129.998 242.141,126.056 242.606,120.424 243.07,115.355 243.535,110.85 243.999,108.597 244.463,106.907 244.928,106.344 245.392,106.907 245.857,108.034 246.321,107.471 246.785,105.218 247.25,98.4593 247.714,90.5745 248.411,82.1265 248.643,76.4946 249.107,74.2418 249.572,76.4946 250.036,82.1265 250.5,86.0689 250.965,88.8849 251.429,88.8849 251.894,86.0689 252.358,82.6897 252.822,78.7473 253.287,74.2418 253.751,69.7361 254.216,65.7938 254.68,62.9778 255.144,61.2881 255.609,60.1618 256.073,57.909 256.537,56.7825 257.002,55.6562 257.559,55.6562 257.931,57.3458 258.395,59.0354 258.859,60.7249 259.324,61.8513 259.788,63.541 260.253,65.2306 260.717,68.0466 261.228,72.5522 261.692,77.6209 262.157,83.2529 262.575,88.8849 263.039,93.9537 263.503,99.0225 263.968,104.091 264.432,111.413 264.896,117.608 265.361,122.677 265.825,126.619 266.29,128.309 266.847,129.998 267.218,131.688 267.683,133.941 268.147,136.757 268.612,137.883 269.076,139.01 269.54,139.01 270.005,139.01 270.469,137.883 270.934,137.32 271.398,137.883 271.862,137.32 272.327,136.757 272.791,135.63 273.255,133.941 273.72,131.125 274.184,127.182 274.649,122.677 275.113,116.482 275.577,111.976 276.042,106.907 276.506,104.655 276.971,103.528 277.435,104.655 277.899,105.781 278.364,105.781 278.828,103.528 279.293,97.3329 279.757,88.8849 280.221,81.0002 280.686,74.805 281.15,73.1154 281.615,76.4946 282.079,82.1265 282.543,87.1953 283.008,89.4482 283.472,89.4482 283.936,87.7585 284.447,83.2529 284.865,79.3105 285.562,74.2418 285.794,69.7361 286.258,65.2306 286.723,62.9778 287.187,60.7249 287.652,59.5985 288.116,57.3458 288.58,56.2194 289.045,56.2194 289.509,57.3458 289.974,58.4722 290.438,59.0354 290.902,60.1618 291.367,61.2881 291.831,62.4146 292.295,64.6674 292.76,68.6097 293.224,73.1154 293.689,78.7473 294.153,84.3793 294.617,89.4482 295.082,93.9537 295.546,98.4593 296.011,104.091 296.475,109.723 296.939,115.355 297.404,120.987 297.868,124.367 298.332,127.182 298.797,128.872 299.261,131.125 299.726,132.814 300.19,136.194 300.654,137.883 301.119,139.01 301.583,139.01 302.048,139.01 302.512,137.32 302.976,136.757 303.441,136.194 304.044,135.63 304.37,135.63 304.834,135.067 305.298,134.504 305.763,131.688 306.227,127.182 306.691,122.677 307.156,116.482 307.667,110.85 308.085,106.907 308.596,104.091 309.013,104.091 309.478,104.655 309.942,106.344 310.407,106.907 310.871,104.091 311.335,98.4593 311.8,90.5745 312.264,82.1265 312.729,74.805 313.193,72.5522 313.657,74.805 314.122,80.4369 314.586,86.6321 315.051,89.4482 315.515,90.0113 315.979,88.3217 316.444,84.3793 316.908,79.8737 317.372,76.4946 317.837,71.989 318.301,68.0466 318.766,64.1042 319.23,62.4146 319.694,60.7249 320.159,58.4722 320.623,56.7825 321.088,56.2194 321.552,56.2194 322.016,57.3458 322.666,59.0354 322.945,60.1618 323.409,61.2881 323.874,62.4146 324.338,64.6674 324.803,67.4833 325.267,71.989 325.731,78.1841 326.196,83.8161 326.66,88.8849 327.125,93.9537 327.589,98.4593 328.053,104.091 328.518,110.287 328.982,117.045 329.447,122.114 329.911,126.056 330.375,128.309 330.84,129.998 331.304,132.251 331.954,133.941 332.233,136.757 332.697,138.446 333.162,140.136 333.626,140.699 334.09,140.136 334.555,139.573 335.019,139.573 335.484,139.01 335.948,139.01 336.412,139.01 336.877,137.32 337.341,136.194 337.806,133.378 338.27,129.998 338.734,125.493 339.199,119.861 339.663,113.666 340.128,108.597 340.592,105.218 341.056,105.218 341.521,106.344 341.985,107.471 342.449,107.471 342.914,105.218 343.378,99.5857 343.843,91.1377 344.307,82.6897 344.771,76.4946 345.236,74.805 345.7,77.0577 346.165,82.1265 346.629,87.7585 347.093,90.5745 347.558,90.5745 348.022,88.3217 348.487,83.8161 348.951,79.8737 349.415,75.3682 349.88,71.4258 350.344,68.0466 350.808,64.6674 351.273,62.4146 351.737,60.7249 352.202,59.5985 352.666,57.909 353.13,56.7825 353.595,57.3458 354.106,59.0354 354.524,60.1618 355.034,61.2881 355.452,62.4146 355.917,64.1042 356.381,65.7938 356.846,69.1729 357.31,72.5522 357.774,78.1841 358.239,83.2529 358.703,88.8849 359.167,93.9537 359.632,99.0225 360.096,104.655 360.561,111.413 361.025,117.608 361.489,123.24 361.954,126.619 362.418,128.309 362.883,129.435 363.347,131.688 363.811,133.941 364.276,136.757 364.74,139.01 365.204,140.136 365.669,140.699 366.133,140.136 366.598,139.573 367.062,139.01 367.526,139.01 367.991,139.01 368.455,139.01 369.013,137.32 369.384,136.194 369.848,133.378 370.313,129.998 370.777,124.93 371.242,119.298 371.706,113.102 372.17,108.034 372.635,105.218 373.099,105.218 373.564,105.781 374.028,107.471 374.492,108.597 374.957,108.034 375.421,104.655 375.885,100.149 376.35,95.0801 376.814,92.8273 377.325,93.9537 377.743,100.712 378.393,110.287 378.672,120.424 379.136,129.435" stroke-width="0.5" stroke="#0071bc" stroke-linejoin="round" stroke-linecap="butt" fill="none"/>
  </g>
  <clipPath id="cp00419343">
   <polygon points="0,343 419,343 419,0 0,0"/>
  </clipPath>
  <g clip-path="url(#cp00419343)">
   <polygon points="54.5283,305.313 379.601,305.313 379.601,192.673 54.5283,192.673" shape-rendering="crispEdges" fill="#ffffff"/>
   <polyline points="54.5283,305.313 54.5283,192.673" stroke-width="0.5" stroke-dasharray="16,0" stroke="#262626" stroke-linejoin="miter" stroke-linecap="butt" stroke-opacity="0.15" fill="none"/>
   <polyline points="100.967,305.313 100.967,192.673" stroke-width="0.5" stroke-dasharray="16,0" stroke="#262626" stroke-linejoin="miter" stroke-linecap="butt" stroke-opacity="0.15" fill="none"/>
   <polyline points="147.406,305.313 147.406,192.673" stroke-width="0.5" stroke-dasharray="16,0" stroke="#262626" stroke-linejoin="miter" stroke-linecap="butt" stroke-opacity="0.15" fill="none"/>
   <polyline points="193.845,305.313 193.845,192.673" stroke-width="0.5" stroke-dasharray="16,0" stroke="#262626" stroke-linejoin="miter" stroke-linecap="butt" stroke-opacity="0.15" fill="none"/>
   <polyline points="240.284,305.313 240.284,192.673" stroke-width="0.5" stroke-dasharray="16,0" stroke="#262626" stroke-linejoin="miter" stroke-linecap="butt" stroke-opacity="0.15" fill="none"/>
   <polyline points="286.723,305.313 286.723,192.673" stroke-width="0.5" stroke-dasharray="16,0" stroke="#262626" stroke-linejoin="miter" stroke-linecap="butt" stroke-opacity="0.15" fill="none"/>
   <polyline points="333.162,305.313 333.162,192.673" stroke-width="0.5" stroke-dasharray="16,0" stroke="#262626" stroke-linejoin="miter" stroke-linecap="butt" stroke-opacity="0.15" fill="none"/>
   <polyline points="379.601,305.313 379.601,192.673" stroke-width="0.5" stroke-dasharray="16,0" stroke="#262626" stroke-linejoin="miter" stroke-linecap="butt" stroke-opacity="0.15" fill="none"/>
   <polyline points="54.5283,305.313 54.5283,302.073" stroke-width="0.5" stroke="#262626" stroke-linejoin="miter" stroke-linecap="butt" fill="none"/>
   <polyline points="54.5283,192.673 54.5283,195.914" stroke-width="0.5" stroke="#262626" stroke-linejoin="miter" stroke-linecap="butt" fill="none"/>
   <polyline points="100.967,305.313 100.967,302.073" stroke-width="0.5" stroke="#262626" stroke-linejoin="miter" stroke-linecap="butt" fill="none"/>
   <polyline points="100.967,192.673 100.967,195.914" stroke-width="0.5" stroke="#262626" stroke-linejoin="miter" stroke-linecap="butt" fill="none"/>
   <polyline points="147.406,305.313 147.406,302.073" stroke-width="0.5" stroke="#262626" stroke-linejoin="miter" stroke-linecap="butt" fill="none"/>
   <polyline points="147.406,192.673 147.406,195.914" stroke-width="0.5" stroke="#262626" stroke-linejoin="miter" stroke-linecap="butt" fill="none"/>
   <polyline points="193.845,305.313 193.845,302.073" stroke-width="0.5" stroke="#262626" stroke-linejoin="miter" stroke-linecap="butt" fill="none"/>
   <polyline points="193.845,192.673 193.845,195.914" stroke-width="0.5" stroke="#262626" stroke-linejoin="miter" stroke-linecap="butt" fill="none"/>
   <polyline points="240.284,305.313 240.284,302.073" stroke-width="0.5" stroke="#262626" stroke-linejoin="miter" stroke-linecap="butt" fill="none"/>
   <polyline points="240.284,192.673 240.284,195.914" stroke-width="0.5" stroke="#262626" stroke-linejoin="miter" stroke-linecap="butt" fill="none"/>
   <polyline points="286.723,305.313 286.723,302.073" stroke-width="0.5" stroke="#262626" stroke-linejoin="miter" stroke-linecap="butt" fill="none"/>
   <polyline points="286.723,192.673 286.723,195.914" stroke-width="0.5" stroke="#262626" stroke-linejoin="miter" stroke-linecap="butt" fill="none"/>
   <polyline points="333.162,305.313 333.162,302.073" stroke-width="0.5" stroke="#262626" stroke-linejoin="miter" stroke-linecap="butt" fill="none"/>
   <polyline points="333.162,192.673 333.162,195.914" stroke-width="0.5" stroke="#262626" stroke-linejoin="miter" stroke-linecap="butt" fill="none"/>
   <polyline points="379.601,305.313 379.601,302.073" stroke-width="0.5" stroke="#262626" stroke-linejoin="miter" stroke-linecap="butt" fill="none"/>
   <polyline points="379.601,192.673 379.601,195.914" stroke-width="0.5" stroke="#262626" stroke-linejoin="miter" stroke-linecap="butt" fill="none"/>
   <text xml:space="preserve" font-family="FreeSans" font-style="normal" font-weight="normal" font-size="10" transform="translate(51.5283,320.789) rotate(-0,3,-8)">
    <tspan x="0 " fill="rgb(38,38,38)" y="-0">2</tspan>
   </text>
   <text xml:space="preserve" font-family="FreeSans" font-style="normal" font-weight="normal" font-size="10" transform="translate(97.9671,320.789) rotate(-0,3,-8)">
    <tspan x="0 " fill="rgb(38,38,38)" y="-0">3</tspan>
   </text>
   <text xml:space="preserve" font-family="FreeSans" font-style="normal" font-weight="normal" font-size="10" transform="translate(144.406,320.789) rotate(-0,3,-8)">
    <tspan x="0 " fill="rgb(38,38,38)" y="-0">4</tspan>
   </text>
   <text xml:space="preserve" font-family="FreeSans" font-style="normal" font-weight="normal" font-size="10" transform="translate(190.845,320.789) rotate(-0,3,-8)">
    <tspan x="0 " fill="rgb(38,38,38)" y="-0">5</tspan>
   </text>
   <text xml:space="preserve" font-family="FreeSans" font-style="normal" font-weight="normal" font-size="10" transform="translate(237.284,320.789) rotate(-0,3,-8)">
    <tspan x="0 " fill="rgb(38,38,38)" y="-0">6</tspan>
   </text>
   <text xml:space="preserve" font-family="FreeSans" font-style="normal" font-weight="normal" font-size="10" transform="translate(283.723,320.789) rotate(-0,3,-8)">
    <tspan x="0 " fill="rgb(38,38,38)" y="-0">7</tspan>
   </text>
   <text xml:space="preserve" font-family="FreeSans" font-style="normal" font-weight="normal" font-size="10" transform="translate(330.162,320.789) rotate(-0,3,-8)">
    <tspan x="0 " fill="rgb(38,38,38)" y="-0">8</tspan>
   </text>
   <text xml:space="preserve" font-family="FreeSans" font-style="normal" font-weight="normal" font-size="10" transform="translate(376.601,320.789) rotate(-0,3,-8)">
    <tspan x="0 " fill="rgb(38,38,38)" y="-0">9</tspan>
   </text>
   <polyline points="54.5283,305.313 379.601,305.313" stroke-width="0.5" stroke-dasharray="16,0" stroke="#262626" stroke-linejoin="miter" stroke-linecap="butt" stroke-opacity="0.15" fill="none"/>
   <polyline points="54.5283,277.153 379.601,277.153" stroke-width="0.5" stroke-dasharray="16,0" stroke="#262626" stroke-linejoin="miter" stroke-linecap="butt" stroke-opacity="0.15" fill="none"/>
   <polyline points="54.5283,248.993 379.601,248.993" stroke-width="0.5" stroke-dasharray="16,0" stroke="#262626" stroke-linejoin="miter" stroke-linecap="butt" stroke-opacity="0.15" fill="none"/>
   <polyline points="54.5283,220.833 379.601,220.833" stroke-width="0.5" stroke-dasharray="16,0" stroke="#262626" stroke-linejoin="miter" stroke-linecap="butt" stroke-opacity="0.15" fill="none"/>
   <polyline points="54.5283,192.673 379.601,192.673" stroke-width="0.5" stroke-dasharray="16,0" stroke="#262626" stroke-linejoin="miter" stroke-linecap="butt" stroke-opacity="0.15" fill="none"/>
   <polyline points="54.5283,305.313 57.7797,305.313" stroke-width="0.5" stroke="#262626" stroke-linejoin="miter" stroke-linecap="butt" fill="none"/>
   <polyline points="379.601,305.313 376.349,305.313" stroke-width="0.5" stroke="#262626" stroke-linejoin="miter" stroke-linecap="butt" fill="none"/>
   <polyline points="54.5283,277.153 57.7797,277.153" stroke-width="0.5" stroke="#262626" stroke-linejoin="miter" stroke-linecap="butt" fill="none"/>
   <polyline points="379.601,277.153 376.349,277.153" stroke-width="0.5" stroke="#262626" stroke-linejoin="miter" stroke-linecap="butt" fill="none"/>
   <polyline points="54.5283,248.993 57.7797,248.993" stroke-width="0.5" stroke="#262626" stroke-linejoin="miter" stroke-linecap="butt" fill="none"/>
   <polyline points="379.601,248.993 376.349,248.993" stroke-width="0.5" stroke="#262626" stroke-linejoin="miter" stroke-linecap="butt" fill="none"/>
   <polyline points="54.5283,220.833 57.7797,220.833" stroke-width="0.5" stroke="#262626" stroke-linejoin="miter" stroke-linecap="butt" fill="none"/>
   <polyline points="379.601,220.833 376.349,220.833" stroke-width="0.5" stroke="#262626" stroke-linejoin="miter" stroke-linecap="butt" fill="none"/>
   <polyline points="54.5283,192.673 57.7797,192.673" stroke-width="0.5" stroke="#262626" stroke-linejoin="miter" stroke-linecap="butt" fill="none"/>
   <polyline points="379.601,192.673 376.349,192.673" stroke-width="0.5" stroke="#262626" stroke-linejoin="miter" stroke-linecap="butt" fill="none"/>
   <text xml:space="preserve" font-family="FreeSans" font-style="normal" font-weight="normal" font-size="10" transform="translate(34.5271,309.313) rotate(-0,15,-4)">
    <tspan x="0 3 9 " fill="rgb(38,38,38)" y="-0">-15</tspan>
   </text>
   <text xml:space="preserve" font-family="FreeSans" font-style="normal" font-weight="normal" font-size="10" transform="translate(34.5271,281.153) rotate(-0,15,-4)">
    <tspan x="0 3 9 " fill="rgb(38,38,38)" y="-0">-10</tspan>
   </text>
   <text xml:space="preserve" font-family="FreeSans" font-style="normal" font-weight="normal" font-size="10" transform="translate(40.5271,252.993) rotate(-0,9,-4)">
    <tspan x="0 3 " fill="rgb(38,38,38)" y="-0">-5</tspan>
   </text>
   <text xml:space="preserve" font-family="FreeSans" font-style="normal" font-weight="normal" font-size="10" transform="translate(43.5271,224.833) rotate(-0,6,-4)">
    <tspan x="0 " fill="rgb(38,38,38)" y="-0">0</tspan>
   </text>
   <text xml:space="preserve" font-family="FreeSans" font-style="normal" font-weight="normal" font-size="10" transform="translate(43.5271,196.673) rotate(-0,6,-4)">
    <tspan x="0 " fill="rgb(38,38,38)" y="-0">5</tspan>
   </text>
   <polyline points="54.5283,305.313 379.601,305.313" stroke-width="0.5" stroke-dasharray="16,0" stroke="#262626" stroke-linejoin="miter" stroke-linecap="square" fill="none"/>
   <polyline points="54.5283,192.673 379.601,192.673" stroke-width="0.5" stroke-dasharray="16,0" stroke="#262626" stroke-linejoin="miter" stroke-linecap="square" fill="none"/>
   <polyline points="54.5283,305.313 54.5283,192.673" stroke-width="0.5" stroke-dasharray="16,0" stroke="#262626" stroke-linejoin="miter" stroke-linecap="square" fill="none"/>
   <polyline points="379.601,305.313 379.601,192.673" stroke-width="0.5" stroke-dasharray="16,0" stroke="#262626" stroke-linejoin="miter" stroke-linecap="square" fill="none"/>
   <text xml:space="preserve" font-family="FreeSans" font-style="normal" font-weight="normal" font-size="11" transform="translate(4.52714,248.993) rotate(-90,25,0)">
    <tspan x="0 8 14 20 22 25 28 32 34 37 46 " fill="rgb(38,38,38)" y="-3">Débit (l/m)</tspan>
   </text>
   <text xml:space="preserve" font-family="FreeSans" font-style="normal" font-weight="normal" font-size="11" transform="translate(192.564,337.789) rotate(-0,24.5,-12)">
    <tspan x="0 7 13 22 28 33 36 40 45 " fill="rgb(38,38,38)" y="-3">Temps (s)</tspan>
   </text>
   <polyline points="54.9927,303.398 55.457,303.398 55.9214,302.892 56.3858,301.652 56.8502,299.625 57.3146,297.034 57.779,294.049 58.2434,291.233 58.7078,288.868 59.1722,287.347 59.6365,286.221 60.1009,284.813 60.5653,283.405 61.0297,282.391 61.4941,281.434 61.9585,279.913 62.5622,278.392 62.8873,277.604 63.3517,277.66 63.816,276.984 64.2804,276.083 64.7448,275.576 65.2092,275.013 65.6736,273.999 66.138,272.591 66.6024,271.296 67.0668,270.001 67.5312,268.705 67.9956,267.016 68.4599,264.707 68.9243,261.834 69.3887,258.455 69.8531,254.569 70.3175,250.57 70.7819,246.177 71.2463,241.728 71.8035,237.335 72.1751,233.111 72.6395,229.056 73.1038,225.339 73.5682,222.467 74.0326,220.383 74.497,218.468 74.9614,216.666 75.4722,215.201 75.8902,213.793 76.401,212.78 76.8189,211.766 77.2833,211.315 77.7477,211.09 78.2121,211.034 78.6765,211.315 79.1409,211.372 79.6053,211.428 80.0697,211.315 80.534,211.653 81.1378,212.273 81.4628,213.005 81.9272,214.3 82.3916,215.427 82.856,216.384 83.3204,216.497 83.7848,216.384 84.2492,215.652 84.7136,214.526 85.1779,213.793 85.6423,214.019 86.1067,215.539 86.5711,218.243 87.0355,221.566 87.4999,224.607 87.9643,226.747 88.4287,227.198 88.8931,226.127 89.3575,223.931 89.8218,221.622 90.3791,220.27 90.7506,219.932 91.215,221.059 91.6794,223.086 92.1438,225.508 92.6082,227.817 93.0726,229.732 93.5369,231.253 94.0013,232.661 94.4657,234.012 94.9301,235.364 95.3945,236.772 95.8589,238.63 96.3233,240.489 96.7877,242.179 97.2521,243.699 97.7165,244.995 98.1808,246.121 98.6917,246.459 99.1096,246.403 99.7598,245.952 100.038,245.051 100.503,243.587 100.967,241.728 101.432,239.025 101.896,235.814 102.36,232.154 102.825,228.155 103.289,224.1 103.754,220.101 104.218,216.891 104.682,214.413 105.147,212.836 105.611,211.879 106.075,211.484 106.54,211.428 107.004,211.315 107.469,210.921 107.933,210.414 108.397,209.964 108.955,209.738 109.326,209.513 109.791,209.513 110.255,209.738 110.719,209.907 111.184,210.133 111.648,210.245 112.113,210.414 112.577,210.752 113.041,211.259 113.506,212.104 113.97,213.343 114.434,214.582 114.899,215.427 115.363,215.652 115.828,215.201 116.292,214.357 116.756,213.005 117.221,211.935 117.685,211.879 118.15,212.892 118.614,215.089 119.078,218.074 119.543,221.284 120.007,223.649 120.472,224.55 120.936,223.818 121.4,222.241 121.911,220.326 122.329,218.693 122.84,218.243 123.258,218.918 123.722,220.721 124.187,222.917 124.651,225.17 125.115,226.916 125.58,228.155 126.044,229.056 126.509,229.619 126.973,230.408 127.437,231.422 127.902,232.548 128.366,233.731 128.831,235.082 129.295,236.716 129.759,238.011 130.224,239.081 130.688,240.095 131.152,240.545 131.617,240.602 132.081,240.151 132.546,239.194 133.01,237.448 133.474,235.251 133.939,232.717 134.403,229.732 134.868,226.353 135.332,222.748 135.796,219.256 136.261,216.103 136.725,213.681 137.19,212.16 137.654,211.428 138.118,211.09 138.583,210.977 139.047,210.639 139.511,210.076 139.976,209.4 140.44,208.894 140.905,208.95 141.369,209.062 141.833,209.513 142.298,209.907 142.762,210.076 143.227,210.133 143.691,209.964 144.155,210.245 144.62,210.414 145.084,210.977 145.549,212.047 146.106,213.118 146.477,214.075 146.942,214.807 147.406,215.314 147.87,215.145 148.335,214.131 148.799,212.836 149.264,211.653 149.728,210.921 150.192,211.034 150.657,212.667 151.121,215.37 151.586,218.581 152.05,221.115 152.514,222.805 152.979,222.974 153.443,221.622 153.908,219.763 154.372,218.355 154.836,217.792 155.394,218.074 155.765,219.369 156.229,221.453 156.694,223.593 157.158,225.395 157.623,226.634 158.087,227.479 158.551,228.38 159.016,229 159.48,229.338 159.945,229.901 160.409,230.689 160.873,231.816 161.338,232.773 161.802,233.956 162.267,235.533 162.731,236.603 163.195,237.448 163.66,237.842 164.124,237.842 164.588,237.335 165.053,235.983 165.517,234.069 165.982,231.759 166.446,228.831 166.91,225.621 167.375,222.185 167.839,218.862 168.35,215.821 168.768,213.343 169.279,211.71 169.697,210.921 170.161,210.414 170.626,210.133 171.09,209.851 171.554,209.457 172.019,208.95 172.483,208.499 172.947,208.274 173.412,208.668 174.062,209.231 174.341,209.513 174.805,209.851 175.269,210.076 175.734,210.245 176.198,210.133 176.663,210.245 177.127,210.752 177.591,211.315 178.056,212.273 178.52,213.455 178.985,214.526 179.449,215.258 179.913,215.37 180.378,214.807 180.842,213.455 181.306,211.766 181.771,210.639 182.235,210.583 182.7,211.597 183.257,213.962 183.628,216.947 184.093,220.045 184.557,221.96 185.022,222.185 185.486,221.115 185.95,219.313 186.415,217.679 186.879,216.666 187.344,216.666 187.808,217.961 188.272,220.045 188.737,222.129 189.201,223.987 189.665,225.508 190.13,226.296 190.594,226.691 191.059,227.029 191.523,227.648 191.987,228.155 192.545,228.549 192.916,229.281 193.381,230.126 193.845,231.196 194.309,232.266 194.774,233.224 195.238,234.406 195.703,235.195 196.167,235.814 196.631,235.758 197.096,234.632 197.56,233.224 198.024,231.027 198.489,228.662 198.953,225.79 199.418,222.748 199.882,219.707 200.346,216.835 200.811,214.3 201.275,212.273 201.925,210.921 202.204,210.414 202.668,210.302 203.133,210.245 203.597,210.02 204.062,209.457 204.526,209.119 204.99,208.556 205.455,208.612 205.919,208.725 206.383,209.119 206.848,209.682 207.312,209.738 207.777,209.795 208.241,209.795 208.705,210.02 209.17,210.245 209.634,210.639 210.099,211.879 210.563,212.949 211.12,213.962 211.492,214.807 211.956,215.314 212.421,215.145 212.885,213.962 213.349,212.723 213.814,211.428 214.278,210.639 214.742,210.865 215.253,212.554 215.718,215.201 216.136,217.905 216.6,220.214 217.064,221.228 217.529,221.059 217.993,219.594 218.458,217.905 218.922,216.778 219.386,216.553 219.851,217.285 220.408,218.918 220.78,220.946 221.244,222.974 221.708,224.663 222.173,225.677 222.637,226.634 223.101,227.31 223.566,227.986 224.03,228.549 224.495,229.112 224.959,229.732 225.423,230.52 225.888,231.422 226.352,232.435 226.817,233.731 227.281,234.744 227.745,235.646 228.21,236.209 228.674,236.265 229.139,235.814 229.696,234.181 230.067,232.21 230.532,229.732 230.996,227.029 231.46,223.762 231.925,220.439 232.389,217.342 232.854,214.695 233.318,212.554 233.782,210.977 234.247,210.245 234.711,209.795 235.176,209.738 235.64,209.513 236.104,209.062 236.569,208.668 237.033,208.443 237.498,208.443 237.962,208.612 238.426,209.175 239.076,209.738 239.355,209.964 239.819,209.964 240.284,209.907 240.748,209.964 241.213,210.076 241.677,210.696 242.141,211.428 242.606,212.498 243.07,213.793 243.535,214.638 243.999,214.807 244.463,214.357 244.928,213.568 245.392,212.442 245.857,211.09 246.321,210.245 246.785,210.189 247.25,211.315 247.714,213.512 248.411,216.159 248.643,218.581 249.107,220.27 249.572,220.664 250.036,219.594 250.5,217.792 250.965,216.215 251.429,215.483 251.894,215.821 252.358,217.285 252.822,219.538 253.287,221.847 253.751,223.818 254.216,225.283 254.68,226.015 255.144,226.465 255.609,226.803 256.073,227.029 256.537,227.479 257.002,227.817 257.559,228.437 257.931,229.056 258.395,229.901 258.859,230.858 259.324,231.872 259.788,233.055 260.253,233.787 260.717,234.575 261.228,234.575 261.692,233.9 262.157,232.379 262.575,230.182 263.039,227.704 263.503,225.001 263.968,221.903 264.432,218.806 264.896,215.821 265.361,213.343 265.825,211.653 266.29,210.471 266.847,209.964 267.218,209.682 267.683,209.738 268.147,209.344 268.612,208.894 269.076,208.556 269.54,208.33 270.005,208.443 270.469,208.725 270.934,209.513 271.398,209.626 271.862,209.795 272.327,209.964 272.791,210.076 273.255,210.245 273.72,210.471 274.184,211.259 274.649,212.216 275.113,213.23 275.577,214.3 276.042,214.807 276.506,214.863 276.971,214.526 277.435,213.399 277.899,211.822 278.364,210.639 278.828,210.245 279.293,211.146 279.757,213.174 280.221,215.877 280.686,218.75 281.15,220.383 281.615,220.721 282.079,219.482 282.543,217.567 283.008,215.821 283.472,214.976 283.936,215.37 284.447,217.004 284.865,219.425 285.562,221.96 285.794,224.156 286.258,225.564 286.723,226.522 287.187,226.86 287.652,227.085 288.116,227.366 288.58,227.761 289.045,227.986 289.509,228.211 289.974,228.943 290.438,229.901 290.902,230.915 291.367,231.872 291.831,232.998 292.295,233.956 292.76,234.35 293.224,234.069 293.689,232.942 294.153,231.365 294.617,229.169 295.082,226.86 295.546,224.325 296.011,221.622 296.475,218.975 296.939,216.159 297.404,213.962 297.868,212.16 298.332,210.977 298.797,210.302 299.261,209.851 299.726,209.626 300.19,209.119 300.654,208.556 301.119,208.161 301.583,208.105 302.048,208.218 302.512,208.781 302.976,209.457 303.441,210.02 304.044,210.245 304.37,210.133 304.834,210.076 305.298,210.076 305.763,210.302 306.227,210.921 306.691,211.879 307.156,213.061 307.667,214.188 308.085,215.032 308.596,215.145 309.013,214.582 309.478,213.174 309.942,211.822 310.407,210.639 310.871,210.076 311.335,210.921 311.8,212.949 312.264,215.877 312.729,218.581 313.193,220.664 313.657,220.946 314.122,219.763 314.586,217.792 315.051,215.765 315.515,214.807 315.979,214.976 316.444,216.497 316.908,219.031 317.372,221.566 317.837,223.706 318.301,225.114 318.766,225.958 319.23,226.465 319.694,226.634 320.159,226.972 320.623,227.648 321.088,228.042 321.552,228.493 322.016,228.887 322.666,229.563 322.945,230.52 323.409,231.309 323.874,232.266 324.338,233.111 324.803,233.787 325.267,233.9 325.731,233.111 326.196,231.534 326.66,229.563 327.125,227.029 327.589,224.438 328.053,221.566 328.518,218.524 328.982,215.708 329.447,213.174 329.911,211.428 330.375,210.133 330.84,209.626 331.304,209.4 331.954,209.231 332.233,208.894 332.697,208.556 333.162,207.992 333.626,207.936 334.09,208.161 334.555,208.725 335.019,209.344 335.484,209.738 335.948,210.133 336.412,209.964 336.877,210.02 337.341,210.133 337.806,210.358 338.27,211.034 338.734,211.935 339.199,213.286 339.663,214.413 340.128,215.089 340.592,215.37 341.056,214.751 341.521,213.624 341.985,211.935 342.449,210.583 342.914,210.076 343.378,210.808 343.843,212.949 344.307,215.652 344.771,218.299 345.236,220.101 345.7,220.439 346.165,219.2 346.629,217.173 347.093,215.539 347.558,214.751 348.022,215.089 348.487,216.778 348.951,219.256 349.415,221.734 349.88,223.649 350.344,225.057 350.808,225.79 351.273,226.071 351.737,226.353 352.202,226.634 352.666,227.141 353.13,227.535 353.595,227.873 354.106,228.268 354.524,228.887 355.034,229.676 355.452,230.408 355.917,231.027 356.381,231.872 356.846,232.548 357.31,232.717 357.774,232.154 358.239,231.027 358.703,229.169 359.167,226.86 359.632,224.269 360.096,221.284 360.561,218.074 361.025,215.032 361.489,212.892 361.954,211.203 362.418,210.133 362.883,209.738 363.347,209.795 363.811,209.738 364.276,209.231 364.74,208.612 365.204,208.105 365.669,207.823 366.133,207.936 366.598,208.443 367.062,209.119 367.526,209.626 367.991,209.964 368.455,209.964 369.013,209.964 369.384,210.076 369.848,210.358 370.313,211.09 370.777,211.991 371.242,213.286 371.706,214.413 372.17,215.089 372.635,215.37 373.099,214.807 373.564,213.399 374.028,211.71 374.492,210.302 374.957,209.569 375.421,209.682 375.885,210.808 376.35,212.78 376.814,214.3 377.325,214.638 377.743,213.512 378.393,210.977 378.672,207.598 379.136,204.613" stroke-width="0.5" stroke="#0071bc" stroke-linejoin="round" stroke-linecap="butt" fill="none"/>
  </g>
 </g>
</svg>
