<?xml version="1.0" encoding="UTF-8" standalone="no"?>
<!-- Created with Inkscape (http://www.inkscape.org/) -->

<svg
   width="128"
   height="128"
   viewBox="0 0 33.866667 33.866667"
   version="1.1"
   id="svg5"
   inkscape:version="1.4 (e7c3feb100, 2024-10-09)"
   sodipodi:docname="ID.svg"
   xmlns:inkscape="http://www.inkscape.org/namespaces/inkscape"
   xmlns:sodipodi="http://sodipodi.sourceforge.net/DTD/sodipodi-0.dtd"
   xmlns="http://www.w3.org/2000/svg"
   xmlns:svg="http://www.w3.org/2000/svg"
   xmlns:rdf="http://www.w3.org/1999/02/22-rdf-syntax-ns#"
   xmlns:cc="http://creativecommons.org/ns#"
   xmlns:dc="http://purl.org/dc/elements/1.1/">
  <sodipodi:namedview
     id="namedview7"
     pagecolor="#ffffff"
     bordercolor="#999999"
     borderopacity="1"
     inkscape:showpageshadow="0"
     inkscape:pageopacity="0"
     inkscape:pagecheckerboard="0"
     inkscape:deskcolor="#d1d1d1"
     inkscape:document-units="px"
     showgrid="true"
     inkscape:zoom="4.2836955"
     inkscape:cx="64.196906"
     inkscape:cy="53.341793"
     inkscape:window-width="1920"
     inkscape:window-height="997"
     inkscape:window-x="0"
     inkscape:window-y="0"
     inkscape:window-maximized="1"
     inkscape:current-layer="g1">
    <inkscape:grid
       id="grid2"
       units="px"
       originx="0"
       originy="0"
       spacingx="0.26458334"
       spacingy="0.26458334"
       empcolor="#3f3fff"
       empopacity="0.25098039"
       color="#3f3fff"
       opacity="0.1254902"
       empspacing="8"
       enabled="true"
       visible="true" />
  </sodipodi:namedview>
  <defs
     id="defs2">
    <marker
       style="overflow:visible"
       id="marker6"
       refX="0"
       refY="0"
       orient="auto-start-reverse"
       inkscape:stockid="Triangle arrow"
       markerWidth="0.69999999"
       markerHeight="0.69999999"
       viewBox="0 0 1 1"
       inkscape:isstock="true"
       inkscape:collect="always"
       preserveAspectRatio="xMidYMid">
      <path
         transform="scale(0.5)"
         style="fill:context-stroke;fill-rule:evenodd;stroke:context-stroke;stroke-width:1pt"
         d="M 5.77,0 -2.88,5 V -5 Z"
         id="path6" />
    </marker>
    <marker
       style="overflow:visible"
       id="marker5"
       refX="0"
       refY="0"
       orient="auto-start-reverse"
       inkscape:stockid="Triangle arrow"
       markerWidth="0.69999999"
       markerHeight="0.69999999"
       viewBox="0 0 1 1"
       inkscape:isstock="true"
       inkscape:collect="always"
       preserveAspectRatio="xMidYMid">
      <path
         transform="scale(0.5)"
         style="fill:context-stroke;fill-rule:evenodd;stroke:context-stroke;stroke-width:1pt"
         d="M 5.77,0 -2.88,5 V -5 Z"
         id="path5" />
    </marker>
    <symbol
       id="g6">
      <title
         id="title6">Δ P occ</title>
      <path
         style="font-variation-settings:normal;fill:none;fill-opacity:1;stroke:#000000;stroke-width:0.79375;stroke-linecap:butt;stroke-linejoin:miter;stroke-miterlimit:4;stroke-dasharray:none;stroke-dashoffset:0;stroke-opacity:1;marker-start:url(#marker5);marker-end:url(#marker6);stop-color:#000000"
         d="M 4.2333335,8.4666671 V 23.283335"
         id="path2"
         sodipodi:nodetypes="cc" />
      <path
         style="font-variation-settings:normal;fill:none;fill-opacity:1;stroke:#000000;stroke-width:1.05833;stroke-linecap:butt;stroke-linejoin:miter;stroke-miterlimit:4;stroke-dasharray:none;stroke-dashoffset:0;stroke-opacity:1;stop-color:#000000"
         d="m 2.1166667,4.2333335 c 4.2333336,0 5.1713499,0.1494697 5.6471902,0.966364 1.9500133,3.3476669 1.5024397,10.3069225 3.5588981,15.5473235 0.779793,1.75031 1.704051,3.786122 3.606343,4.534925 1.741817,0.549032 3.233556,-0.989746 4.127366,-2.291235 2.460371,-3.715853 3.659114,-8.087826 4.843103,-12.335969 0.99978,-6.1637011 7.850435,-6.4214085 7.850435,-6.4214085"
         id="path3"
         sodipodi:nodetypes="csccccc" />
    </symbol>
  </defs>
  <g
     inkscape:label="Calque 1"
     inkscape:groupmode="layer"
     id="layer1">
    <g
       id="g1"
       transform="translate(-0.10629624,-1.0061988)">
      <rect
         style="fill:none;fill-rule:evenodd;stroke:#535353;stroke-width:0;stroke-linecap:round;stroke-linejoin:round;stroke-miterlimit:2;paint-order:stroke markers fill;stroke-dasharray:none"
         id="rect1"
         width="29.633337"
         height="29.633337"
         x="2.2229629"
         y="3.1228654" />
      <path
         style="font-variation-settings:normal;opacity:1;fill:none;fill-opacity:1;stroke:#000000;stroke-width:0.79375;stroke-linecap:butt;stroke-linejoin:miter;stroke-miterlimit:4;stroke-dasharray:none;stroke-dashoffset:0;stroke-opacity:1;marker-end:url(#marker5);stop-color:#000000;stop-opacity:1"
         d="M 7.0062755,23.2312 14.372985,12.647866"
         id="path1"
         sodipodi:nodetypes="cc" />
      <path
         style="fill:none;fill-rule:evenodd;stroke:#000000;stroke-width:1.58750002;stroke-linecap:round;stroke-linejoin:round;stroke-miterlimit:2;stroke-dasharray:none;paint-order:stroke markers fill"
         d="M 2.22296 3.12287 C 2.2726 3.07323 2.32224 3.17251 2.37187 3.12287 C 2.42151 3.07323 2.47115 3.17253 2.52079 3.1229 C 2.57042 3.07326 2.62006 3.1726 2.6697 3.12297 C 2.71933 3.07334 2.76897 3.17273 2.81861 3.12311 C 2.86824 3.07348 2.91788 3.17296 2.96752 3.12334 C 3.01716 3.07371 3.06679 3.17329 3.11643 3.12368 C 3.16607 3.07406 3.2157 3.17376 3.26534 3.12416 C 3.31498 3.07455 3.36462 3.17439 3.41425 3.12479 C 3.46389 3.07519 3.51353 3.17519 3.56316 3.12561 C 3.6128 3.07602 3.66244 3.1762 3.71208 3.12663 C 3.76171 3.07705 3.81135 3.17743 3.86099 3.12787 C 3.91062 3.07831 3.96026 3.17891 4.0099 3.12936 C 4.05953 3.07982 4.10917 3.18066 4.15881 3.13113 C 4.20845 3.0816 4.25808 3.1827 4.30772 3.13318 C 4.35736 3.08367 4.40699 3.18505 4.45663 3.13556 C 4.50627 3.08606 4.55591 3.18774 4.60554 3.13827 C 4.65518 3.08879 4.70482 3.1908 4.75445 3.14134 C 4.80409 3.09188 4.85373 3.19423 4.90337 3.1448 C 4.953 3.09536 5.00264 3.19807 5.05228 3.14866 C 5.10191 3.09925 5.15155 3.20233 5.20119 3.15295 C 5.25082 3.10356 5.30046 3.20705 5.3501 3.15769 C 5.39974 3.10833 5.44937 3.21224 5.49901 3.1629 C 5.54865 3.11357 5.59828 3.21792 5.64792 3.16862 C 5.69756 3.11931 5.7472 3.22412 5.79683 3.17485 C 5.84647 3.12557 5.89611 3.23087 5.94574 3.18162 C 5.99538 3.13237 6.04502 3.23817 6.09466 3.18896 C 6.14429 3.13974 6.19393 3.24606 6.24357 3.19688 C 6.2932 3.1477 6.34284 3.25456 6.39248 3.20541 C 6.44211 3.15626 6.49175 3.26369 6.54139 3.21458 C 6.59103 3.16546 6.64066 3.27347 6.6903 3.22439 C 6.73994 3.17532 6.78957 3.28392 6.83921 3.23489 C 6.88885 3.18585 6.93849 3.29508 6.98812 3.24608 C 7.03776 3.19709 7.0874 3.30696 7.13703 3.258 C 7.18667 3.20904 7.23631 3.31957 7.28595 3.27066 C 7.33558 3.22175 7.38522 3.33296 7.43486 3.28409 C 7.48449 3.23522 7.53413 3.34713 7.58377 3.29831 C 7.6334 3.24948 7.68304 3.36212 7.73268 3.31334 C 7.78232 3.26455 7.83195 3.37793 7.88159 3.3292 C 7.93123 3.28047 7.98086 3.39461 8.0305 3.34592 C 8.08014 3.29724 8.12978 3.41216 8.17941 3.36352 C 8.22905 3.31489 8.27869 3.43062 8.32832 3.38203 C 8.37796 3.33344 8.4276 3.44999 8.47724 3.40146 C 8.52687 3.35292 8.57651 3.47032 8.62615 3.42183 C 8.67578 3.37335 8.72542 3.49161 8.77506 3.44318 C 8.82469 3.39475 8.87433 3.5139 8.92397 3.46552 C 8.97361 3.41715 9.02324 3.53719 9.07288 3.48888 C 9.12252 3.44056 9.17215 3.56153 9.22179 3.51327 C 9.27143 3.46501 9.32107 3.58692 9.3707 3.53872 C 9.42034 3.49052 9.46998 3.6134 9.51961 3.56526 C 9.56925 3.51712 9.61889 3.64098 9.66852 3.5929 C 9.71816 3.54482 9.7678 3.66969 9.81744 3.62167 C 9.86707 3.57366 9.91671 3.69954 9.96635 3.65159 C 10.016 3.60364 10.0656 3.73057 10.1153 3.68269 C 10.1649 3.6348 10.2145 3.7628 10.2642 3.71498 C 10.3138 3.66715 10.3634 3.79624 10.4131 3.74848 C 10.4627 3.70073 10.5124 3.83092 10.562 3.78323 C 10.6116 3.73555 10.6613 3.86686 10.7109 3.81924 C 10.7605 3.77163 10.8102 3.90409 10.8598 3.85654 C 10.9095 3.809 10.9591 3.94262 11.0087 3.89515 C 11.0584 3.84768 11.108 3.98249 11.1576 3.93509 C 11.2073 3.88769 11.2569 4.0237 11.3065 3.97638 C 11.3562 3.92906 11.4058 4.0663 11.4555 4.01905 C 11.5051 3.9718 11.5547 4.11028 11.6044 4.06311 C 11.654 4.01594 11.7036 4.15569 11.7533 4.1086 C 11.8029 4.06151 11.8526 4.20255 11.9022 4.15554 C 11.9518 4.10852 12.0015 4.25087 12.0511 4.20393 C 12.1007 4.157 12.1504 4.30067 12.2 4.25382 C 12.2497 4.20697 12.2993 4.35199 12.3489 4.30522 C 12.3986 4.25845 12.4482 4.40484 12.4978 4.35815 C 12.5475 4.31147 12.5971 4.45924 12.6467 4.41264 C 12.6964 4.36605 12.746 4.51523 12.7957 4.46871 C 12.8453 4.4222 12.8949 4.57281 12.9446 4.52639 C 12.9942 4.47996 13.0438 4.63202 13.0935 4.58568 C 13.1431 4.53935 13.1928 4.69287 13.2424 4.64663 C 13.292 4.60038 13.3417 4.75539 13.3913 4.70924 C 13.4409 4.66308 13.4906 4.8196 13.5402 4.77354 C 13.5899 4.72748 13.6395 4.88553 13.6891 4.83956 C 13.7388 4.79359 13.7884 4.95319 13.838 4.90732 C 13.8877 4.86145 13.9373 5.02261 13.987 4.97683 C 14.0366 4.93106 14.0862 5.09381 14.1359 5.04813 C 14.1855 5.00245 14.2351 5.16682 14.2848 5.12124 C 14.3344 5.07566 14.384 5.24165 14.4337 5.19617 C 14.4833 5.15069 14.533 5.31833 14.5826 5.27295 C 14.6322 5.22757 14.6819 5.39688 14.7315 5.3516 C 14.7811 5.30632 14.8308 5.47733 14.8804 5.43215 C 14.9301 5.38698 14.9797 5.55969 15.0293 5.51462 C 15.079 5.46955 15.1286 5.644 15.1782 5.59903 C 15.2279 5.55406 15.2775 5.73026 15.3272 5.6854 C 15.3768 5.64054 15.4264 5.81851 15.4761 5.77375 C 15.5257 5.729 15.5753 5.90876 15.625 5.86412 C 15.6746 5.81947 15.7242 6.00105 15.7739 5.95651 C 15.8235 5.91197 15.8732 6.09538 15.9228 6.05096 C 15.9724 6.00653 16.0221 6.1918 16.0717 6.14748 C 16.1213 6.10317 16.171 6.2903 16.2206 6.2461 C 16.2703 6.2019 16.3199 6.39093 16.3695 6.34684 C 16.4192 6.30276 16.4688 6.4937 16.5184 6.44973 C 16.5681 6.40576 16.6177 6.59864 16.6674 6.55478 C 16.717 6.51092 16.7666 6.70576 16.8163 6.66202 C 16.8659 6.61828 16.9155 6.81509 16.9652 6.77147 C 17.0148 6.72785 17.0644 6.92666 17.1141 6.88316 C 17.1637 6.83965 17.2134 7.04048 17.263 6.9971 C 17.3126 6.95372 17.3623 7.15657 17.4119 7.11332 C 17.4615 7.07006 17.5112 7.27497 17.5608 7.23184 C 17.6105 7.1887 17.6601 7.39569 17.7097 7.35268 C 17.7594 7.30967 17.809 7.51876 17.8586 7.47587 C 17.9083 7.43298 17.9579 7.64419 18.0076 7.60143 C 18.0572 7.55867 18.1068 7.77202 18.1565 7.72938 C 18.2061 7.68675 18.2557 7.90225 18.3054 7.85975 C 18.355 7.81724 18.4047 8.03493 18.4543 7.99255 C 18.5039 7.95017 18.5536 8.17006 18.6032 8.12781 C 18.6528 8.08557 18.7025 8.30767 18.7521 8.26555 C 18.8017 8.22344 18.8514 8.44778 18.901 8.4058 C 18.9507 8.36382 19.0003 8.59042 19.0499 8.54858 C 19.0996 8.50673 19.1492 8.73561 19.1988 8.6939 C 19.2485 8.65219 19.2981 8.88337 19.3478 8.8418 C 19.3974 8.80022 19.447 9.03373 19.4967 8.99229 C 19.5463 8.95085 19.5959 9.1867 19.6456 9.14539 C 19.6952 9.10409 19.7449 9.34231 19.7945 9.30114 C 19.8441 9.25998 19.8938 9.50058 19.9434 9.45955 C 19.993 9.41853 20.0427 9.66153 20.0923 9.62065 C 20.1419 9.57976 20.1916 9.82519 20.2412 9.78445 C 20.2909 9.74371 20.3405 9.99158 20.3901 9.95098 C 20.4398 9.91038 20.4894 10.1607 20.539 10.1203 C 20.5887 10.0798 20.6383 10.3326 20.688 10.2923 C 20.7376 10.252 20.7872 10.5073 20.8369 10.4672 C 20.8865 10.427 20.9361 10.6849 20.9858 10.6449 C 21.0354 10.6048 21.0851 10.8652 21.1347 10.8254 C 21.1843 10.7855 21.234 11.0485 21.2836 11.0088 C 21.3332 10.969 21.3829 11.2346 21.4325 11.195 C 21.4822 11.1555 21.5318 11.4236 21.5814 11.3842 C 21.6311 11.3448 21.6807 11.6156 21.7303 11.5763 C 21.78 11.5371 21.8296 11.8105 21.8792 11.7714 C 21.9289 11.7323 21.9785 12.0084 22.0282 11.9695 C 22.0778 11.9305 22.1274 12.2093 22.1771 12.1705 C 22.2267 12.1317 22.2763 12.4132 22.326 12.3746 C 22.3756 12.3359 22.4253 12.6202 22.4749 12.5817 C 22.5245 12.5432 22.5742 12.8302 22.6238 12.7919 C 22.6734 12.7536 22.7231 13.0434 22.7727 13.0052 C 22.8224 12.967 22.872 13.2596 22.9216 13.2216 C 22.9713 13.1836 23.0209 13.479 23.0705 13.4411 C 23.1202 13.4032 23.1698 13.7015 23.2194 13.6638 C 23.2691 13.6261 23.3187 13.9272 23.3684 13.8897 C 23.418 13.8521 23.4676 14.1561 23.5173 14.1187 C 23.5669 14.0814 23.6165 14.3882 23.6662 14.351 C 23.7158 14.3138 23.7655 14.6236 23.8151 14.5866 C 23.8647 14.5495 23.9144 14.8623 23.964 14.8254 C 24.0136 14.7885 24.0633 15.1042 24.1129 15.0675 C 24.1626 15.0308 24.2122 15.3495 24.2618 15.3129 C 24.3115 15.2764 24.3611 15.5981 24.4107 15.5617 C 24.4604 15.5254 24.51 15.85 24.5596 15.8138 C 24.6093 15.7777 24.6589 16.1054 24.7086 16.0694 C 24.7582 16.0333 24.8078 16.3641 24.8575 16.3283 C 24.9071 16.2924 24.9567 16.6263 25.0064 16.5906 C 25.056 16.555 25.1057 16.8919 25.1553 16.8564 C 25.2049 16.8209 25.2546 17.161 25.3042 17.1257 C 25.3538 17.0904 25.4035 17.4336 25.4531 17.3985 C 25.5028 17.3633 25.5524 17.7098 25.602 17.6748 C 25.6517 17.6398 25.7013 17.9894 25.7509 17.9546 C 25.8006 17.9198 25.8502 18.2726 25.8999 18.238 C 25.9495 18.2034 25.9991 18.5595 26.0488 18.525 C 26.0984 18.4906 26.148 18.8499 26.1977 18.8156 C 26.2473 18.7814 26.2969 19.1439 26.3466 19.1098 C 26.3962 19.0758 26.4459 19.4416 26.4955 19.4077 C 26.5451 19.3738 26.5948 19.743 26.6444 19.7093 C 26.694 19.6756 26.7437 20.0481 26.7933 20.0146 C 26.843 19.981 26.8926 20.3569 26.9422 20.3235 C 26.9919 20.2902 27.0415 20.6694 27.0911 20.6363 C 27.1408 20.6031 27.1904 20.9858 27.2401 20.9528 C 27.2897 20.9198 27.3393 21.3059 27.389 21.2731 C 27.4386 21.2403 27.4882 21.6298 27.5379 21.5972 C 27.5875 21.5646 27.6371 21.9575 27.6868 21.9251 C 27.7364 21.8927 27.7861 22.2891 27.8357 22.2569 C 27.8853 22.2247 27.935 22.6246 27.9846 22.5926 C 28.0342 22.5606 28.0839 22.964 28.1335 22.9322 C 28.1832 22.9003 28.2328 23.3073 28.2824 23.2757 C 28.3321 23.244 28.3817 23.6546 28.4313 23.6231 C 28.481 23.5917 28.5306 24.0058 28.5803 23.9745 C 28.6299 23.9433 28.6795 24.361 28.7292 24.33 C 28.7788 24.2989 28.8284 24.7203 28.8781 24.6894 C 28.9277 24.6585 28.9773 25.0836 29.027 25.0529 C 29.0766 25.0222 29.1263 25.4509 29.1759 25.4204 C 29.2255 25.3899 29.2752 25.8223 29.3248 25.792 C 29.3744 25.7617 29.4241 26.1978 29.4737 26.1678 C 29.5234 26.1377 29.573 26.5775 29.6226 26.5476 C 29.6723 26.5177 29.7219 26.9613 29.7715 26.9316 C 29.8212 26.9019 29.8708 27.3493 29.9205 27.3198 C 29.9701 27.2903 30.0197 27.7415 30.0694 27.7122 C 30.119 27.6829 30.1686 28.1378 30.2183 28.1088 C 30.2679 28.0797 30.3176 28.5385 30.3672 28.5096 C 30.4168 28.4807 30.4665 28.9434 30.5161 28.9147 C 30.5657 28.886 30.6154 29.3526 30.665 29.3241 C 30.7146 29.2956 30.7643 29.766 30.8139 29.7378 C 30.8636 29.7095 30.9132 30.1839 30.9628 30.1558 C 31.0125 30.1277 31.0621 30.606 31.1117 30.5782 C 31.1614 30.5503 31.211 31.0326 31.2607 31.0049 C 31.3103 30.9773 31.3599 31.4635 31.4096 31.4361 C 31.4592 31.4087 31.5088 31.8989 31.5585 31.8717 C 31.6081 31.8444 31.6578 32.3387 31.7074 32.3117 C 31.757 32.2847 31.8067 32.783 31.8563 32.7562"
         title="1-x**3"
         id="path4" />
    </g>
  </g>
  <metadata
     id="metadata139">
    <rdf:RDF>
      <cc:Work
         rdf:about="">
        <dc:creator>
          <cc:Agent>
            <dc:title>Nicolas Blais St-Laurent</dc:title>
          </cc:Agent>
        </dc:creator>
      </cc:Work>
    </rdf:RDF>
  </metadata>
</svg>
