<?xml version="1.0" encoding="UTF-8" standalone="no"?>
<!-- Created with Inkscape (http://www.inkscape.org/) -->

<svg
   width="341.67886mm"
   height="200.59131mm"
   viewBox="0 0 341.67886 200.59131"
   version="1.1"
   id="svg5"
   sodipodi:docname="EKG.svg"
   inkscape:version="1.1.1 (3bf5ae0d25, 2021-09-20)"
   xmlns:inkscape="http://www.inkscape.org/namespaces/inkscape"
   xmlns:sodipodi="http://sodipodi.sourceforge.net/DTD/sodipodi-0.dtd"
   xmlns="http://www.w3.org/2000/svg"
   xmlns:svg="http://www.w3.org/2000/svg">
  <sodipodi:namedview
     id="namedview7"
     pagecolor="#ffffff"
     bordercolor="#999999"
     borderopacity="1"
     inkscape:pageshadow="0"
     inkscape:pageopacity="0"
     inkscape:pagecheckerboard="0"
     inkscape:document-units="mm"
     showgrid="false"
     showguides="false"
     inkscape:zoom="0.51279691"
     inkscape:cx="590.8772"
     inkscape:cy="356.86642"
     inkscape:window-width="1600"
     inkscape:window-height="831"
     inkscape:window-x="0"
     inkscape:window-y="32"
     inkscape:window-maximized="1"
     inkscape:current-layer="g13494"
     fit-margin-top="0"
     fit-margin-left="0"
     fit-margin-right="0"
     fit-margin-bottom="0"
     inkscape:guide-bbox="true"
     inkscape:snap-smooth-nodes="true"
     inkscape:snap-page="false"
     inkscape:snap-global="true">
    <sodipodi:guide
       position="0.2646215,146.04904"
       orientation="0,1"
       id="guide2982"
       inkscape:label=""
       inkscape:locked="false"
       inkscape:color="rgb(0,0,255)" />
    <sodipodi:guide
       position="0.2646215,96.04904"
       orientation="0,1"
       id="guide2984"
       inkscape:label=""
       inkscape:locked="false"
       inkscape:color="rgb(0,0,255)" />
    <sodipodi:guide
       position="0.2646215,46.04904"
       orientation="0,1"
       id="guide2986"
       inkscape:label=""
       inkscape:locked="false"
       inkscape:color="rgb(0,0,255)" />
    <sodipodi:guide
       position="0.2646215,-3.9509595"
       orientation="0,1"
       id="guide2988"
       inkscape:label=""
       inkscape:locked="false"
       inkscape:color="rgb(0,0,255)" />
    <inkscape:grid
       type="xygrid"
       id="grid2990"
       originx="0.2646215"
       originy="-7.9577322" />
  </sodipodi:namedview>
  <defs
     id="defs2" />
  <g
     inkscape:label="Dérivation 4"
     inkscape:groupmode="layer"
     id="g13506"
     transform="translate(-15.676717,-134.625)"
     style="display:inline" />
  <g
     inkscape:label="Dérivation 3"
     inkscape:groupmode="layer"
     id="g13502"
     transform="translate(-15.676717,-134.625)"
     style="display:inline" />
  <g
     inkscape:label="Dérivation 2"
     inkscape:groupmode="layer"
     id="g13498"
     transform="translate(-15.676717,-134.625)"
     style="display:inline" />
  <g
     inkscape:label="Dérivation 1"
     inkscape:groupmode="layer"
     id="g13494"
     transform="translate(-15.676717,-134.625)"
     style="display:inline">
    <path
       style="font-variation-settings:normal;display:inline;fill:none;fill-opacity:1;stroke:#000000;stroke-width:0.529167;stroke-linecap:round;stroke-linejoin:round;stroke-miterlimit:4;stroke-dasharray:none;stroke-dashoffset:0;stroke-opacity:1;stop-color:#000000"
       d="m 15.9413,314.214 c 0,0 26.4463,-2.094 27.8577,-2.859 l 1.415,3.325 1.3892,-4.051 1.3892,9.46 1.8692,-5.592 c 0.4799,0.079 3.2969,-2.141 4.0328,0.813 l 2.1287,17.839 2.1286,-24.847 2.1286,3.472 2.1287,5.043 c 1.7843,0.865 10.1015,-0.712 10.9928,-1.174 0.8913,-0.461 1.0648,-1.541 2.5212,-1.541 1.4565,0 1.2382,-10e-4 2.5213,0.664 1.283,0.664 22.7847,-1.62 22.7847,-1.62"
       id="path13504"
       sodipodi:nodetypes="ccccccscccszzzc" />
    <path
       style="font-variation-settings:normal;display:inline;fill:none;fill-opacity:1;stroke:#000000;stroke-width:0.529167;stroke-linecap:round;stroke-linejoin:round;stroke-miterlimit:4;stroke-dasharray:none;stroke-dashoffset:0;stroke-opacity:1;stop-color:#000000"
       d="m 15.9413,267.033 c 0,0 26.4463,-4.927 27.8577,-5.693 l 1.415,5.888 1.3892,-8.831 1.3892,13.483 1.8692,-8.808 c 0.4799,0.079 3.2969,-2.673 4.0328,0.281 l 2.1287,19.218 2.1286,-41.934 2.1286,21.558 2.1287,3.196 c 1.9829,-0.024 10.1015,-1.253 10.9928,-1.715 0.8913,-0.462 1.0648,-1.11 2.5212,-1.11 1.4565,0 1.2382,2.166 2.5213,2.831 1.283,0.664 22.7847,-3.82 22.7847,-3.82"
       id="path13500"
       sodipodi:nodetypes="ccccccscccszzzc" />
    <path
       style="font-variation-settings:normal;display:inline;fill:none;fill-opacity:1;stroke:#000000;stroke-width:0.529167;stroke-linecap:round;stroke-linejoin:round;stroke-miterlimit:4;stroke-dasharray:none;stroke-dashoffset:0;stroke-opacity:1;stop-color:#000000"
       d="m 15.9413,216.269 c 0,0 26.4463,-0.029 27.8577,-0.795 l 1.415,10.514 1.3892,-39.344 1.3892,33.459 1.8692,-7.916 c 0.4799,0.079 3.2969,-3.221 4.0328,-0.267 l 2.1287,11.826 4.7744,-39.853 2.1287,33.834 2.1286,-6.48 c 1.7669,-0.901 7.4557,3.474 8.347,3.012 0.8913,-0.462 1.0648,0.546 2.5212,0.546 1.4565,0 1.2382,1.523 2.5212,2.187 1.2831,0.665 22.7848,0.053 22.7848,0.053"
       id="path13496"
       sodipodi:nodetypes="ccccccscccszzzc" />
    <path
       style="font-variation-settings:normal;fill:none;fill-opacity:1;stroke:#000000;stroke-width:0.529167;stroke-linecap:round;stroke-linejoin:round;stroke-miterlimit:4;stroke-dasharray:none;stroke-dashoffset:0;stroke-opacity:1;stop-color:#000000"
       d="m 15.9413,165.281 c 0,0 26.4463,-0.614 27.8577,-1.38 l 1.415,11.374 1.3892,-36.982 1.3892,30.406 c 0,0 1.53,-7.123 1.8692,-7.55 0.3392,-0.428 2.2078,-0.183 4.0328,2.323 l 2.1287,5.832 2.1286,-25.009 c 1.8356,1.229 1.4191,17.533 2.1286,27.35 l 2.1287,-5.865 c 0.5458,-1.907 10.1015,-0.078 10.9928,-0.54 0.8913,-0.462 1.0648,-3.647 2.5212,-3.647 1.4565,0 1.2382,2.429 2.5213,3.093 1.283,0.665 22.7847,0.421 22.7847,0.421"
       id="path13492"
       sodipodi:nodetypes="ccccczccccszzzc" />
    <path
       style="font-variation-settings:normal;display:inline;fill:none;fill-opacity:1;stroke:#000000;stroke-width:0.529167;stroke-linecap:round;stroke-linejoin:round;stroke-miterlimit:4;stroke-dasharray:none;stroke-dashoffset:0;stroke-opacity:1;stop-color:#000000"
       d="m 101.229,313.146 c 0,0 26.446,2.417 27.857,1.651 l 1.415,2.091 1.39,-3.566 1.389,10.225 1.869,-5.89 c 0.48,0.078 3.297,-6.759 4.033,-3.805 l 2.129,21.1 2.128,-26.75 2.129,6.591 2.128,-1.687 c 1.785,0.865 10.102,1.563 10.993,1.102 0.892,-0.462 1.065,0.256 2.521,0.256 1.457,0 1.239,0.718 2.522,1.382 1.283,0.665 22.784,-0.025 22.784,-0.025"
       id="path5404"
       sodipodi:nodetypes="ccccccscccszzzc" />
    <path
       style="font-variation-settings:normal;display:inline;fill:none;fill-opacity:1;stroke:#000000;stroke-width:0.529167;stroke-linecap:round;stroke-linejoin:round;stroke-miterlimit:4;stroke-dasharray:none;stroke-dashoffset:0;stroke-opacity:1;stop-color:#000000"
       d="m 101.229,261.577 c 0,0 26.446,0.026 27.857,-0.74 l 1.415,1.437 1.39,-4 1.389,8.786 1.869,-7.801 c 0.48,0.079 3.297,-3.554 4.033,-0.6 l 2.129,18.958 2.128,-41.765 2.129,25.536 2.128,-1.541 c 1.983,-0.025 10.102,4.411 10.993,3.95 0.892,-0.462 1.065,-3.322 2.521,-3.322 1.457,0 1.239,0.507 2.522,1.171 1.283,0.665 22.784,-2 22.784,-2"
       id="path5406"
       sodipodi:nodetypes="ccccccscccszzzc" />
    <path
       style="font-variation-settings:normal;display:inline;fill:none;fill-opacity:1;stroke:#000000;stroke-width:0.529167;stroke-linecap:round;stroke-linejoin:round;stroke-miterlimit:4;stroke-dasharray:none;stroke-dashoffset:0;stroke-opacity:1;stop-color:#000000"
       d="m 101.229,217.045 c 0,0 26.446,-3.925 27.857,-4.691 l 1.415,11.929 1.39,-34.371 1.389,27.783 1.869,-3.457 c 0.48,0.079 3.297,-4.878 4.033,-1.925 l 2.129,14.216 4.774,-44.653 2.129,35.713 2.128,-3.924 c 1.767,-0.9 7.456,2.377 8.347,1.915 0.892,-0.462 1.065,-5.34 2.521,-5.34 1.457,0 1.239,5.276 2.522,5.941 1.283,0.664 22.784,-4.712 22.784,-4.712"
       id="path5408"
       sodipodi:nodetypes="ccccccscccszzzc" />
    <path
       style="font-variation-settings:normal;fill:none;fill-opacity:1;stroke:#000000;stroke-width:0.529167;stroke-linecap:round;stroke-linejoin:round;stroke-miterlimit:4;stroke-dasharray:none;stroke-dashoffset:0;stroke-opacity:1;stop-color:#000000"
       d="m 101.229,165.107 c 0,0 26.446,-3.191 27.857,-3.957 l 1.415,16.206 1.39,-36.742 1.389,25.068 c 0,0 1.53,-3.658 1.869,-4.085 0.339,-0.428 2.208,-0.964 4.033,1.542 l 2.129,5.832 2.128,-23.753 c 1.836,1.229 1.419,17.969 2.129,27.786 l 2.128,-8.088 c 0.546,-1.906 10.102,-2.107 10.993,-2.569 0.892,-0.461 1.065,-0.311 2.521,-0.311 1.457,0 1.239,4.527 2.522,5.192 1.283,0.664 22.784,-3.345 22.784,-3.345"
       id="path5410"
       sodipodi:nodetypes="ccccczccccszzzc" />
    <path
       style="font-variation-settings:normal;display:inline;fill:none;fill-opacity:1;stroke:#000000;stroke-width:0.529167;stroke-linecap:round;stroke-linejoin:round;stroke-miterlimit:4;stroke-dasharray:none;stroke-dashoffset:0;stroke-opacity:1;stop-color:#000000"
       d="m 186.516,315.821 c 0,0 26.446,0.934 27.858,0.168 l 1.415,3.818 1.389,-5.479 1.389,5.096 1.869,-4.44 c 0.48,0.079 3.297,-1.673 4.033,1.281 l 2.129,17.357 2.129,-26.052 2.128,8.328 2.129,1.017 c 1.784,0.865 10.101,-2.224 10.993,-2.685 0.891,-0.462 1.064,3.557 2.521,3.557 1.456,0 1.238,-3.668 2.521,-3.003 1.283,0.664 22.785,-0.584 22.785,-0.584"
       id="path5414"
       sodipodi:nodetypes="ccccccscccszzzc" />
    <path
       style="font-variation-settings:normal;display:inline;fill:none;fill-opacity:1;stroke:#000000;stroke-width:0.529167;stroke-linecap:round;stroke-linejoin:round;stroke-miterlimit:4;stroke-dasharray:none;stroke-dashoffset:0;stroke-opacity:1;stop-color:#000000"
       d="m 186.516,259.646 c 0,0 26.446,0.668 27.858,-0.098 l 1.415,4.953 1.389,-7.564 1.389,12.997 1.869,-8.318 c 0.48,0.078 3.297,-2.512 4.033,0.441 l 2.129,19.924 2.129,-41.101 2.128,23.361 2.129,-2.969 c 1.983,-0.024 10.101,4.682 10.993,4.22 0.891,-0.462 1.064,-5.234 2.521,-5.234 1.456,0 1.238,1.142 2.521,1.807 1.283,0.664 22.785,0.107 22.785,0.107"
       id="path5416"
       sodipodi:nodetypes="ccccccscccszzzc" />
    <path
       style="font-variation-settings:normal;display:inline;fill:none;fill-opacity:1;stroke:#000000;stroke-width:0.529167;stroke-linecap:round;stroke-linejoin:round;stroke-miterlimit:4;stroke-dasharray:none;stroke-dashoffset:0;stroke-opacity:1;stop-color:#000000"
       d="m 186.516,211.469 c 0,0 26.446,-0.768 27.858,-1.533 l 1.415,15.16 1.389,-38.497 1.389,32.48 1.869,-7.036 c 0.48,0.079 3.297,-1.2 4.033,1.753 l 2.129,10.157 4.774,-41.959 2.129,33.906 2.129,0.527 c 1.767,-0.9 7.455,-5.332 8.347,-5.793 0.891,-0.462 1.064,3.248 2.521,3.248 1.456,0 1.238,1.965 2.521,2.629 1.283,0.665 22.785,-3.157 22.785,-3.157"
       id="path5418"
       sodipodi:nodetypes="ccccccscccszzzc" />
    <path
       style="font-variation-settings:normal;fill:none;fill-opacity:1;stroke:#000000;stroke-width:0.529167;stroke-linecap:round;stroke-linejoin:round;stroke-miterlimit:4;stroke-dasharray:none;stroke-dashoffset:0;stroke-opacity:1;stop-color:#000000"
       d="m 186.516,163.883 c 0,0 26.446,0.304 27.858,-0.462 l 1.415,8.475 1.389,-30.46 1.389,26.334 c 0,0 1.53,-4.113 1.869,-4.541 0.34,-0.427 2.208,-2.624 4.033,-0.118 l 2.129,7.432 2.129,-26.791 c 1.835,1.229 1.419,14.857 2.128,24.674 l 2.129,-1.996 c 0.546,-1.907 10.101,-3.45 10.993,-3.912 0.891,-0.461 1.064,-0.138 2.521,-0.138 1.456,0 1.238,1.05 2.521,1.715 1.283,0.664 22.785,-2.198 22.785,-2.198"
       id="path5420"
       sodipodi:nodetypes="ccccczccccszzzc" />
    <path
       style="font-variation-settings:normal;display:inline;fill:none;fill-opacity:1;stroke:#000000;stroke-width:0.529167;stroke-linecap:round;stroke-linejoin:round;stroke-miterlimit:4;stroke-dasharray:none;stroke-dashoffset:0;stroke-opacity:1;stop-color:#000000"
       d="m 271.804,314.2 c 0,0 26.446,1.304 27.857,0.538 l 1.415,4.294 1.39,-7.496 1.389,8.084 1.869,-2.012 c 0.48,0.078 3.297,-6.447 4.033,-3.494 l 2.128,19.535 2.129,-25.384 2.129,3.921 2.128,4.861 c 1.785,0.865 10.102,-3.704 10.993,-4.166 0.892,-0.462 1.065,-0.625 2.521,-0.625 1.457,0 1.239,3.671 2.522,4.336 1.283,0.664 22.784,-0.929 22.784,-0.929"
       id="path5424"
       sodipodi:nodetypes="ccccccscccszzzc" />
    <path
       style="font-variation-settings:normal;display:inline;fill:none;fill-opacity:1;stroke:#000000;stroke-width:0.529167;stroke-linecap:round;stroke-linejoin:round;stroke-miterlimit:4;stroke-dasharray:none;stroke-dashoffset:0;stroke-opacity:1;stop-color:#000000"
       d="m 271.804,262.172 c 0,0 26.446,2.329 27.857,1.563 l 1.415,3.18 1.39,-6.064 1.389,12.027 1.869,-6.792 c 0.48,0.079 3.297,-7.505 4.033,-4.552 l 2.128,18.471 2.129,-39.532 2.129,24.452 2.128,-1.135 c 1.983,-0.024 10.102,0.331 10.993,-0.13 0.892,-0.462 1.065,-2.212 2.521,-2.212 1.457,0 1.239,1.994 2.522,2.659 1.283,0.664 22.784,2.753 22.784,2.753"
       id="path5426"
       sodipodi:nodetypes="ccccccscccszzzc" />
    <path
       style="font-variation-settings:normal;display:inline;fill:none;fill-opacity:1;stroke:#000000;stroke-width:0.529167;stroke-linecap:round;stroke-linejoin:round;stroke-miterlimit:4;stroke-dasharray:none;stroke-dashoffset:0;stroke-opacity:1;stop-color:#000000"
       d="m 271.804,213.354 c 0,0 26.446,1.218 27.857,0.452 l 1.415,8.801 1.39,-35.112 1.389,28.14 1.869,-2.573 c 0.48,0.079 3.297,-5.228 4.033,-2.274 l 2.128,13.468 4.775,-43.059 2.129,34.581 2.128,-2.127 c 1.767,-0.9 7.456,-2.767 8.347,-3.228 0.892,-0.462 1.065,2.746 2.521,2.746 1.457,0 1.239,-1.765 2.522,-1.101 1.283,0.665 22.784,0.993 22.784,0.993"
       id="path5428"
       sodipodi:nodetypes="ccccccscccszzzc" />
    <path
       style="font-variation-settings:normal;fill:none;fill-opacity:1;stroke:#000000;stroke-width:0.529167;stroke-linecap:round;stroke-linejoin:round;stroke-miterlimit:4;stroke-dasharray:none;stroke-dashoffset:0;stroke-opacity:1;stop-color:#000000"
       d="m 271.804,161.897 c 0,0 26.446,-2.273 27.857,-3.038 l 1.415,12.03 1.39,-36 1.389,30.463 c 0,0 1.53,-6.725 1.869,-7.153 0.339,-0.427 2.208,-4.476 4.033,-1.97 l 2.128,5.883 2.129,-23.024 c 1.836,1.229 1.419,16.296 2.129,26.113 l 2.128,-7.328 c 0.546,-1.906 10.102,-1.266 10.993,-1.728 0.892,-0.462 1.065,4.014 2.521,4.014 1.457,0 1.239,-3.748 2.522,-3.083 1.283,0.664 22.784,0.727 22.784,0.727"
       id="path5430"
       sodipodi:nodetypes="ccccczccccszzzc" />
  </g>
</svg>
