<?xml version='1.0' encoding='UTF-8' standalone='no'?>
<svg viewBox="0 0 588 158" height="158pt" xmlns:xlink="http://www.w3.org/1999/xlink" xmlns="http://www.w3.org/2000/svg" width="588pt">
 <title>gl2ps_renderer figure</title>
 <desc>
Creator: GL2PS 1.4.2, (C) 1999-2020 C. Geuzaine
For: Octave
CreationDate: Mon Mar 28 20:10:02 2022
</desc>
 <defs/>
 <polygon fill="#ffffff" points="0,0 588,0 588,158 0,158"/>
 <g>
  <polygon shape-rendering="crispEdges" fill="#ffffff" points="0,158 588,158 588,0 0,0"/>
  <clipPath id="cp00588158">
   <polygon points="0,158 588,158 588,0 0,0"/>
  </clipPath>
  <g clip-path="url(#cp00588158)">
   <polygon shape-rendering="crispEdges" fill="#ffffff" points="76.5343,137.553 532.797,137.553 532.797,11.8531 76.5343,11.8531"/>
   <polyline stroke-linejoin="miter" stroke="#262626" stroke-width="0.5" stroke-linecap="butt" fill="none" points="76.5343,137.553 76.5343,133.002"/>
   <polyline stroke-linejoin="miter" stroke="#262626" stroke-width="0.5" stroke-linecap="butt" fill="none" points="76.5343,11.8531 76.5343,16.4049"/>
   <polyline stroke-linejoin="miter" stroke="#262626" stroke-width="0.5" stroke-linecap="butt" fill="none" points="141.715,137.553 141.715,133.002"/>
   <polyline stroke-linejoin="miter" stroke="#262626" stroke-width="0.5" stroke-linecap="butt" fill="none" points="141.715,11.8531 141.715,16.4049"/>
   <polyline stroke-linejoin="miter" stroke="#262626" stroke-width="0.5" stroke-linecap="butt" fill="none" points="206.895,137.553 206.895,133.002"/>
   <polyline stroke-linejoin="miter" stroke="#262626" stroke-width="0.5" stroke-linecap="butt" fill="none" points="206.895,11.8531 206.895,16.4049"/>
   <polyline stroke-linejoin="miter" stroke="#262626" stroke-width="0.5" stroke-linecap="butt" fill="none" points="272.075,137.553 272.075,133.002"/>
   <polyline stroke-linejoin="miter" stroke="#262626" stroke-width="0.5" stroke-linecap="butt" fill="none" points="272.075,11.8531 272.075,16.4049"/>
   <polyline stroke-linejoin="miter" stroke="#262626" stroke-width="0.5" stroke-linecap="butt" fill="none" points="337.256,137.553 337.256,133.002"/>
   <polyline stroke-linejoin="miter" stroke="#262626" stroke-width="0.5" stroke-linecap="butt" fill="none" points="337.256,11.8531 337.256,16.4049"/>
   <polyline stroke-linejoin="miter" stroke="#262626" stroke-width="0.5" stroke-linecap="butt" fill="none" points="402.436,137.553 402.436,133.002"/>
   <polyline stroke-linejoin="miter" stroke="#262626" stroke-width="0.5" stroke-linecap="butt" fill="none" points="402.436,11.8531 402.436,16.4049"/>
   <polyline stroke-linejoin="miter" stroke="#262626" stroke-width="0.5" stroke-linecap="butt" fill="none" points="467.616,137.553 467.616,133.002"/>
   <polyline stroke-linejoin="miter" stroke="#262626" stroke-width="0.5" stroke-linecap="butt" fill="none" points="467.616,11.8531 467.616,16.4049"/>
   <polyline stroke-linejoin="miter" stroke="#262626" stroke-width="0.5" stroke-linecap="butt" fill="none" points="532.797,137.553 532.797,133.002"/>
   <polyline stroke-linejoin="miter" stroke="#262626" stroke-width="0.5" stroke-linecap="butt" fill="none" points="532.797,11.8531 532.797,16.4049"/>
   <text font-size="10" transform="translate(73.5343,153.036) rotate(-0,3,-8)" font-style="normal" xml:space="preserve" font-family="FreeSans" font-weight="normal">
    <tspan y="-0" x="0 " fill="rgb(38,38,38)">2</tspan>
   </text>
   <text font-size="10" transform="translate(138.715,153.036) rotate(-0,3,-8)" font-style="normal" xml:space="preserve" font-family="FreeSans" font-weight="normal">
    <tspan y="-0" x="0 " fill="rgb(38,38,38)">3</tspan>
   </text>
   <text font-size="10" transform="translate(203.895,153.036) rotate(-0,3,-8)" font-style="normal" xml:space="preserve" font-family="FreeSans" font-weight="normal">
    <tspan y="-0" x="0 " fill="rgb(38,38,38)">4</tspan>
   </text>
   <text font-size="10" transform="translate(269.075,153.036) rotate(-0,3,-8)" font-style="normal" xml:space="preserve" font-family="FreeSans" font-weight="normal">
    <tspan y="-0" x="0 " fill="rgb(38,38,38)">5</tspan>
   </text>
   <text font-size="10" transform="translate(334.256,153.036) rotate(-0,3,-8)" font-style="normal" xml:space="preserve" font-family="FreeSans" font-weight="normal">
    <tspan y="-0" x="0 " fill="rgb(38,38,38)">6</tspan>
   </text>
   <text font-size="10" transform="translate(399.436,153.036) rotate(-0,3,-8)" font-style="normal" xml:space="preserve" font-family="FreeSans" font-weight="normal">
    <tspan y="-0" x="0 " fill="rgb(38,38,38)">7</tspan>
   </text>
   <text font-size="10" transform="translate(464.616,153.036) rotate(-0,3,-8)" font-style="normal" xml:space="preserve" font-family="FreeSans" font-weight="normal">
    <tspan y="-0" x="0 " fill="rgb(38,38,38)">8</tspan>
   </text>
   <text font-size="10" transform="translate(529.796,153.036) rotate(-0,3,-8)" font-style="normal" xml:space="preserve" font-family="FreeSans" font-weight="normal">
    <tspan y="-0" x="0 " fill="rgb(38,38,38)">9</tspan>
   </text>
   <polyline stroke-linejoin="miter" stroke="#262626" stroke-width="0.5" stroke-linecap="butt" fill="none" points="76.5343,137.553 81.0996,137.553"/>
   <polyline stroke-linejoin="miter" stroke="#262626" stroke-width="0.5" stroke-linecap="butt" fill="none" points="532.797,137.553 528.231,137.553"/>
   <polyline stroke-linejoin="miter" stroke="#262626" stroke-width="0.5" stroke-linecap="butt" fill="none" points="76.5343,112.413 81.0996,112.413"/>
   <polyline stroke-linejoin="miter" stroke="#262626" stroke-width="0.5" stroke-linecap="butt" fill="none" points="532.797,112.413 528.231,112.413"/>
   <polyline stroke-linejoin="miter" stroke="#262626" stroke-width="0.5" stroke-linecap="butt" fill="none" points="76.5343,87.2733 81.0996,87.2733"/>
   <polyline stroke-linejoin="miter" stroke="#262626" stroke-width="0.5" stroke-linecap="butt" fill="none" points="532.797,87.2733 528.231,87.2733"/>
   <polyline stroke-linejoin="miter" stroke="#262626" stroke-width="0.5" stroke-linecap="butt" fill="none" points="76.5343,62.1333 81.0996,62.1333"/>
   <polyline stroke-linejoin="miter" stroke="#262626" stroke-width="0.5" stroke-linecap="butt" fill="none" points="532.797,62.1333 528.231,62.1333"/>
   <polyline stroke-linejoin="miter" stroke="#262626" stroke-width="0.5" stroke-linecap="butt" fill="none" points="76.5343,36.9932 81.0996,36.9932"/>
   <polyline stroke-linejoin="miter" stroke="#262626" stroke-width="0.5" stroke-linecap="butt" fill="none" points="532.797,36.9932 528.231,36.9932"/>
   <polyline stroke-linejoin="miter" stroke="#262626" stroke-width="0.5" stroke-linecap="butt" fill="none" points="76.5343,11.8531 81.0996,11.8531"/>
   <polyline stroke-linejoin="miter" stroke="#262626" stroke-width="0.5" stroke-linecap="butt" fill="none" points="532.797,11.8531 528.231,11.8531"/>
   <text font-size="10" transform="translate(62.5314,141.553) rotate(-0,9,-4)" font-style="normal" xml:space="preserve" font-family="FreeSans" font-weight="normal">
    <tspan y="-0" x="0 3 " fill="rgb(38,38,38)">-6</tspan>
   </text>
   <text font-size="10" transform="translate(62.5314,116.413) rotate(-0,9,-4)" font-style="normal" xml:space="preserve" font-family="FreeSans" font-weight="normal">
    <tspan y="-0" x="0 3 " fill="rgb(38,38,38)">-4</tspan>
   </text>
   <text font-size="10" transform="translate(62.5314,91.2733) rotate(-0,9,-4)" font-style="normal" xml:space="preserve" font-family="FreeSans" font-weight="normal">
    <tspan y="-0" x="0 3 " fill="rgb(38,38,38)">-2</tspan>
   </text>
   <text font-size="10" transform="translate(65.5314,66.1333) rotate(-0,6,-4)" font-style="normal" xml:space="preserve" font-family="FreeSans" font-weight="normal">
    <tspan y="-0" x="0 " fill="rgb(38,38,38)">0</tspan>
   </text>
   <text font-size="10" transform="translate(65.5314,40.9932) rotate(-0,6,-4)" font-style="normal" xml:space="preserve" font-family="FreeSans" font-weight="normal">
    <tspan y="-0" x="0 " fill="rgb(38,38,38)">2</tspan>
   </text>
   <text font-size="10" transform="translate(65.5314,15.8532) rotate(-0,6,-4)" font-style="normal" xml:space="preserve" font-family="FreeSans" font-weight="normal">
    <tspan y="-0" x="0 " fill="rgb(38,38,38)">4</tspan>
   </text>
   <polyline stroke-linejoin="miter" stroke-dasharray="16,0" stroke="#262626" stroke-width="0.5" stroke-linecap="square" fill="none" points="76.5343,137.553 532.797,137.553"/>
   <polyline stroke-linejoin="miter" stroke-dasharray="16,0" stroke="#262626" stroke-width="0.5" stroke-linecap="square" fill="none" points="76.5343,11.8531 532.797,11.8531"/>
   <polyline stroke-linejoin="miter" stroke-dasharray="16,0" stroke="#262626" stroke-width="0.5" stroke-linecap="square" fill="none" points="76.5343,137.553 76.5343,11.8531"/>
   <polyline stroke-linejoin="miter" stroke-dasharray="16,0" stroke="#262626" stroke-width="0.5" stroke-linecap="square" fill="none" points="532.797,137.553 532.797,11.8531"/>
   <polyline stroke-linejoin="round" stroke="#0071bc" stroke-width="0.5" stroke-linecap="butt" fill="none" points="99.9992,108.768 100.781,98.9634 101.303,89.5359 101.955,80.4855 102.606,72.1893 103.258,65.7786 103.91,61.1277 104.562,56.8539 105.214,52.8314 105.931,49.5632 106.517,46.4207 107.234,44.1581 107.821,41.8955 108.473,40.8899 109.125,40.3871 109.776,40.2614 110.428,40.8899 111.08,41.0156 111.732,41.1413 112.384,40.8899 113.035,41.6441 113.883,43.0268 114.339,44.6609 114.991,47.552 115.643,50.066 116.294,52.2029 116.946,52.4543 117.598,52.2029 118.25,50.5688 118.902,48.0548 119.553,46.4207 120.205,46.9235 120.857,50.3174 121.509,56.3511 122.161,63.7674 122.812,70.5552 123.464,75.3318 124.116,76.3374 124.768,73.9491 125.42,69.0468 126.071,63.8931 126.854,60.8763 127.375,60.1221 128.027,62.6361 128.679,67.1613 129.33,72.5664 129.982,77.7201 130.634,81.9939 131.286,85.3878 131.938,88.5303 132.589,91.5471 133.241,94.5639 133.893,97.7064 134.545,101.855 135.197,106.003 135.848,109.774 136.5,113.168 137.152,116.059 137.804,118.573 138.521,119.327 139.107,119.201 140.02,118.196 140.411,116.184 141.063,112.916 141.715,108.768 142.366,102.734 143.018,95.5695 143.67,87.399 144.322,78.4743 144.974,69.4239 145.625,60.4992 146.277,53.3342 146.929,47.8034 147.581,44.2838 148.233,42.1469 148.884,41.267 149.536,41.1413 150.188,40.8899 150.84,40.01 151.492,38.8787 152.144,37.8731 152.926,37.3703 153.447,36.8675 154.099,36.8675 154.751,37.3703 155.403,37.7474 156.054,38.2502 156.706,38.5016 157.358,38.8787 158.01,39.6329 158.662,40.7642 159.313,42.6497 159.965,45.4151 160.617,48.1805 161.269,50.066 161.921,50.5688 162.572,49.5632 163.224,47.6777 163.876,44.6609 164.528,42.2726 165.18,42.1469 165.831,44.4095 166.483,49.3118 167.135,55.974 167.787,63.1389 168.439,68.4183 169.09,70.4295 169.742,68.7954 170.394,65.2758 171.111,61.002 171.698,57.3567 172.415,56.3511 173.001,57.8595 173.653,61.8819 174.305,66.7842 174.957,71.8122 175.608,75.7089 176.26,78.4743 176.912,80.4855 177.564,81.7425 178.216,83.5023 178.867,85.7649 179.519,88.2789 180.171,90.9186 180.823,93.9354 181.475,97.5807 182.126,100.472 182.778,102.86 183.43,105.123 184.082,106.128 184.734,106.254 185.385,105.248 186.037,103.112 186.689,99.2149 187.341,94.3125 187.993,88.656 188.644,81.9939 189.296,74.4519 189.948,66.4071 190.6,58.6137 191.252,51.5744 191.903,46.1693 192.555,42.7754 193.207,41.1413 193.859,40.3871 194.511,40.1357 195.163,39.3815 195.814,38.1245 196.466,36.6161 197.118,35.4848 197.77,35.6105 198.422,35.8619 199.073,36.8675 199.725,37.7474 200.377,38.1245 201.029,38.2502 201.681,37.8731 202.332,38.5016 202.984,38.8787 203.636,40.1357 204.288,42.524 205.07,44.9123 205.591,47.0492 206.243,48.6833 206.895,49.8146 207.547,49.4375 208.199,47.1749 208.85,44.2838 209.502,41.6441 210.154,40.01 210.806,40.2614 211.458,43.9067 212.109,49.9403 212.761,57.1053 213.413,62.7618 214.065,66.5328 214.717,66.9099 215.368,63.8931 216.02,59.745 216.672,56.6024 217.324,55.3455 218.106,55.974 218.627,58.8651 219.279,63.516 219.931,68.2926 220.583,72.315 221.235,75.0804 221.886,76.9659 222.538,78.9771 223.19,80.3598 223.842,81.114 224.494,82.371 225.145,84.1308 225.797,86.6448 226.449,88.7817 227.101,91.4214 227.753,94.941 228.404,97.3293 229.056,99.2149 229.708,100.095 230.36,100.095 231.012,98.9634 231.663,95.9466 232.315,91.6728 232.967,86.5191 233.619,79.9827 234.271,72.8178 234.923,65.1501 235.574,57.7338 236.291,50.9459 236.878,45.4151 237.595,41.7698 238.182,40.01 238.833,38.8787 239.485,38.2502 240.137,37.6217 240.789,36.7418 241.441,35.6105 242.092,34.6049 242.744,34.1021 243.396,34.982 244.308,36.239 244.7,36.8675 245.351,37.6217 246.003,38.1245 246.655,38.5016 247.307,38.2502 247.959,38.5016 248.61,39.6329 249.262,40.8899 249.914,43.0268 250.566,45.6665 251.218,48.0548 251.869,49.6889 252.521,49.9403 253.173,48.6833 253.825,45.6665 254.477,41.8955 255.128,39.3815 255.78,39.2558 256.432,41.5184 257.214,46.7978 257.736,53.4599 258.387,60.3735 259.039,64.6473 259.691,65.1501 260.343,62.7618 260.995,58.7394 261.646,55.094 262.298,52.8314 262.95,52.8314 263.602,55.7225 264.254,60.3735 264.905,65.0244 265.557,69.1725 266.209,72.5664 266.861,74.3262 267.513,75.2061 268.164,75.9603 268.816,77.343 269.468,78.4743 270.25,79.3542 270.772,80.9883 271.423,82.8738 272.075,85.2621 272.727,87.6504 273.379,89.7873 274.031,92.427 274.682,94.1868 275.334,95.5695 275.986,95.4438 276.638,92.9298 277.29,89.7873 277.941,84.885 278.593,79.6056 279.245,73.1949 279.897,66.4071 280.549,59.6193 281.201,53.2085 281.852,47.552 282.504,43.0268 283.417,40.01 283.808,38.8787 284.46,38.6273 285.111,38.5016 285.763,37.9988 286.415,36.7418 287.067,35.9876 287.719,34.7306 288.37,34.8563 289.022,35.1077 289.674,35.9876 290.326,37.2446 290.978,37.3703 291.629,37.496 292.281,37.496 292.933,37.9988 293.585,38.5016 294.237,39.3815 294.888,42.1469 295.54,44.5352 296.322,46.7978 296.844,48.6833 297.496,49.8146 298.147,49.4375 298.799,46.7978 299.451,44.0324 300.103,41.1413 300.755,39.3815 301.406,39.8843 302.123,43.6553 302.775,49.5632 303.362,55.5968 304.014,60.7506 304.665,63.0132 305.317,62.6361 305.969,59.3679 306.621,55.5968 307.273,53.0828 307.924,52.58 308.576,54.2141 309.358,57.8595 309.88,62.3847 310.532,66.9099 311.183,70.6809 311.835,72.9435 312.487,75.0804 313.139,76.5888 313.791,78.0972 314.442,79.3542 315.094,80.6112 315.746,81.9939 316.398,83.7537 317.05,85.7649 317.701,88.0275 318.353,90.9186 319.005,93.1812 319.657,95.1924 320.309,96.4494 320.961,96.5751 321.612,95.5695 322.394,91.9242 322.916,87.5247 323.568,81.9939 324.22,75.9603 324.871,68.6697 325.523,61.2534 326.175,54.3398 326.827,48.4319 327.479,43.6553 328.13,40.1357 328.782,38.5016 329.434,37.496 330.086,37.3703 330.738,36.8675 331.389,35.8619 332.041,34.982 332.693,34.4792 333.345,34.4792 333.997,34.8563 334.648,36.1133 335.561,37.3703 335.952,37.8731 336.604,37.8731 337.256,37.7474 337.907,37.8731 338.559,38.1245 339.211,39.5072 339.863,41.1413 340.515,43.5296 341.166,46.4207 341.818,48.3062 342.47,48.6833 343.122,47.6777 343.774,45.9179 344.425,43.4039 345.077,40.3871 345.729,38.5016 346.381,38.3759 347.033,40.8899 347.684,45.7922 348.662,51.7001 348.988,57.1053 349.64,60.8763 350.292,61.7562 350.943,59.3679 351.595,55.3455 352.247,51.8258 352.899,50.1917 353.551,50.9459 354.202,54.2141 354.854,59.2422 355.506,64.3959 356.158,68.7954 356.81,72.0636 357.461,73.6977 358.113,74.7033 358.765,75.4575 359.417,75.9603 360.069,76.9659 360.721,77.7201 361.503,79.1028 362.024,80.4855 362.676,82.371 363.328,84.5079 363.98,86.7705 364.631,89.4102 365.283,91.0443 365.935,92.8041 366.652,92.8041 367.304,91.2957 367.956,87.9018 368.542,82.9995 369.194,77.4687 369.846,71.4351 370.498,64.5216 371.149,57.6081 371.801,50.9459 372.453,45.4151 373.105,41.6441 373.757,39.0044 374.539,37.8731 375.06,37.2446 375.712,37.3703 376.364,36.4904 377.016,35.4848 377.667,34.7306 378.319,34.2278 378.971,34.4792 379.623,35.1077 380.275,36.8675 380.926,37.1189 381.578,37.496 382.23,37.8731 382.882,38.1245 383.534,38.5016 384.185,39.0044 384.837,40.7642 385.489,42.9011 386.141,45.1637 386.793,47.552 387.444,48.6833 388.096,48.809 388.748,48.0548 389.4,45.5408 390.052,42.0212 390.703,39.3815 391.355,38.5016 392.007,40.5128 392.659,45.038 393.311,51.0716 393.962,57.4824 394.614,61.1277 395.266,61.8819 395.918,59.1165 396.57,54.8427 397.221,50.9459 397.873,49.0604 398.525,49.9403 399.242,53.5856 399.829,58.9908 400.806,64.6473 401.132,69.5496 401.784,72.6921 402.436,74.829 403.088,75.5832 403.74,76.086 404.391,76.7145 405.043,77.5944 405.695,78.0972 406.347,78.6 406.999,80.2341 407.65,82.371 408.302,84.6336 408.954,86.7705 409.606,89.2845 410.258,91.4214 410.909,92.3013 411.561,91.6728 412.213,89.1588 412.865,85.6392 413.517,80.7369 414.168,75.5832 414.82,69.9267 415.472,63.8931 416.124,57.9852 416.776,51.7001 417.427,46.7978 418.079,42.7754 418.731,40.1357 419.383,38.6273 420.035,37.6217 420.686,37.1189 421.338,35.9876 421.99,34.7306 422.642,33.8507 423.294,33.725 423.945,33.9764 424.597,35.2334 425.249,36.7418 425.901,37.9988 426.748,38.5016 427.204,38.2502 427.856,38.1245 428.508,38.1245 429.16,38.6273 429.812,40.01 430.463,42.1469 431.115,44.7866 431.832,47.3006 432.419,49.1861 433.136,49.4375 433.722,48.1805 434.374,45.038 435.026,42.0212 435.678,39.3815 436.33,38.1245 436.981,40.01 437.633,44.5352 438.285,51.0716 438.937,57.1053 439.589,61.7562 440.24,62.3847 440.892,59.745 441.544,55.3455 442.196,50.8202 442.848,48.6833 443.5,49.0604 444.151,52.4543 444.803,58.1109 445.455,63.7674 446.107,68.544 446.759,71.6865 447.41,73.572 448.062,74.7033 448.714,75.0804 449.366,75.8346 450.018,77.343 450.669,78.2229 451.321,79.2285 451.973,80.1084 452.885,81.6168 453.277,83.7537 453.928,85.5135 454.58,87.6504 455.232,89.5359 455.884,91.0443 456.536,91.2957 457.187,89.5359 457.839,86.0163 458.491,81.6168 459.143,75.9603 459.795,70.1781 460.446,63.7674 461.098,56.9796 461.75,50.6945 462.402,45.038 463.054,41.1413 463.705,38.2502 464.357,37.1189 465.009,36.6161 465.922,36.239 466.313,35.4848 466.964,34.7306 467.616,33.4736 468.268,33.3479 468.92,33.8507 469.572,35.1077 470.223,36.4904 470.875,37.3703 471.527,38.2502 472.179,37.8731 472.831,37.9988 473.482,38.2502 474.134,38.753 474.786,40.2614 475.438,42.2726 476.09,45.2894 476.741,47.8034 477.393,49.3118 478.045,49.9403 478.697,48.5576 479.349,46.0436 480,42.2726 480.652,39.2558 481.304,38.1245 481.956,39.7586 482.608,44.5352 483.259,50.5688 483.911,56.4768 484.563,60.4992 485.215,61.2534 485.867,58.488 486.518,53.9627 487.17,50.3174 487.822,48.5576 488.474,49.3118 489.126,53.0828 489.778,58.6137 490.429,64.1445 491.081,68.4183 491.733,71.5608 492.385,73.1949 493.037,73.8234 493.688,74.4519 494.34,75.0804 494.992,76.2117 495.644,77.0916 496.296,77.8458 497.013,78.7257 497.599,80.1084 498.316,81.8682 498.903,83.5023 499.555,84.885 500.206,86.7705 500.858,88.2789 501.51,88.656 502.162,87.399 502.814,84.885 503.465,80.7369 504.117,75.5832 504.769,69.801 505.421,63.1389 506.073,55.974 506.724,49.1861 507.376,44.4095 508.028,40.6385 508.68,38.2502 509.332,37.3703 509.983,37.496 510.635,37.3703 511.287,36.239 511.939,34.8563 512.591,33.725 513.242,33.0965 513.894,33.3479 514.546,34.4792 515.198,35.9876 515.85,37.1189 516.501,37.8731 517.153,37.8731 517.935,37.8731 518.457,38.1245 519.109,38.753 519.76,40.3871 520.412,42.3983 521.064,45.2894 521.716,47.8034 522.368,49.3118 523.019,49.9403 523.671,48.6833 524.323,45.5408 524.975,41.7698 525.627,38.6273 526.278,36.9932 526.93,37.2446 527.582,39.7586 528.234,44.1581 528.886,47.552 529.603,48.3062 530.189,45.7922 531.102,40.1357 531.493,32.5937 532.145,25.9316"/>
  </g>
 </g>
</svg>
